<svg xmlns="http://www.w3.org/2000/svg" id="Camada_1" data-name="Camada 1" viewBox="0 0 700 254"><defs><style>      .cls-1 {        fill: #59595b;      }      .cls-2 {        fill: #196cac;      }      .cls-3 {        fill: #1e75ba;      }      .cls-4 {        fill: #2aa9e0;      }    </style></defs><g><path class="cls-1" d="m375.55,42.01v6.68h-24.08v16.13h20.11v6.68h-20.11v24.46h-8.18v-53.94h32.27Z"></path><path class="cls-1" d="m381.69,56.87c2.55-.75,7.8-1.58,11.33-1.58,12.15,0,14.93,5.32,14.93,16.88v14.56c0,2.63.75,3.53,2.17,3.53.6,0,1.28-.15,2.17-.45l.53,5.93c-1.8.6-3.98.98-5.63.98-3.23,0-5.1-1.05-5.92-4.8-2.78,2.7-6.53,4.8-11.33,4.8-7.95,0-11.63-5.63-11.63-12.45,0-9.38,5.71-13.81,15.38-13.81,2.25,0,4.28.22,6.61.75v-2.1c0-5.25-2.63-7.58-8.4-7.58-3.15,0-6.9.67-9.53,1.5l-.68-6.15Zm18.61,19.58c-1.58-.45-3.3-.82-5.25-.82-5.55,0-8.7,2.17-8.7,8.02,0,3.9,1.87,6.91,5.85,6.91,3,0,6.15-1.73,8.1-3.83v-10.28Z"></path><path class="cls-1" d="m448.52,87.47l.68,6.75c-2.63,1.28-6.61,2.63-11.48,2.63-13.73,0-17.03-11.03-17.03-20.63,0-10.81,3.6-20.93,16.13-20.93,8.63,0,12.15,5.32,13.28,11.03l-6.6,2.32c-.98-3.67-2.7-6.82-6.98-6.82-6.6,0-7.65,7.88-7.65,14.11,0,8.77,2.85,14.33,9.76,14.33,3.9,0,6.98-1.2,9.9-2.78Z"></path><path class="cls-1" d="m483.24,91.75c-3.45,2.85-7.35,4.95-12.3,4.95-6.45,0-9.9-2.93-10.73-8.18-.22-1.35-.3-3.45-.3-4.95v-26.56l7.96-.98v26.48c0,1.87.07,2.77.22,3.6.52,2.77,2.4,3.83,5.32,3.83,3.6,0,6.53-1.8,9.46-4.35v-29.56h7.95v39.91h-7.35l-.23-4.2Z"></path><path class="cls-1" d="m504.6,42.01h8.03v42.54c0,3.9.97,5.62,3.75,5.62,1.58,0,3.6-.6,5.62-1.5l.98,6.22c-2.4,1.13-5.78,1.8-8.48,1.8-7.8,0-9.9-4.43-9.9-11.11v-43.59Z"></path><path class="cls-1" d="m554.48,42.01h7.95v53.94h-7.2l-.22-3.75c-2.03,2.17-5.25,4.5-10.06,4.5-8.18,0-14.03-6.45-14.03-20.26,0-10.36,4.13-21.16,15-21.16,3.75,0,6.3,1.35,8.55,2.85v-16.13Zm.08,22.58c-2.17-1.65-4.43-3-7.13-3-4.35,0-8.25,3.23-8.25,15.08,0,8.86,3.07,13.58,7.88,13.58,3.23,0,5.71-1.8,7.51-3.68v-21.98Z"></path><path class="cls-1" d="m577.42,56.87c2.55-.75,7.8-1.58,11.33-1.58,12.15,0,14.93,5.32,14.93,16.88v14.56c0,2.63.75,3.53,2.17,3.53.6,0,1.28-.15,2.17-.45l.53,5.93c-1.8.6-3.98.98-5.63.98-3.23,0-5.1-1.05-5.92-4.8-2.78,2.7-6.53,4.8-11.33,4.8-7.95,0-11.63-5.63-11.63-12.45,0-9.38,5.71-13.81,15.38-13.81,2.25,0,4.28.22,6.61.75v-2.1c0-5.25-2.63-7.58-8.4-7.58-3.15,0-6.9.67-9.53,1.5l-.68-6.15Zm18.61,19.58c-1.58-.45-3.3-.82-5.25-.82-5.55,0-8.7,2.17-8.7,8.02,0,3.9,1.87,6.91,5.85,6.91,3,0,6.15-1.73,8.1-3.83v-10.28Z"></path><path class="cls-1" d="m639.98,42.01h7.95v53.94h-7.2l-.22-3.75c-2.03,2.17-5.25,4.5-10.06,4.5-8.18,0-14.03-6.45-14.03-20.26,0-10.36,4.13-21.16,15-21.16,3.75,0,6.3,1.35,8.55,2.85v-16.13Zm.08,22.58c-2.17-1.65-4.43-3-7.13-3-4.35,0-8.25,3.23-8.25,15.08,0,8.86,3.07,13.58,7.88,13.58,3.23,0,5.71-1.8,7.51-3.68v-21.98Z"></path><path class="cls-1" d="m668.1,77.27c.15,8.26,3.6,12.91,10.05,12.91,3.9,0,7.58-1.28,10.66-2.93l.52,6.75c-2.55,1.43-7.12,2.85-12,2.85-13.66,0-17.26-9.9-17.26-21.23,0-14.48,6.82-20.33,15.76-20.33,9.97,0,14.18,6.75,14.18,18.75v3.23h-21.9Zm7.58-15.9c-5.18,0-7.51,5.18-7.51,10.66h14.18c0-7.21-2.47-10.66-6.68-10.66Z"></path><path class="cls-1" d="m337.24,219.59l29.44-100.3h26.92l30.55,100.3h-21.9l-7.25-22.74h-29.57l-6.56,22.74h-21.62Zm42.41-82.02c-.84,5.44-2.23,12.42-3.77,18.27l-6.28,24.69h20.92l-6.41-24.55c-1.4-5.16-2.93-12.83-4.04-18.41h-.42Z"></path><path class="cls-1" d="m440.63,119.3h21.76v83.42h40.87v16.88h-62.63v-100.3Z"></path><path class="cls-1" d="m544.01,119.3v100.3h-21.76v-100.3h21.76Z"></path><path class="cls-1" d="m569.97,194.35c8.37,5.3,17.58,8.93,25.67,8.93s13.53-3.21,13.53-11.3c-.14-8.93-6.14-11.85-17.86-15.06-12.28-3.35-27.07-8.37-27.07-29.15,0-17.99,13.67-30.55,33.76-30.55,22.6,0,30.55,12.84,34.04,24.69l-19.81,5.72c-1.96-6.83-6.28-12.98-14.51-12.98-6.56,0-11.44,3.21-11.44,10.46,0,8.23,7.25,11.02,17.58,13.95,16.32,4.61,27.34,12.98,27.34,30.27,0,20.65-15.48,32.22-35.71,32.22-15.62,0-27.06-5.3-32.22-8.51l6.7-18.69Z"></path></g><g><polyline class="cls-4" points="95.64 165.73 154.18 91.14 127.02 56.53 9.79 56.53"></polyline><polygon class="cls-3" points="154.18 241.07 298.57 56.54 181.34 56.54 154.18 91.14 212.72 165.72 154.18 241.07"></polygon><polygon class="cls-2" points="154.18 241.07 212.72 165.72 154.18 91.14 95.64 165.72 154.18 241.07"></polygon><path class="cls-4" d="m153.97,70.31l21.9-27.9c5.16-6.57,5.16-15.82,0-22.4-3.44-4.38-8.7-6.94-14.27-6.94h-52.62"></path></g></svg>