<svg xmlns="http://www.w3.org/2000/svg" width="370" height="414" version="1.1"><defs><style>.cls-1{fill:#231f20}.cls-5{fill:#9d8b5c}</style></defs><path d="M368.583 49.288C311.926 15.424 247.879-.174 185.01 0 122.14-.174 58.104 15.424 1.437 49.288.473 63.97.035 78.157.093 91.885c-.36 144.793 59.48 251.74 184.011 321.59.293.174.575.35.867.525.01 0 .02-.01.03-.02.01 0 .019.01.028.02.292-.175.575-.35.867-.526 124.53-69.85 184.371-176.796 184.011-321.589.058-13.728-.38-27.914-1.334-42.597z" class="cls-1"/><path d="M359.791 54.692C308.168 24.859 248.21 9.115 186.081 9.115h-2.142c-62.13 0-122.087 15.744-173.71 45.577a604.988 604.988 0 0 0-1.022 37.213c-.176 70.746 14.624 132.777 43.98 184.362 28.985 50.932 73.326 93.724 131.823 127.227 58.497-33.503 102.837-76.295 131.823-127.227 29.356-51.594 44.155-113.626 43.98-184.43.059-12.044-.292-24.517-1.022-37.155z" class="cls-5"/><path fill="#eae7de" d="M185.01 392.969C72.533 326.829 17.98 228.256 18.33 91.924a584.72 584.72 0 0 1 .74-31.77c49.267-27.457 106.06-41.926 164.879-41.926h2.142c58.818 0 115.612 14.469 164.879 41.926.535 10.759.788 21.362.74 31.644.34 136.458-54.214 235.03-166.69 301.161z"/><path d="M179.402 27.42c-8.938.146-13.407.36-22.316 1.08a5346.002 5346.002 0 0 0-16.581 33.494c-5.54-9.746-11.1-19.474-16.69-29.19-8.82 1.567-13.213 2.503-21.937 4.645v73.334c8.744-2.142 13.145-3.076 21.985-4.653V69.433c4.392 6.563 6.593 9.873 11.004 16.572 4.43-.643 6.65-.926 11.09-1.432 4.45-7.838 6.67-11.722 11.129-19.424v36.687c8.918-.72 13.378-.934 22.316-1.08zm11.157.01v73.335c8.958.146 13.437.36 22.365 1.08V65.15c4.44 7.702 6.661 11.586 11.082 19.424 4.44.496 6.658.789 11.088 1.432a2036.65 2036.65 0 0 1 11.053-16.562v36.687c8.821 1.577 13.211 2.502 21.935 4.644V37.438c-8.724-2.142-13.114-3.067-21.935-4.644a7776.685 7776.685 0 0 0-16.505 29.22A4299.957 4299.957 0 0 0 212.875 28.5c-8.919-.71-13.378-.925-22.316-1.07M81.798 43.91c-2.124.008-4.718.515-7.98 1.61h-.01c-10.242 3.447-15.306 5.364-25.305 9.609-5.58 2.366-8.355 3.613-13.846 6.232a256.386 256.386 0 0 0-6.778 3.32v73.58c8.15-4.1 12.28-6.008 20.633-9.552v-18.441c10-4.245 15.063-6.162 25.306-9.61 6.514-2.19 10.37-4.624 13.135-8.022 2.755-3.408 4.138-7.225 4.138-11.5V54.42c0-4.275-1.383-7.342-4.138-9.134-1.378-.896-3.032-1.385-5.156-1.377m205.909.496c-1.708.082-3.128.452-4.252 1.095-3.009 1.704-4.517 4.722-4.517 8.997v45.05c0 4.275 1.508 8.111 4.517 11.587 2.998 3.476 8.09 6.289 15.179 8.733 7.78 2.677 11.636 4.138 19.27 7.274.525.214.778.322 1.304.536 1.626.681 2.444 1.022 4.06 1.723 6.923 2.98 11.762 4.01 14.605 2.803 2.853-1.208 4.265-3.913 4.265-8.177V96.559a757.404 757.404 0 0 0-31.119-13.806v14.05c4.216 1.635 6.319 2.481 10.496 4.253v6.728c0 .838-.262 1.355-.778 1.56-.516.195-1.345.058-2.474-.41-.682-.281-1.023-.419-1.695-.691-.224-.088-.329-.137-.553-.225-4.878-1.976-7.333-2.911-12.27-4.703-1.148-.418-1.986-.925-2.521-1.528-.526-.604-.797-1.323-.797-2.17V67.942c0-.837.261-1.37.797-1.605.526-.233 1.373-.146 2.521.272 4.723 1.714 7.08 2.61 11.743 4.488.643.263.965.39 1.598.653.467.194.7.292 1.177.486 1.13.468 1.958 1.024 2.474 1.666.526.643.778 1.382.778 2.22v2.006c8.344 3.544 12.484 5.453 20.623 9.552l.01-.03v-8.695c0-4.265-1.412-8.423-4.265-12.395-2.853-3.973-7.682-7.594-14.605-10.573-1.412-.614-2.123-.905-3.545-1.499-.934-.39-1.41-.584-2.344-.973-7.43-3.048-11.19-4.46-18.755-7.06-4.43-1.527-8.08-2.187-10.927-2.05M68.137 66.113c.262.005.485.055.667.147.487.253.73.798.73 1.635v13.192c0 .837-.243 1.559-.73 2.153-.486.593-1.257 1.07-2.308 1.45-7.264 2.62-10.865 4.031-18.001 7.06V73.512c7.136-3.028 10.737-4.44 18-7.059.658-.237 1.205-.349 1.642-.34m67.538 55.586c-1.46.01-2.94.088-4.372.224-12.307 1.09-23.406 6.611-26.161 19.152-18.52 19.24-28.89 46.113-26.192 74.719 1.363 14.449 5.92 27.836 12.92 39.54l1.996-3.468c-6.182-10.856-10.213-23.173-11.45-36.405-2.57-27.204 7.137-52.761 24.536-71.222 13.183.38 22.598-8.764 27.7-20.068.36-.808.701-1.635 1.032-2.463zm98.62.019c.332.828.673 1.654 1.033 2.463 5.102 11.294 14.518 20.448 27.702 20.068 17.399 18.46 27.106 44.02 24.535 71.223-1.246 13.213-5.267 25.51-11.44 36.366l2.006 3.476c6.971-11.693 11.517-25.072 12.88-39.51l.011.01c2.697-28.607-7.672-55.49-26.191-74.72-2.756-12.54-13.857-18.06-26.164-19.151a49.964 49.964 0 0 0-4.372-.224zm-145.006 1.997c-9.95 11.119-15.228 25.781-4.372 38.02 11.596-10.243 10.604-25.47 4.372-38.02m191.392 0c-6.231 12.55-7.224 27.777 4.372 38.02 10.856-12.239 5.579-26.901-4.372-38.02m-170.803 23.752a3.467 3.467 0 0 0-3.48 3.801 3.48 3.48 0 0 0 3.778 3.136 3.467 3.467 0 0 0 3.125-3.788 3.47 3.47 0 0 0-3.423-3.15m150.217 0a3.479 3.479 0 0 0-3.423 3.149 3.463 3.463 0 0 0 3.126 3.788 3.478 3.478 0 0 0 3.777-3.136 3.47 3.47 0 0 0-3.48-3.801m-198.894 8.797c-3.145 14.595-.487 29.94 15.004 35.207 5.004-14.643-3.379-27.389-15.004-35.207m247.561 0c-11.625 7.818-20.009 20.564-15.004 35.207 15.49-5.267 18.15-20.612 15.004-35.207m-193.611.812c-10.69.669-20.072 5.537-23.446 17.337 14.858 4.294 27.165-4.712 34.4-16.708-3.68-.608-7.39-.852-10.954-.63m139.67 0c-3.563-.223-7.273.02-10.953.63 7.234 11.995 19.54 21.001 34.399 16.707-3.374-11.8-12.755-16.668-23.446-17.337M80.083 162.84a3.473 3.473 0 0 0-3.48 3.803 3.478 3.478 0 0 0 3.779 3.134 3.46 3.46 0 0 0 3.124-3.786 3.473 3.473 0 0 0-3.423-3.151m209.804 0a3.48 3.48 0 0 0-3.423 3.15 3.461 3.461 0 0 0 3.126 3.787 3.478 3.478 0 0 0 3.779-3.134 3.474 3.474 0 0 0-3.482-3.803m-12.608 15.268a3.479 3.479 0 0 0-3.423 3.15 3.463 3.463 0 0 0 3.126 3.788 3.478 3.478 0 0 0 3.777-3.136 3.473 3.473 0 0 0-3.124-3.788 3.515 3.515 0 0 0-.356-.014m-184.489.002a3.478 3.478 0 0 0-.452.012 3.474 3.474 0 0 0-3.127 3.788 3.48 3.48 0 0 0 3.779 3.136 3.461 3.461 0 0 0 3.124-3.788 3.478 3.478 0 0 0-3.324-3.148m23.45 4.228c-14.917.097-29.306 6.037-31.068 22.306 15.364 1.714 25.966-9.25 31.068-22.306m137.49 0c5.103 13.056 15.706 24.02 31.07 22.306-1.762-16.27-16.153-22.209-31.07-22.306M51.688 193.019c1.188 14.887 8.17 28.81 24.507 29.375.575-15.461-11.129-25.246-24.507-29.375m266.598 0c-13.378 4.129-25.082 13.914-24.507 29.375 16.338-.564 23.319-14.488 24.507-29.375m-246.107.521a3.467 3.467 0 0 0-.356.014 3.473 3.473 0 0 0-3.124 3.788 3.478 3.478 0 0 0 3.777 3.136 3.463 3.463 0 0 0 3.126-3.789 3.47 3.47 0 0 0-3.423-3.149m225.616 0a3.47 3.47 0 0 0-3.423 3.15 3.461 3.461 0 0 0 3.125 3.788 3.48 3.48 0 0 0 3.778-3.136 3.474 3.474 0 0 0-3.126-3.788 3.478 3.478 0 0 0-.354-.014m-183.48 10.306c-14.479 3.612-27.06 12.775-24.947 29.006 15.335-1.957 23.067-15.122 24.946-29.006m141.345 0c1.879 13.884 9.609 27.049 24.944 29.006 2.113-16.231-10.466-25.394-24.944-29.006m-166.9 4.134a3.461 3.461 0 0 0-.356.013 3.473 3.473 0 0 0-3.124 3.788 3.478 3.478 0 0 0 3.776 3.136 3.463 3.463 0 0 0 3.127-3.788 3.47 3.47 0 0 0-3.423-3.15m192.453 0a3.47 3.47 0 0 0-3.421 3.149 3.461 3.461 0 0 0 3.124 3.788 3.48 3.48 0 0 0 3.779-3.136 3.474 3.474 0 0 0-3.127-3.788 3.575 3.575 0 0 0-.355-.013m14.781 17.564a3.48 3.48 0 0 0-3.423 3.15 3.467 3.467 0 0 0 3.125 3.787 3.478 3.478 0 0 0 3.778-3.134 3.474 3.474 0 0 0-3.48-3.803m-221.915.004a3.478 3.478 0 0 0-.455.01 3.473 3.473 0 0 0-3.124 3.789 3.476 3.476 0 0 0 3.776 3.134 3.467 3.467 0 0 0 3.127-3.786 3.478 3.478 0 0 0-3.324-3.148zm-16.996 6.102a47.968 47.968 0 0 0-5.239.013c6.29 13.534 17.672 24.166 33.192 18.996-4.234-12.864-15.774-18.363-27.953-19.009m255.808 0c-12.18.645-23.719 6.145-27.953 19.01 15.52 5.17 26.902-5.463 33.192-18.997a47.988 47.988 0 0 0-5.24-.013m-216.745 5.823a3.467 3.467 0 0 0-3.36 3.83 3.474 3.474 0 0 0 3.778 3.136 3.418 3.418 0 0 0 2.25-1.13c.33-.36.584-.78.73-1.257l-.01-.01c.146-.438.203-.905.154-1.392a3.467 3.467 0 0 0-3.543-3.178zm177.789.01a3.467 3.467 0 0 0-3.545 3.178 3.388 3.388 0 0 0 .303 1.772c.087.205.204.399.33.584a3.472 3.472 0 0 0 6.282-1.704h-.012a3.467 3.467 0 0 0-3.358-3.83m10.96 16.727a3.479 3.479 0 0 0-3.424 3.15 3.461 3.461 0 0 0 3.125 3.787 3.48 3.48 0 0 0 3.778-3.135 3.474 3.474 0 0 0-3.126-3.789 3.507 3.507 0 0 0-.354-.013m-199.716.002a3.478 3.478 0 0 0-.455.011 3.473 3.473 0 0 0-3.124 3.789 3.478 3.478 0 0 0 3.777 3.135 3.463 3.463 0 0 0 3.126-3.788 3.478 3.478 0 0 0-3.324-3.147m207.634 9.718c-3.162-.14-6.295.089-9.288.75l6.972 12.084c4.437-2.783 8.436-6.801 11.784-11.374-3.115-.812-6.306-1.32-9.468-1.46m9.468 1.46.006.002v-.01zM77.17 263.932c-3.168.138-6.365.646-9.478 1.458 3.35 4.576 7.361 8.616 11.82 11.391l6.968-12.085c-3.002-.67-6.142-.902-9.31-.764m9.31.764.01.002h.002l-.008-.01zm77.488 31.988-2.6.35-.118.253 2.824 1.08zm42.08 0-.097 1.683 2.814-1.08-.117-.253zm-46.511 1.206s-2.444.672-1.558 6.543l32.833 13.154.409-.895c.642-1.412 2.296-2.063 3.795-1.508l6.272 2.356.846-3.467zm50.942 0-24.098 9.153 9.824 3.729 15.831-6.339c.896-5.87-1.557-6.543-1.557-6.543m-48.848 11.87c-1.383-.078-4.839 3.241-5.618 4.906a3.029 3.029 0 0 0 2.628 4.304c.536.263-.234 2.434-.05 3.389.38 3.34 5.483 3.115 5.483-.41 0-4.04-2.95-4.907-3.495-6.718-.36-1.567.41-3.241 1.276-3.942.818-.682.418-1.432-.224-1.529m46.52.057c-.613.088-1.08.828-.29 1.451.837.643 1.702 2.143 1.41 3.594a37.498 37.498 0 0 1 4.279 2.341c.649-.642.687-1.496.143-2.575-.78-1.538-4.227-4.889-5.542-4.81m5.399 7.386-.004.004h.01s-.002 0-.006-.004m-39.768-5.39-5.92 2.25.856 3.477 6.272-2.356c1.509-.565 3.153.096 3.805 1.498l.4.896 4.49-1.792-9.884-3.972zm-7.08 2.076s-2.033.417-5.003 1.82h-.01c.195.243.427.486.69.758.03.02.05.059.069.078 1.47-.165 2.764.39 3.913 2.035l1.286-.553v-.012zm36.602.019-.936 4.128 1.295.544c2.327-3.34 5.278-2.18 9.075.39 0 0 3.359 2.259 4.644 4.45 1.334 2.278.428 5.004-1.276 5.286 0 0 6.709 6.426 4.11 11.138 0 0 1.051 2.96 1.051 4.382 0 0 1.294.73 1.732.624 0 0 .586-4.264-.125-7.41-.808-3.602-1.276-4.527-1.86-5.51-.73-1.237.672-1.752 1.314-1.071.39.419 2.755 2.832 3.933 6.064 1.168 3.214 1.782 7.274 1.782 7.274s1.071-.301 1.51-1.06c0 0-.36-14.547-16.172-24.742l-.01.01c-2.931-1.888-5.064-2.696-5.064-2.696-2.97-1.383-5.004-1.801-5.004-1.801zm-9.21 2.282c-.818.046-1.595.43-1.94 1.184-.798 1.714 1.11 2.989 1.695 3.203l18.15 7.33s3.776 1.345 4.925-1.254c1.353-3.067-6.678-9.299-9.881-9.163-1.656.068-2.921 2.406-2.921 2.406l-8.763-3.507a2.967 2.967 0 0 0-1.265-.2m-18.536.038c-.317.018-.63.087-.92.201l-8.791 3.514s-1.09-1.878-2.532-2.306c1.675 1.616 1.49 4.206 1.49 4.206s.098 3.017-2.638 3.621c-2.639.584-3.944-.983-4.275-2.2-.36-1.315-.04-2.853.087-3.73-3.028 2.074-5.842 5.269-4.927 7.196 1.227 2.61 5.024 1.265 5.024 1.265l18.218-7.35c.585-.214 2.483-1.5 1.636-3.223h-.01c-.431-.87-1.41-1.251-2.362-1.194m-19.41 2.48c-15.335 10.174-15.685 24.419-15.685 24.419.428.769 1.5 1.07 1.5 1.07s.602-4.07 1.78-7.283c1.179-3.233 3.536-5.646 3.935-6.064.633-.682 2.035-.166 1.305 1.07-.575.993-1.052 1.908-1.86 5.52-.701 3.136-.116 7.41-.116 7.41.438.116 1.732-.624 1.732-.624-.01-1.431 1.061-4.382 1.061-4.382-2.6-4.702 4.11-11.138 4.11-11.138-1.704-.282-2.61-3.008-1.276-5.277 1.012-1.743 3.339-3.514 4.254-4.176a3.965 3.965 0 0 1-.73-.546zm52.522 1.94c1.698.008 1.926 2.698.124 2.812-1.87.175-2.16-2.689-.291-2.805a1.6 1.6 0 0 1 .167-.008zm-47.422.047a1.8 1.8 0 0 1 .177.01c1.967.126 1.735 3.007-.222 2.822-1.887-.123-1.736-2.83.045-2.832m3.606 5.783-1.734.602c1.265 2.834.721 4.907-.204 6.105-.75.973-3.087 2.065-5.239.04-2.152-2.016.643-4.334.643-4.334-1.363.545-3.271.555-3.271.555v-.01c-5.453 4.878-4.518 9.172-4.518 9.172 2.297-5.2 4.634-5.2 4.634-5.2 1.967 2.396 4.654 3.71 7.79 1.889 4.205-2.444 1.899-8.82 1.899-8.82zm40.308 0s-2.307 6.376 1.9 8.82c3.135 1.82 5.822.506 7.789-1.889 0 0 2.336 0 4.634 5.2 0 0 .934-4.294-4.518-9.172v.01s-1.908-.01-3.271-.556c0 0 2.794 2.319.643 4.334-2.152 2.025-4.49.934-5.24-.04-.924-1.197-1.469-3.27-.203-6.104zm-44.758 2.15s-1.733 1.081-1.782 1.704c-.049.623 1.208 1.9 1.598 1.978.389.078 1.382-.118 1.382-.118s-1.84-1.811-1.198-3.564m49.217 0c.643 1.753-1.196 3.564-1.196 3.564s.993.196 1.383.118c.389-.078 1.644-1.355 1.595-1.978-.049-.623-1.782-1.704-1.782-1.704m-61.64 3.146s-.012.017-.03.051l.049-.042Zm-.03.051c-3.656 3.076-5.257 14.086-5.257 14.086-1.373-.107-2.864-1.364-2.864-1.364s-.35 1.481-.3 3.857c.038 2.376 1.196 5.247 5.012 5.209 3.807-.04 4.51-3.291 4.568-5.112.059-1.82-.156-3.165-.156-3.165-1.636 1.247-2.824.849-2.824.849-1.313-8.607 1.498-13.8 1.82-14.36m74.084-.051-.019.01.05.042a2.372 2.372 0 0 0-.03-.052zm.03.051c.323.56 3.134 5.753 1.82 14.36 0 0-1.188.398-2.823-.849 0 0-.215 1.344-.156 3.165.058 1.82.76 5.073 4.567 5.112 3.817.038 4.976-2.833 5.015-5.21.04-2.375-.302-3.856-.302-3.856s-1.49 1.257-2.862 1.364c0 0-1.603-11.01-5.258-14.086" class="cls-1"/><path fill="#bc2328" d="M185.01 110.025 81.978 288.66h206.074z"/><path fill="#d1c9b5" d="M195.487 204.703c-.828-3.067-4.04-4.858-4.177-4.936l-.292-.166-.107.322c-.02.058-1.772 5.442-3.642 6.942-.409.33-1.304.496-2.658.496-1.723 0-3.914-.272-5.676-.496l-1.13-.137c-.155-.019-.224-.126-.243-.233 0-.049-.02-.205.136-.283 4.723-2.6 7.157-9.337 7.05-14.361-.01-1.149-.73-2.707-1.626-4.674-.77-1.684-1.646-3.592-2.366-5.803-1.422-4.39-1.88-9.756-1.928-10.36l.039-.243h-.253c-2.347-.7-4.49-1.149-6.407-1.334-.117 0-.234-.01-.34-.02-.118-.01-.225-.019-.313-.019l-.223-.02c-.117 0-.234-.019-.4-.048-.409-.03-.827-.049-1.246-.049-.419 0-.847.02-1.256.05h-.204c-.614.038-1.247.087-1.85.165-1.256.126-2.503.311-3.749.496-1.1.175-2.181.331-3.252.497 0 0-.935.136-1.12.165-.214.03-.418.059-.594.088a4.83 4.83 0 0 0-.39.049c-.106.01-.204.029-.32.038-.39.04-.77.078-1.188.108-.166.029-.331.038-.497.038l-.263.02c-.448.03-.886.039-1.324.039a16.38 16.38 0 0 1-2.882-.234l-.243-.097-.137.224c-1.684 2.833-4.82 8.12-5.365 11.002-.418 2.152-.077 3.7.185 4.946.224 1.052.4 1.88.127 2.795-.292 1.022-2.064 4.109-2.765 4.936l-.419.487c-1.178 1.363-1.957 2.269-1.752 3.641.204 1.315.973 2.289 2.307 2.892-.117.945-.613 4.401-1.197 6.251-.156.516.185 1.305.486 2.006.107.253.254.594.283.73-.584.652-1.11 1.402-1.13 2.454-.02 1.353.429 2.288.672 2.794.039.088.088.195.117.195-1.14 3.68-2.317 7.487-.428 10.68 1.207 2.026 4.907 2.162 8.169 2.28 1.43.048 2.784.106 3.729.31l.253.546c.428.867.457 4.294-.088 6.183l-.603 1.373 1.285.652c3.72 1.207 6.65 1.295 10.69 1.295h1.062c6.777 0 20.427-2.901 28.207-10.69l.078-.079v-.116c0-1.763.048-9.445.292-12.132.272-3.048.584-5.034.808-6.475.35-2.259.516-3.3.03-5.15z" style="stroke-width:.97366"/><path d="M236.712 175.62c-3.36-17.409-23.475-38.138-54.01-42.179-28.605-3.787-50.863 13.66-51.077 13.836 0 0-.283-.302-.341-.429-.107-.204-.166-.632.195-.895 3.68-2.707 24.79-17.156 51.38-13.651 29.404 3.895 49.267 23.037 54.223 40.163.204.711.272.935.428 1.636.059.253-.448 1.46-.779 1.801.01-.185-.01-.282-.01-.282z" class="cls-1" style="stroke-width:.97366"/><path d="M172.313 132.934c-23.43.81-40.502 14.181-40.698 14.343l-.058-.058c.039.146.107.291.205.408l2.783 3.924.039.039.244-.242c12.015-7.449 25.228-11.47 38.256-11.86 7.36-.243 14.69.68 21.682 2.783a61.885 61.885 0 0 1 5.795 2.026c20.018 8.072 30.094 26.036 33.084 34.74 0 0 .01.04.02.059.603-.516 2.442-2.152 3.065-3.184 0-.049-.01-.283-.01-.283l-.01-.01c-3.358-17.409-23.473-38.147-53.997-42.187a62.8 62.8 0 0 0-10.4-.498m24.07 94.591a.539.539 0 0 0-.516.41.536.536 0 0 0 .36.653c.126.03.652.33.77.816.01.059 0 .118 0 .166-.77-.895-1.939-1.275-3.458-.02-8.792 7.274-27.27 9.63-38.156 8.296-3.3-.41-2.377-1.733-2.377-1.733-2.23-.068-6.377 4.237-4.498 6.856-7.546 4.342-12.843 11.246-17.74 18.392 1.051.078 1.947.224 2.687.438.584.156 1.091.35 1.51.594.915.506 1.45 1.188 1.722 2.005.244-.253.497-.506.74-.779-5.569 11.509-8.762 24.254-9.132 25.053h25.295c1.49-4.138 5.706-15.258 9.289-19.065.789-.75 2.093-1.138 3.894-1.138 1.47 0 3.204.253 5.17.779 1.344.34 2.874.836 4.461 1.45l.145.077c3.495 1.393 6.943 3.302 8.959 4.967.418.331.933.526 1.44.526.506 0 .759-.302 3.349-5.288 1.87-3.612 4.196-8.08 5.94-10.378 1.09-1.432 2.639-3.233 4.294-5.131 3.31-3.837 7.36-7.888 8.88-10.858l.534.653c-1.061 1.723-.107 5.219 3.836 8.013 4.538 3.223 13.379 8.14 18.52 10.934-.614.662-.769 1.422-.447 2.201.301.73.798 1.353 1.44 1.879-.019.02-.048.03-.067.059a1.91 1.91 0 0 0-.235.253c-.418.526-.633 1.255-.71 2.004 0 .04-.01.069-.01.098v.078c-.098 1.032.078 2.064.214 3.096.4 3.213.37 6.476-.097 9.67-.069.428-.137.866-.264 1.285-.078.273-.184.546-.223.828-.039.34.03.671.069 1.002.087.662.085 1.314.047 1.977h26.767c.127-3.515.778-7.089.924-10.614.058-1.363.04-2.765-.594-3.982l.02.01c-.36-.692-.896-1.286-1.246-1.977-.331-.652-.536-1.412-.868-2.045a4.585 4.585 0 0 0-.271-.428 2.296 2.296 0 0 0-.293-.33.06.06 0 0 0-.006-.01c-.01-.008-.027-.014-.037-.023l-.006-.006c.653-.603.887-1.344.76-2.22-.312-2.084-5.229-4.254-11.158-4.965-9.22-5.005-31.342-17.078-31.342-17.078-2.288-1.247-3.953-.917-4.693.242l-.526-.682c.37-.74.594-1.412.594-1.986 0-2.58-9.065-11.752-9.152-11.83-.283-.253-.536-.524-.79-.787-.934-.984-1.897-1.998-3.601-2.387a.419.419 0 0 0-.117-.02" class="cls-5" style="stroke-width:.97366"/><g transform="translate(.093 .001)scale(.97366)"><path d="M167.06 189.99c-1.05-.41-2.03-1.13.18-.57 4.17 1.06 8.13 4.53 6.04 2.36-3.52-3.64-8.28-3.65-7.74-4.34.29-.38 1.8-.28 5.26-.33 3.45-.05 6.66 2.26 7.28 2.48.62.22 1.13.56 1.08 0-.06-.57-4.18-4.75-8.14-5.21-3.95-.47-8.02 1.58-9.55 1.53-1.52-.06-2.93-1.94-3.15-1.53-.43.76.72 2.76 1.1 3.06.38.29.29 4.55-.11 5.06-.42.51-.52 1.89.14 1 1.55-2.05 2.85-2.83 3.89-3.12-.54.47-.9 1.17-.9 1.94 0 .96.53 1.8 1.32 2.23-1.29-.18-2.28-.6-2.37-.33-.14.44 2.1.95 3.6 1.01 1.49.05 3.74-.48 3.58-.84-.1-.28-1.06-.04-2.33.13.77-.43 1.28-1.26 1.28-2.21 0-.48-.13-.93-.35-1.31.32.19.63.38.94.57.79.47 3.27 2.66 3.04 2.08-.41-1.08-3.04-3.28-4.07-3.68zm.13 1.93c0 .42-.33.75-.73.75-.4 0-.73-.34-.73-.75s.33-.75.73-.75c.4 0 .73.34.73.75" class="cls-1"/><path d="M266.88 282.1c-.3-.88-.91-1.59-1.37-2.38-.49-.81-.7-1.87-1.22-2.68-.09-.14-.19-.26-.29-.38.46-.57.69-1.3.57-2.25-.31-1.54-1.96-2.51-3.11-3.11-2.42-1.28-5.03-1.91-7.54-2.33-.38-.06-.75-.12-1.13-.16-4.56-2.5-9.16-4.92-13.72-7.41-6-3.27-11.99-6.59-18.01-9.82-.11-.06-.21-.12-.32-.17-1.55-.81-3.68-1.45-5.13-.26.34-.73.54-1.41.56-1.99.12-3.64-9.48-12.5-9.57-12.59-.11-.1-.2-.21-.31-.31.35-.97.78-1.87.86-2.81.11-1.38.11-2.01-.87-5.09-.97-3.09 3.77-5.11 4.87-9.66.83-3.48 5.48-5.85 6.24-9.15.76-3.31 2.75-6.95 2.67-10.53-.06-2.46-.19-5.53-.72-7.52 5.25-.47 16.7-3.94 20.13-7.18.11-.11.25-.23.4-.38 0-.02-.02-.06-.02-.06-3.07-8.94-13.42-27.4-33.98-35.68-1.97-.78-3.92-1.48-5.95-2.08-7.18-2.16-14.71-3.11-22.27-2.86-13.38.4-26.95 4.53-39.29 12.18l-.25.25c4.28 5.98 11.18 15.28 14.8 18.71.15.11.28.23.38.34.08.08.17.15.25.19.04.06.06.08.11.11.21.19.4.32.57.42.02 0 .02.01.04.02-1.48 2.59-5.38 10.03-5.38 10.03s-.35-.11-.82.71c-.37.65.01 1.7.73 2.02-.19.89.08 2.75.1 3.23.06 1.17.2 2.32.39 3.47-.79 1.38-1.89 3.21-2.29 4.06-.6 1.24-3.26 3.02-3.26 4.92s2.66 3.37 2.66 3.37c-.53 3.55-1.71 6.57-1.6 7.33.13.77.95 1.84.95 1.84-1.36 1.18-.89 3.9-.53 4.86.35.94.6 1.06-.46 4.02-1.05 2.95-.42 6.59 1.11 8.28 1.84 2.02 6.79 1.66 9.09 1.66s2.37.89 2.72 1.89c.31.9-.35 3.51-.51 5.1a.978.978 0 0 0-.41-.15c-3.3.05-6.06 3.91-5.16 6.65-3.67 2.18-8.09 5.36-18.6 19.29-.18.24-.23 1.16.68 1.14.51-.01 1.24.04 2.01.18-4.1 5.48-7.99 11.19-11 17.3-1.49 3.02-2.89 6.09-3.86 9.79h10.82-.24c.65-1.45.92-2.23 1.47-3.28-.02-.03-.02-.06-.03-.09.46.68 1.39 1.17 3.04 1.35 2.77 2.43 7.17 1.91 10.63 2.02.64-2.82 1.6-2.88 2.81-6.07-1.89 3.16-2.81 5.12-4.98 5.72-2.29-.03-6.8-.63-7.71-2.39 1.56-2.34 2.75-3.75 3.89-6.28-.96 1.58-3.39 4.98-5.24 6-4.49-1.3 1.81-7.15 2.69-9.55 3.92-.9 3.31 3.08 7.49 2.05 3.59.41 2.81 3.5 7.22 1.87.32-.12.7-.05.92.22.5.61.98 1.32 1.47 1.91-1.6 3.98-2.4 6.47-2.42 6.52h1.24c.79-2.38 6.13-17.8 16.62-33.42 2.12-3.17 4.39-6.15 6.9-8.88.31-.33.62-.65.93-.97 2.44-2.52 5.12-4.8 8.17-6.74 5.12-3.26 11.41-5.17 15.38-9.01 1.91-1.85.18-3.07-.33-3.22 2.07.48 3 1.97 4.25 3.14.69.64 9.28 9.1 9.24 11.73-.07 3.94-9.32 11.41-14.05 18.2-1.92 2.76-4.75 8.28-6.75 12.02-.76 1.22-1.55 2.5-2.38 3.86-.4 0-.79-.16-1.1-.42-2.1-1.73-5.65-3.71-9.29-5.17.03.01.05.02.08.03l9.08-15.55-.9-3.09-4.34 1.78-8.95 15.17s.08.02.11.03c-2.03-.53-3.84-.8-5.39-.8-1.99 0-3.46.44-4.38 1.32-4.01 4.26-8.67 16.98-9.74 19.98h81.67c.03-.36.04-.7.03-1.06-.02-.84-.24-1.66-.04-2.5.19-.85.39-1.66.5-2.52v-.09c.15-1.22.23-2.44.25-3.67.03-.79.02-1.59 0-2.38-.09-2.09-.61-4.2-.48-6.29.07-.57.17-1.15.44-1.67a.55.55 0 0 1 .09-.14c.02-.04.05-.08.08-.12.33.23.66.44.98.61.13.07.27.14.41.2-.36.51-.59 1.04-.73 1.58-.03.09-.04.19-.06.28-.02.11-.03.21-.05.31-.12.95 0 1.92.22 2.87.53 2.34.92 4.47.42 6.89-.23 1.13-.43 2.15-.26 3.28.15 1.07.12 1.91-.24 2.97-.16.5-.25.97-.29 1.44h.79c.22-.97.69-1.83.63-2.82-.08-1.19-.3-2.21-.06-3.43.42-2.12.61-4.07.14-6.16-.36-1.62-.9-3.31-.52-4.94.02-.1.04-.2.08-.3.02-.09.05-.18.09-.27.12-.34.55-.92.82-1.31.93.36 1.87.61 2.82.79 0 .03-.01.07-.01.11-.06.99.13 2.02.41 3.01.68 2.45 1.2 4.68.87 7.23-.16 1.18-.29 2.25-.05 3.44.21 1.13.23 2-.05 3.12-.13.53-.19 1.02-.2 1.51h.78c.16-1.01.57-1.91.45-2.95-.16-1.25-.44-2.32-.28-3.6.28-2.23.35-4.27-.26-6.46-.46-1.7-1.11-3.47-.83-5.18 0-.03 0-.05.02-.08.56.09 1.12.16 1.67.22.49.06.98.1 1.47.15v.05c-.03.94.25 1.88.73 2.81.46.9.96 1.76 1.14 2.77.24 1.31.01 2.67-.22 3.99-.18 1.06-.4 2.13-.35 3.19.06 1.14.6 2.11.9 3.18.19.63.31 1.27.36 1.91h1a7.32 7.32 0 0 0-.11-.8c-.2-1.08-.71-2.04-.98-3.09-.33-1.34-.03-2.74.2-4.1.38-2.2.48-4.14-.52-6.11-.64-1.25-1.18-2.44-1.1-3.7v-.03c1.87.13 3.74.15 5.59.11-.32 1.47-.44 2.97-.36 4.48.14 2.36.99 4.41 1.66 6.65.34 1.15.44 2.26.23 3.44-.16.94-.44 2.2-.44 3.15h1.09c-.3-2.01.82-4.02.37-6.07-.47-2.2-1.5-4.19-1.78-6.45-.21-1.76-.12-3.51.23-5.23.65-.04 1.59-.06 2.59-.16v.04c.04 1.21.4 2.38 1.05 3.51 1.13 1.97 2.25 3.71 2.61 5.97.45 2.77-.23 5.6-.39 8.39h1.05c.18-2.62.79-5.28.44-7.89-.26-1.96-.97-3.67-2.04-5.36-.98-1.57-1.67-3.06-1.66-4.73v-.07c1.17-.18 2.34-.51 3.19-1.1.05.09.11.18.16.28.13.26.23.54.34.81.58 1.46 1.74 2.68 2.14 4.2.43 1.6.23 3.33.09 4.95-.15 1.86-.39 3.71-.58 5.56-.11 1.12-.2 2.23-.24 3.36h1.09c.05-1.88.25-3.76.46-5.64.22-2.02.48-4.06.49-6.09 0-.88-.05-1.78-.34-2.63zm-117.76-93.77c.13.01.25.01.39-.03 1.84-.46 2.7.25 2.7.25s1.05.39.81.99c-1.38-1.04-3.53.11-3.7.36.14-.2-.05-1-.2-1.57m3.34 46.08c-6.9.06-7.7-3.28-7.69-6.26.03-2.99 1.67-4.86 2.47-5.3.8-.44 3.24 0 3.24 0s.68-1.33-1.82-1.53c-3.74-.3-3.14-2.59-3.14-2.59s-.03-1.99 3.14-1.62c3.75.46 6.4 1.05 8.23 2.13.78.46 2.78 2.38 3.06 1.95.65-.98-2.05-3.28-2.77-3.72-1.14-.7-6.75-2.99-7.73-3.06-.98-.05-1.16.65-2.75.42-1.6-.23-.68-1.37-.53-2.05.15-.68 1.22-5.41 1.44-5.41.22 0 6.93 0 7.84-.38.65-.27.95-.79 1.08-1.08.01.13.11.3.46.55 2.36 1.65 2.36 3.74 2.74 3.82.38.08.68-1 0-2.9-1.06-2.97-4.5-5.02-4.72-4.64-.23.38.76 1.14.61 2.43-.15 1.29-.79 1.07-5.45 1.14-4.66.08-5.14-.85-5.36-2.59-.13-.99 2.28-3.66 3.12-4.88.84-1.2 1.81-3.88 3-5.7l1.79-2.18c.92-1 1.77-1.85 1.91-2.4.23-.91.6-3.63-.38-3.82-.47-.09.09.38-.98 1.07-1.06.68-3.36-.38-3.36-.38.51-1.25 3.77-7.54 4.91-9.71 1.38.23 2.82.28 4.32.19.25-.02.53-.02.8-.06.4-.02.8-.06 1.21-.11.23-.02.47-.06.72-.08.38-.06.78-.11 1.19-.17-.05 0-.1 0-.15.02 1.35-.19 2.71-.39 4.09-.61 1.27-.19 2.54-.38 3.83-.51.64-.08 1.29-.13 1.93-.17h.15c.87-.06 1.71-.06 2.54 0 .21.04.4.04.61.06.23 0 .47.04.72.04 1.95.19 4.15.66 6.5 1.36h.02c.13 1.59.66 6.57 1.99 10.7 1.61 4.98 4.06 8.6 4.09 10.68.11 4.81-2.2 11.8-7.09 14.49-.49.25-.34 1 .21 1.06 3.22.38 8.51 1.21 9.93.08 2.01-1.61 3.83-7.27 3.83-7.27s2.85 1.57 3.93 4.24c0 .04-.02.09-.03.12-.26 1.24-.68 2.57-1.83 3.27-1.27.77-3.36.91-3.36.91 2.08 1.3 4.32.57 5.72-.95-.11 1.74-.69 3.88-1.15 9.15-.28 3.16-.3 12.67-.3 12.67v.01c-1.31.56-2.52 1.9-3.72 2.55-5.54 3.36-12.09 5.03-18.44 6-5.49.68-11.25 1.35-16.78.63-.35-.98-.92-3.1.03-4.59 1.43-2.23 12.88-2.26 16.05-3.59 5.34-2.24 10.49-9.67 11.42-10.97.95-1.31 3.38-5.27-.1-.9-7.42 9.32-12.01 8.53-14.35 9.13-2.33.58-14.01 1.26-20.9 1.31zm-18.25 34.01c4.96-7.24 10.33-14.24 17.92-18.7.38.49.92.9 1.66 1.2-.09.09-.16.16-.15.17-4.43 4.75-8.37 10.93-11.7 17.2-.78.89-1.45 1.82-1.83 2.83-.31-.65-.81-1.21-1.59-1.64l7.45-11.13.51-1.71s-1.64 1.1-2.12 1.56c-2.08 2.06-6.91 9.78-7.39 10.67-.77-.22-1.69-.37-2.76-.45m21.5 20.05c-.69-1.22-1.41-2.11-2.89-1.62.72-2.45 1.98-3.98 3.06-6.36-1.15 1.88-4 6.72-5.85 6.63-.88-1.03-2.32-2.28-3.87-2.06 1.6-2.48 2.56-3.69 3.65-6.09-1.2 1.97-4.39 6.58-6.18 6.03-1.03-.66-1.71-1.96-3.01-1.94.78-2.3 2.39-3.39 3.08-5.44-2.97 4.63-5.31 6.12-6.43 5.72v-.02c-.13-.04-.23-.12-.34-.2-.23-.23-.36-.59-.37-1.06.73-3.3 3.16-5.48 4.95-8.09.05-.05.1-.11.15-.15 1.58-1.08.79 2.45 3.94 1.25.18-.07.4-.03.54.1 5.37 4.91 4.35.04 7.61 2.46.68.61 1.27 1.62 2.29 1.57 1.35-1.1 2.72-1.14 3.82.09-1.69 3.43-3.07 6.55-4.16 9.16zm4.53-9.92c-1.07-.88-2.7-1.05-3.78-.37.75-2.31 2.53-4.13 3.58-6.44-.99 1.63-3.46 4.73-4.67 6.19-1.1-1.17-3.11-2.51-4.75-1.58 1.58-2.71 2.55-4.15 3.62-6.51-1.11 1.82-4.24 6.46-5.51 6.16-1.06-.82-2.91-2.83-4.09-1.52.87-2.02 2.37-3.25 3.38-5.48-1.49 1.85-3.25 4.83-4.31 5.45-.84-1.88-1.87-2.1-2.89-.49-1.2-3.63 4.11-6.84 6.01-9.57.79.58 1.65.63 2.36.29.28-.22.69-.25.96-.19 3.04.7 3.98 4.15 5.96 2.44.34-.3.26-.38.82-.3 1.81.11 4.81 5.53 5.93 1.96.58.06 1.44.54 2.19 1.03-1.81 3.09-3.42 6.1-4.82 8.92zm10.67-18.05c-.48.68-.96 1.35-1.44 2.07-1.34 2-2.6 4-3.77 5.97-1.4-.74-3.2-1.26-3.64-.04.65-2.41 2.86-6.01 3.17-8.05-1.87 3.28-2.98 4.75-4.32 7.67-1.1-.97-3.87-3.39-5.21-1.89 1.19-2.79 1.82-4.53 3.35-7.16-8.01 12.08-3.14 4.78-9.45 4.99 1.43-2.37 3.17-5.04 4.09-6.32-2.4 2.24-4.34 6.01-5.63 6.3-.83-.02-1.96-.49-1.91-1.06.23-2.81 6.35-8.18 9.05-10.91.53.78 1.45 1.31 2.77 1.4-2.08 1.61-4.67 3.23-2.22 5.18.1-1.11 2.76-4.08 4.29-4.72 1.14 1.49.8 4.67.32 6.72 2.48-1.44 3.16-1.15 2.11-6.38h.1c2.67.38 5.44.53 8.1.39.69.76 1.55 1.8.25 5.84zm30.79-24.73c.04.2-.15.54-.53.9-2.32 2.23-5.51 3.81-8.87 5.46-2.12 1.04-4.32 2.12-6.34 3.41a45.366 45.366 0 0 0-7.25 5.76h-.04c-1.21-.06-1.47-1.36-2.29-2.02-1.66-1.33-2.25 1.38-3.15 2.21-1.16 1.11-2.86.5-3.49-.85-.38-.55-.87-1.24-1.6-1.31-.71-.07-.92.57-1.2 1.1-.47 1.24-2.24 1.98-3.38 1.23-.52-.44-.9-3.49-2.27-2.34-.67.56-.62 1.61-1.51 2.05-2.67 1.2-2.21-3.08-4.3-2.81-.64.25-.6 1.22-1.14 1.58-4.01.31-1.7-7.23 2.3-7.19 1.63 2.88 6.75 1.81 9.6 2.09 9.17-.07 18.54-1.51 26.94-5.31 2.61-.95 4.65-3.15 7.08-4.3.49-.14.88-.1 1.21.04.1.09.19.2.21.32zm33.47 33.34c-4.36-2.42-8.71-4.87-12.91-7.58-2.16-1.39-4.42-2.85-5.73-5.12-.82-1.43-1.59-4.15.24-5.09 1.02-.53 2.3 0 3.26.51 4.48 2.45 8.97 4.89 13.46 7.34 5.78 3.15 11.56 6.3 17.34 9.44h-.02a33.45 33.45 0 0 0-6.01.06c-2.09.21-4.37.58-6.08 1.78-.15.11-.31.23-.45.37-1.03-.56-2.07-1.12-3.1-1.69zm25.02 8.29c-.38.08-.76.15-1.11.2-.3.04-.58.07-.82.1-.53.06-1.07.12-1.62.17-.34.03-.68.05-1.02.08-1.85.12-3.77.13-5.68.02-.35-.02-.7-.05-1.06-.08-1.02-.09-2.04-.22-3.05-.4-.31-.05-.61-.1-.91-.16l-.96-.21c-1.59-.37-3.54-.9-4.77-2.38-.86-1.04-.99-2.14-.24-3.01.98-1.15 2.64-1.61 4.06-1.91 2.39-.51 4.92-.61 7.44-.48 2.75.15 5.56.59 8.3 1.51 1.29.43 4.38 1.36 4.75 3.24.26 2.1-1.56 2.93-3.31 3.31" class="cls-1"/></g></svg>