<svg xmlns="http://www.w3.org/2000/svg" xmlns:xlink="http://www.w3.org/1999/xlink" viewBox="0 0 277.7 57"><defs><style>.a{fill:none;}.b{clip-path:url(#a);}.c{fill:#004071;}.d{fill:#a7b6bf;}</style><clipPath id="a" transform="translate(0 0)"><rect class="a" width="277.7" height="57"/></clipPath></defs><title>Vector Smart Object2</title><g class="b"><path class="c" d="M17,28.4a10.6,10.6,0,0,1,18.6-7L50.9,7.8C39.3-2.6,20.4-2.6,8.7,7.8S-2.9,35,8.7,45.4l11.1-9.8A10.3,10.3,0,0,1,17,28.4" transform="translate(0 0)"/><path class="c" d="M71.1,33.7s3.5,3.1,7.4,3.1c1.5,0,3.2-.6,3.2-2.4,0-3.7-13.9-3.6-13.9-13,0-5.7,4.8-9.5,11-9.5s9.9,3.5,9.9,3.5l-3.2,6.2a11.8,11.8,0,0,0-6.8-2.7c-1.6,0-3.3.6-3.3,2.4,0,3.9,13.9,3.2,13.9,12.9,0,5.1-3.9,9.6-10.9,9.6a16.2,16.2,0,0,1-11.3-4.4Z" transform="translate(0 0)"/><path class="c" d="M104.5,19.5s-.7,3.3-1.3,5.3l-1.8,6h6.1l-1.7-6c-.6-2-1.3-5.3-1.3-5.3Zm4.8,17.3H99.7l-1.9,6.5H90l10.5-30.9h8l10.4,30.9h-7.7Z" transform="translate(0 0)"/><path class="c" d="M124,12.4h8.2l4.4,13.1c.7,1.9,1.6,5,1.6,5h.1s.8-3.1,1.5-5l4.5-13.1h8.2L155,43.3h-7.5l-1-13.9c-.1-2.3,0-5.2,0-5.2h-.1s-1,3.2-1.7,5.2l-3.2,8.9H135l-3.2-8.9L130,24.2h0s.1,2.9,0,5.2l-1,13.9h-7.6Z" transform="translate(0 0)"/><path class="c" d="M171.9,19.5s-.6,3.3-1.2,5.3l-1.8,6H175l-1.7-6c-.6-2-1.3-5.3-1.3-5.3Zm4.9,17.3h-9.6l-1.9,6.5h-7.8L168,12.4h8l10.4,30.9h-7.7Z" transform="translate(0 0)"/><path class="c" d="M200.2,26.4c2.4,0,3.9-1.3,3.9-3.8s-.8-3.7-4.6-3.7h-2.6v7.5Zm-10.8-14h10.7c3.2,0,4.7.2,6,.8,3.5,1.3,5.7,4.4,5.7,8.9s-1.6,6.9-4.6,8.4h0l1.1,1.9,6,10.8h-8.4l-5.5-10.4h-3.5V43.3h-7.5Z" transform="translate(0 0)"/><path class="c" d="M231.8,11.9c7.6,0,11.5,4.4,11.5,4.4L239.8,22s-3.4-3.2-7.7-3.2c-5.9,0-8.7,4.4-8.7,8.8s3,9.3,8.7,9.3,8.2-3.8,8.2-3.8l3.9,5.5a17,17,0,0,1-12.4,5.2c-9.7,0-16.2-6.9-16.2-16s6.9-15.9,16.2-15.9" transform="translate(0 0)"/><path class="c" d="M261.6,36.9c4.6,0,8.3-4,8.3-9.2s-3.7-8.9-8.3-8.9-8.3,3.8-8.3,8.9,3.7,9.2,8.3,9.2m0-25c9.3,0,16.1,6.9,16.1,15.8a16.1,16.1,0,1,1-32.2,0c0-8.9,6.8-15.8,16.1-15.8" transform="translate(0 0)"/><path class="d" d="M46.7,11.6,35.6,21.4a10.4,10.4,0,0,1,2.7,7A10.7,10.7,0,0,1,27.6,39.1a10.6,10.6,0,0,1-7.8-3.5L4.5,49.2c11.7,10.4,30.5,10.4,42.2,0s11.6-27.2,0-37.6" transform="translate(0 0)"/></g></svg>