<svg width="66" height="61" viewBox="0 0 66 61" fill="none" xmlns="http://www.w3.org/2000/svg">
<g clip-path="url(#clip0_1343_1347)">
<path d="M11.498 32.5164H7.46989C7.05384 32.5164 6.71344 32.1944 6.71344 31.8008C6.71344 31.4072 7.05384 31.0852 7.46989 31.0852H11.498C11.914 31.0852 12.2544 31.4072 12.2544 31.8008C12.2544 32.1944 11.914 32.5164 11.498 32.5164Z" fill="#FFE5DE"/>
<path d="M7.4699 23.6076C7.39426 23.6076 7.31861 23.5897 7.24297 23.5718L2.70428 22.1407V16.5413C2.70428 16.1477 3.04469 15.8257 3.46073 15.8257C3.87678 15.8257 4.21718 16.1477 4.21718 16.5413V21.121L7.73466 22.2301C8.13179 22.3553 8.33982 22.7489 8.20744 23.1246C8.07506 23.4287 7.79139 23.6076 7.4699 23.6076Z" fill="#FFE5DE"/>
<path d="M20.8969 35.0568C20.4808 35.0568 20.1404 34.7348 20.1404 34.3412V28.6882H14.9398V34.3412C14.9398 34.7348 14.5994 35.0568 14.1834 35.0568C13.7673 35.0568 13.4269 34.7348 13.4269 34.3412V27.2749H21.6533V34.3412C21.6533 34.7348 21.3129 35.0568 20.8969 35.0568Z" fill="#FFE5DE"/>
<path d="M27.6293 32.5164H23.6012C23.1851 32.5164 22.8447 32.1944 22.8447 31.8008C22.8447 31.4072 23.1851 31.0852 23.6012 31.0852H27.6293C28.0453 31.0852 28.3857 31.4072 28.3857 31.8008C28.3668 32.1944 28.0453 32.5164 27.6293 32.5164Z" fill="#FFE5DE"/>
<path d="M27.6292 23.6076C27.3077 23.6076 27.0241 23.4287 26.9106 23.1246C26.7782 22.7489 26.9862 22.3553 27.3834 22.2301L30.9008 21.121V16.5413C30.9008 16.1477 31.2412 15.8257 31.6573 15.8257C32.0733 15.8257 32.4137 16.1477 32.4137 16.5413V22.1407L27.8751 23.5718C27.7805 23.6076 27.7049 23.6076 27.6292 23.6076Z" fill="#FFE5DE"/>
<path d="M12.2544 41.4074H4.02808V36.8814C4.02808 36.4878 4.36848 36.1658 4.78452 36.1658C5.20057 36.1658 5.54097 36.4878 5.54097 36.8814V39.9762H10.7605V36.8814C10.7605 36.4878 11.1009 36.1658 11.5169 36.1658C11.9329 36.1658 12.2733 36.4878 12.2733 36.8814V41.4074H12.2544Z" fill="#FFE5DE"/>
<path d="M31.0711 41.4074H22.8447V36.8814C22.8447 36.4878 23.1851 36.1658 23.6012 36.1658C24.0172 36.1658 24.3576 36.4878 24.3576 36.8814V39.9762H29.5771V36.8814C29.5771 36.4878 29.9175 36.1658 30.3335 36.1658C30.7496 36.1658 31.09 36.4878 31.09 36.8814V41.4074H31.0711Z" fill="#FFE5DE"/>
<path d="M24.3386 23.6074H10.7415V17.1135H24.3386V23.6074ZM12.2544 22.1941H22.8447V18.5268H12.2544V22.1941Z" fill="#FFE5DE"/>
<path d="M32.4137 37.597H2.68536V31.0852H4.02806C4.02806 30.4412 4.02806 29.7793 4.02806 29.1889V27.9724C4.02806 26.595 4.7845 25.7005 5.59768 24.9312L6.71344 23.8758V6.37988C6.71344 5.98632 7.05385 5.66431 7.46989 5.66431C7.88594 5.66431 8.22634 5.98632 8.22634 6.37988V24.4661L6.65671 25.9509C5.957 26.6128 5.54095 27.1853 5.54095 27.9903V29.2068C5.54095 30.0118 5.54095 30.9421 5.54095 31.8008V32.5164H4.19826V36.1837H30.9197V32.5164H29.5771V31.8008C29.5771 30.9779 29.5771 30.1013 29.5771 29.3141V27.9903C29.5771 27.1853 29.1421 26.6128 28.4424 25.9509L26.8728 24.4661V6.37988C26.8728 5.98632 27.2132 5.66431 27.6292 5.66431C28.0452 5.66431 28.3857 5.98632 28.3857 6.37988V23.8758L29.5014 24.9312C30.3146 25.7005 31.071 26.595 31.071 27.9724V29.2963C31.071 29.8508 31.071 30.4591 31.071 31.0673H32.4137V37.597Z" fill="#FFE5DE"/>
<path d="M27.6292 14.7166C27.4401 14.7166 27.2699 14.6629 27.1186 14.5198L25.4733 13.0707C24.6791 12.2121 23.7902 12.1763 22.2584 12.1763H12.8407C11.3089 12.1763 10.42 12.2121 9.68251 13.0171L7.9805 14.5198C7.67792 14.7881 7.20515 14.7881 6.92148 14.484C6.63781 14.1978 6.65672 13.7505 6.9593 13.4822L8.60457 12.0332C9.75815 10.7451 11.3278 10.7451 12.8407 10.7451H22.2395C23.7524 10.7451 25.3031 10.7451 26.5324 12.0868L28.1209 13.4822C28.4235 13.7505 28.4424 14.1978 28.1587 14.484C28.0263 14.645 27.8183 14.7166 27.6292 14.7166Z" fill="#FFE5DE"/>
<path d="M31.6573 15.9865C31.2412 15.9865 30.9008 15.6645 30.9008 15.271V2.0149H4.19826V15.2889C4.19826 15.6824 3.85786 16.0044 3.44181 16.0044C3.02577 16.0044 2.68536 15.6824 2.68536 15.2889V0.58374H32.4137V15.271C32.4137 15.6645 32.0733 15.9865 31.6573 15.9865Z" fill="#FFE5DE"/>
<path d="M62.5581 28.7059C62.1421 28.7059 61.8017 28.3839 61.8017 27.9904V2.0149H37.7845V27.9904C37.7845 28.3839 37.4441 28.7059 37.0281 28.7059C36.612 28.7059 36.2716 28.3839 36.2716 27.9904V0.58374H63.2957V27.9904C63.3146 28.3839 62.9742 28.7059 62.5581 28.7059Z" fill="#FFE5DE"/>
<path d="M65.2435 28.7061H33C32.5839 28.7061 32.2435 28.384 32.2435 27.9905C32.2435 27.5969 32.5839 27.2749 33 27.2749H65.2435C65.6596 27.2749 66 27.5969 66 27.9905C66 28.384 65.6596 28.7061 65.2435 28.7061Z" fill="#FFE5DE"/>
<path d="M65.2436 37.5969H34.3427C33.9266 37.5969 33.5862 37.2749 33.5862 36.8813C33.5862 36.4878 33.9266 36.1658 34.3427 36.1658H65.2436C65.6596 36.1658 66 36.4878 66 36.8813C66 37.2749 65.6596 37.5969 65.2436 37.5969Z" fill="#FFE5DE"/>
<path d="M65.2436 60.4775H0.756447C0.340401 60.4775 0 60.1555 0 59.762C0 59.3684 0.340401 59.0464 0.756447 59.0464H65.2436C65.6596 59.0464 66 59.3684 66 59.762C66 60.1555 65.6596 60.4775 65.2436 60.4775Z" fill="#FFE5DE"/>
<path d="M47.7885 13.4463H42.4178C42.0017 13.4463 41.6613 13.1243 41.6613 12.7307C41.6613 12.3371 42.0017 12.0151 42.4178 12.0151H47.7885C48.2046 12.0151 48.545 12.3371 48.545 12.7307C48.545 13.1243 48.1857 13.4463 47.7885 13.4463Z" fill="#FFE5DE"/>
<path d="M57.1874 13.4463H51.8166C51.4006 13.4463 51.0602 13.1243 51.0602 12.7307C51.0602 12.3371 51.4006 12.0151 51.8166 12.0151H57.1874C57.6034 12.0151 57.9438 12.3371 57.9438 12.7307C57.9438 13.1243 57.6034 13.4463 57.1874 13.4463Z" fill="#FFE5DE"/>
<path d="M10.1553 49.0283H2.09916C1.68311 49.0283 1.34271 48.7063 1.34271 48.3127C1.34271 47.9192 1.68311 47.5972 2.09916 47.5972H10.1553C10.5714 47.5972 10.9118 47.9192 10.9118 48.3127C10.9118 48.7242 10.5714 49.0283 10.1553 49.0283Z" fill="#FFE5DE"/>
<path d="M23.6012 49.0283H15.5261C15.1101 49.0283 14.7697 48.7063 14.7697 48.3127C14.7697 47.9192 15.1101 47.5972 15.5261 47.5972H23.5823C23.9983 47.5972 24.3387 47.9192 24.3387 48.3127C24.3387 48.7242 24.0172 49.0283 23.6012 49.0283Z" fill="#FFE5DE"/>
<path d="M37.0281 49.0283H28.9719C28.5559 49.0283 28.2155 48.7063 28.2155 48.3127C28.2155 47.9192 28.5559 47.5972 28.9719 47.5972H37.0281C37.4441 47.5972 37.7845 47.9192 37.7845 48.3127C37.7845 48.7242 37.4441 49.0283 37.0281 49.0283Z" fill="#FFE5DE"/>
<path d="M50.4739 49.0283H42.4178C42.0017 49.0283 41.6613 48.7063 41.6613 48.3127C41.6613 47.9192 42.0017 47.5972 42.4178 47.5972H50.4739C50.89 47.5972 51.2304 47.9192 51.2304 48.3127C51.2115 48.7242 50.89 49.0283 50.4739 49.0283Z" fill="#FFE5DE"/>
<path d="M63.9009 49.0283H55.8447C55.4287 49.0283 55.0883 48.7063 55.0883 48.3127C55.0883 47.9192 55.4287 47.5972 55.8447 47.5972H63.9009C64.3169 47.5972 64.6573 47.9192 64.6573 48.3127C64.6573 48.7242 64.3169 49.0283 63.9009 49.0283Z" fill="#FFE5DE"/>
</g>
<defs>
<clipPath id="clip0_1343_1347">
<rect width="66" height="59.8938" fill="white" transform="translate(0 0.58374)"/>
</clipPath>
</defs>
</svg>
