<svg width="726" height="724" viewBox="0 0 726 724" fill="none" xmlns="http://www.w3.org/2000/svg">
<path d="M100.217 146.385C100.217 146.385 94.6155 184.954 94.9039 191.588C95.2075 198.206 93.3707 201.56 86.6764 199.89C79.9822 198.221 75.58 200.437 72.2253 203.184C68.8706 205.932 54.6319 206.706 50.2298 212.003C45.8125 217.3 44.249 222.036 40.3629 226.21C36.4769 230.4 33.2892 232.753 35.1866 236.82C37.0841 240.888 37.1296 242.27 29.6612 247.4C22.1776 252.515 22.1017 264.294 25.4564 268.757C28.8263 273.219 54.1158 310.271 66.4114 305.975C78.7071 301.68 86.3273 285.954 86.4336 297.232C86.5398 308.51 78.9348 321.867 100.232 321.108C121.529 320.349 138.956 313.701 149.688 305.459C160.405 297.217 178.089 289.036 179.835 296.412C181.596 303.805 179.804 328.759 194.559 337.866C209.329 346.973 269.775 358.661 270.094 378.621C270.413 398.581 265.904 408.341 281.327 409.783C296.749 411.225 312.552 409.813 317.47 434.388C322.388 458.962 301.319 505.076 317.47 512.088C333.621 519.116 344.338 501.63 349.226 517.037C354.114 532.443 343.943 549.201 357.62 547.637C371.297 546.089 378.69 546.377 374.348 561.146C369.992 575.915 374.348 578.556 379.965 588.377C385.582 598.213 372.481 609.916 361.233 620.678C350 631.439 313.037 649.836 327.306 661.478C341.575 673.105 377.582 685.036 381.589 701.778C385.597 718.52 374.789 723.878 386.507 724C398.226 724.136 426.628 676.961 435.477 662.966C444.327 648.971 466.05 635.887 465.564 612.769C465.078 589.652 466.262 580.894 477.267 572.667C488.273 564.455 533.402 537.862 542.935 540.063C552.453 542.264 572.293 545.967 587.078 529.726C601.863 513.485 637.338 461.437 640.253 438.122C643.182 414.807 640.632 360.877 650.666 361.287C660.7 361.697 669.14 359.86 677.716 343.558C686.293 327.256 721.632 292.997 724.956 274.737C728.28 256.492 721.616 229.292 702.9 223.19C684.183 217.088 667.5 203.624 655.524 190.965C643.547 178.306 630.447 181.053 615.206 177.122C599.95 173.191 580.611 165.116 561.758 171.476C542.905 177.836 557.508 163.81 553.485 157.01C549.462 150.195 520.773 136.428 508.902 133.104C497.031 129.779 495.18 125.742 483.339 123.161C471.499 120.581 461.405 87.2636 447.849 82.2242C434.293 77.1848 438.028 69.3526 434.02 56.5872C430.028 43.837 423.06 32.9689 416.655 46.1441C410.249 59.3194 385.506 78.6572 376.884 77.2455C368.261 75.8339 358.759 70.749 345.355 77.2455C331.936 83.7421 330.843 78.9 318.214 84.2126C305.584 89.5252 284.454 103.292 277.608 87.8707C270.762 72.4339 271.384 55.5398 276.075 47.404C280.75 39.2681 268.576 19.7937 260.622 23.9224C252.667 28.0358 241.738 42.5316 220.82 45.1575C199.902 47.7683 176.784 33.2573 180.791 44.4593C184.799 55.6613 192.434 75.2116 200.236 75.8794C208.039 76.5625 201.906 87.2484 188.199 92.5154C174.491 97.7825 156.109 109.561 145.134 99.695C134.174 89.8288 138.409 86.8841 123.457 89.6315C108.49 92.3788 92.0197 87.9466 90.1526 95.9155C88.2855 103.884 97.2416 104.901 88.7864 114.221C80.3313 123.541 94.2512 130.751 95.1316 133.756C96.012 136.747 101.416 137.87 100.217 146.385Z" fill="#ED1C24"/>
<g filter="url(#filter0_d_1343_1191)">
<path d="M79.8607 126.015C79.8607 126.015 74.2594 164.584 74.5478 171.218C74.8514 177.836 73.0147 181.19 66.3204 179.52C59.6261 177.851 55.224 180.067 51.8692 182.814C48.5145 185.562 34.2759 186.336 29.8737 191.633C25.4564 196.931 23.8929 201.666 20.0069 205.841C16.1208 210.03 12.9331 212.383 14.8306 216.451C16.728 220.518 16.7736 221.9 9.30511 227.03C1.83666 232.161 1.74558 243.924 5.10032 248.387C8.47023 252.849 33.7597 289.901 46.0554 285.605C58.351 281.31 65.9712 265.584 66.0775 276.862C66.1838 288.14 58.5787 301.497 79.8759 300.738C101.173 299.98 118.6 293.331 129.332 285.089C140.049 276.847 157.733 268.666 159.479 276.043C161.24 283.435 159.448 308.389 174.203 317.496C188.973 326.603 249.419 338.291 249.738 358.251C250.056 378.211 245.548 387.971 260.971 389.413C276.393 390.855 292.196 389.443 297.114 414.018C302.032 438.592 280.962 484.706 297.114 491.718C313.265 498.746 323.982 481.26 328.87 496.667C333.758 512.073 323.587 528.831 337.264 527.267C350.941 525.719 358.334 526.007 353.992 540.776C349.636 555.545 353.992 558.186 359.609 568.007C365.225 577.843 352.125 589.546 340.877 600.308C329.644 611.069 292.681 629.466 306.95 641.108C321.219 652.735 357.226 664.666 361.233 681.408C365.225 698.15 354.433 703.508 366.151 703.63C377.87 703.766 406.272 656.591 415.121 642.596C423.971 628.601 445.693 615.517 445.208 592.399C444.722 569.282 445.906 560.524 456.911 552.297C467.917 544.085 513.046 517.492 522.579 519.693C532.097 521.894 551.937 525.597 566.722 509.356C581.507 493.115 616.982 441.067 619.897 417.752C622.826 394.437 620.276 340.507 630.31 340.917C640.344 341.327 648.784 339.49 657.36 323.188C665.937 306.886 701.275 272.627 704.6 254.367C707.924 236.122 701.26 208.922 682.544 202.82C663.827 196.718 647.144 183.254 635.167 170.595C623.191 157.936 610.09 160.684 594.85 156.752C579.594 152.821 560.255 144.746 541.402 151.106C522.549 157.466 537.152 143.44 533.129 136.64C529.106 129.825 500.417 116.058 488.546 112.734C476.675 109.41 474.823 105.372 462.983 102.792C451.143 100.211 441.048 66.8936 427.493 61.8543C413.937 56.8149 417.672 48.9826 413.664 36.2324C409.672 23.4822 402.704 12.6142 396.298 25.7894C389.893 38.9646 365.15 58.3024 356.527 56.8908C347.905 55.4792 338.403 50.3943 324.999 56.8908C311.58 63.3873 310.487 58.5453 297.858 63.8579C285.228 69.1705 264.098 82.9377 257.252 67.516C250.406 52.0791 251.028 35.1851 255.718 27.0493C260.394 18.9134 248.22 -0.56101 240.265 3.56763C232.311 7.68109 221.382 22.1769 200.464 24.8028C179.546 27.4135 156.428 12.9026 160.435 24.1046C164.442 35.3065 172.078 54.8568 179.895 55.5247C187.698 56.2078 181.565 66.8936 167.858 72.1607C154.151 77.4277 135.813 89.2065 124.854 79.3403C113.894 69.474 118.129 66.5294 103.177 69.2767C88.2248 72.0241 71.7396 67.5919 69.8724 75.5607C68.0053 83.5296 76.9614 84.5466 68.5063 93.8664C60.0511 103.186 73.971 110.396 74.8514 113.402C75.6559 116.392 81.0599 117.5 79.8607 126.015Z" stroke="#651C32" stroke-width="4" stroke-miterlimit="10"/>
</g>
<path d="M417.553 538.663C416.9 539.252 416.377 539.97 416.02 540.774C415.662 541.577 415.477 542.446 415.477 543.325C415.477 544.204 415.662 545.074 416.02 545.877C416.377 546.68 416.9 547.399 417.553 547.987V551.687C417.553 552.796 417.113 553.859 416.329 554.643C415.545 555.427 414.481 555.868 413.372 555.868H409.192C408.083 555.868 407.019 555.427 406.235 554.643C405.451 553.859 405.011 552.796 405.011 551.687V547.987C405.664 547.399 406.187 546.68 406.544 545.877C406.902 545.074 407.087 544.204 407.087 543.325C407.087 542.446 406.902 541.577 406.544 540.774C406.187 539.97 405.664 539.252 405.011 538.663V528.692C407.094 525.544 408.457 521.975 409.003 518.24H407.101V514.059H415.463V518.24H413.561C414.107 521.975 415.47 525.544 417.553 528.692V538.663Z" fill="#FFE5DE"/>
<path d="M365.591 449.073C364.937 449.661 364.415 450.38 364.057 451.183C363.699 451.986 363.514 452.855 363.514 453.735C363.514 454.614 363.699 455.483 364.057 456.286C364.415 457.089 364.937 457.808 365.591 458.396V462.096C365.591 463.205 365.15 464.269 364.366 465.053C363.582 465.837 362.519 466.277 361.41 466.277H357.229C356.12 466.277 355.057 465.837 354.273 465.053C353.489 464.269 353.048 463.205 353.048 462.096V458.396C353.702 457.808 354.224 457.089 354.582 456.286C354.94 455.483 355.124 454.614 355.124 453.735C355.124 452.855 354.94 451.986 354.582 451.183C354.224 450.38 353.702 449.661 353.048 449.073V439.101C355.131 435.953 356.495 432.384 357.041 428.649H355.139V424.468H363.5V428.649H361.598C362.144 432.384 363.508 435.953 365.591 439.101V449.073Z" fill="#FFE5DE"/>
<path d="M453.39 501.931C452.736 502.519 452.214 503.238 451.856 504.041C451.498 504.844 451.313 505.714 451.313 506.593C451.313 507.472 451.498 508.341 451.856 509.145C452.214 509.948 452.736 510.667 453.39 511.255V514.955C453.39 516.064 452.949 517.127 452.165 517.911C451.381 518.695 450.318 519.136 449.209 519.136H445.028C443.919 519.136 442.856 518.695 442.071 517.911C441.287 517.127 440.847 516.064 440.847 514.955V511.255C441.5 510.667 442.023 509.948 442.381 509.145C442.738 508.341 442.923 507.472 442.923 506.593C442.923 505.714 442.738 504.844 442.381 504.041C442.023 503.238 441.5 502.519 440.847 501.931V491.96C442.93 488.812 444.293 485.243 444.84 481.508H442.937V477.327H451.299V481.508H449.397C449.943 485.243 451.306 488.812 453.39 491.96V501.931Z" fill="#FFE5DE"/>
<path d="M403.219 469.679C402.565 470.267 402.043 470.986 401.685 471.789C401.327 472.592 401.143 473.461 401.143 474.34C401.143 475.219 401.327 476.089 401.685 476.892C402.043 477.695 402.565 478.414 403.219 479.002V482.702C403.219 483.811 402.778 484.874 401.994 485.658C401.21 486.442 400.147 486.883 399.038 486.883H394.857C393.748 486.883 392.685 486.442 391.901 485.658C391.117 484.874 390.676 483.811 390.676 482.702V479.002C391.33 478.414 391.852 477.695 392.21 476.892C392.568 476.089 392.752 475.219 392.752 474.34C392.752 473.461 392.568 472.592 392.21 471.789C391.852 470.986 391.33 470.267 390.676 469.679V459.707C392.759 456.559 394.123 452.99 394.669 449.255H392.767V445.074H401.128V449.255H399.226C399.772 452.99 401.136 456.559 403.219 459.707V469.679Z" fill="#FFE5DE"/>
<path d="M484.746 437.426C484.093 438.014 483.57 438.733 483.213 439.536C482.855 440.339 482.67 441.209 482.67 442.088C482.67 442.967 482.855 443.836 483.213 444.639C483.57 445.443 484.093 446.161 484.746 446.75V450.45C484.746 451.558 484.306 452.622 483.522 453.406C482.738 454.19 481.674 454.631 480.565 454.631H476.385C475.276 454.631 474.212 454.19 473.428 453.406C472.644 452.622 472.204 451.558 472.204 450.45V446.75C472.857 446.161 473.38 445.443 473.737 444.639C474.095 443.836 474.28 442.967 474.28 442.088C474.28 441.209 474.095 440.339 473.737 439.536C473.38 438.733 472.857 438.014 472.204 437.426V427.455C474.287 424.307 475.65 420.738 476.196 417.002H474.294V412.822H482.656V417.002H480.754C481.3 420.738 482.663 424.307 484.746 427.455V437.426Z" fill="#FFE5DE"/>
<path d="M434.576 423.987C433.922 424.575 433.4 425.294 433.042 426.098C432.684 426.901 432.499 427.77 432.499 428.649C432.499 429.528 432.684 430.398 433.042 431.201C433.4 432.004 433.922 432.723 434.576 433.311V437.011C434.576 438.12 434.135 439.183 433.351 439.967C432.567 440.751 431.504 441.192 430.395 441.192H426.214C425.105 441.192 424.042 440.751 423.257 439.967C422.473 439.183 422.033 438.12 422.033 437.011V433.311C422.686 432.723 423.209 432.004 423.567 431.201C423.924 430.398 424.109 429.528 424.109 428.649C424.109 427.77 423.924 426.901 423.567 426.098C423.209 425.294 422.686 424.575 422.033 423.987V414.016C424.116 410.868 425.479 407.299 426.026 403.564H424.123V399.383H432.485V403.564H430.583C431.129 407.299 432.492 410.868 434.576 414.016V423.987Z" fill="#FFE5DE"/>
<path d="M503.56 492.972C502.907 493.56 502.384 494.279 502.027 495.082C501.669 495.885 501.484 496.755 501.484 497.634C501.484 498.513 501.669 499.382 502.027 500.186C502.384 500.989 502.907 501.708 503.56 502.296V505.996C503.56 507.105 503.12 508.168 502.336 508.952C501.552 509.736 500.488 510.177 499.379 510.177H495.199C494.09 510.177 493.026 509.736 492.242 508.952C491.458 508.168 491.018 507.105 491.018 505.996V502.296C491.671 501.708 492.194 500.989 492.551 500.186C492.909 499.382 493.094 498.513 493.094 497.634C493.094 496.755 492.909 495.885 492.551 495.082C492.194 494.279 491.671 493.56 491.018 492.972V483.001C493.101 479.853 494.464 476.284 495.01 472.549H493.108V468.368H501.47V472.549H499.568C500.114 476.284 501.477 479.853 503.56 483.001V492.972Z" fill="#FFE5DE"/>
<path d="M405.907 607.648C405.253 608.236 404.731 608.955 404.373 609.758C404.015 610.561 403.83 611.431 403.83 612.31C403.83 613.189 404.015 614.058 404.373 614.862C404.731 615.665 405.253 616.384 405.907 616.972V620.672C405.907 621.781 405.466 622.844 404.682 623.628C403.898 624.412 402.835 624.853 401.726 624.853H397.545C396.436 624.853 395.373 624.412 394.588 623.628C393.804 622.844 393.364 621.781 393.364 620.672V616.972C394.017 616.384 394.54 615.665 394.898 614.862C395.255 614.058 395.44 613.189 395.44 612.31C395.44 611.431 395.255 610.561 394.898 609.758C394.54 608.955 394.017 608.236 393.364 607.648V597.677C395.447 594.529 396.81 590.96 397.357 587.225H395.454V583.044H403.816V587.225H401.914C402.46 590.96 403.823 594.529 405.907 597.677V607.648Z" fill="#FFE5DE"/>
<path d="M371.862 653.339C371.209 653.928 370.686 654.646 370.328 655.45C369.971 656.253 369.786 657.122 369.786 658.001C369.786 658.88 369.971 659.75 370.328 660.553C370.686 661.356 371.209 662.075 371.862 662.663V666.363C371.862 667.472 371.422 668.535 370.638 669.319C369.853 670.103 368.79 670.544 367.681 670.544H363.5C362.391 670.544 361.328 670.103 360.544 669.319C359.76 668.535 359.319 667.472 359.319 666.363V662.663C359.973 662.075 360.495 661.356 360.853 660.553C361.211 659.75 361.396 658.88 361.396 658.001C361.396 657.122 361.211 656.253 360.853 655.45C360.495 654.646 359.973 653.928 359.319 653.339V643.368C361.403 640.22 362.766 636.651 363.312 632.916H361.41V628.735H369.772V632.916H367.869C368.416 636.651 369.779 640.22 371.862 643.368V653.339Z" fill="#FFE5DE"/>
<path d="M534.917 461.223C534.264 461.811 533.741 462.53 533.383 463.333C533.026 464.136 532.841 465.006 532.841 465.885C532.841 466.764 533.026 467.633 533.383 468.437C533.741 469.24 534.264 469.959 534.917 470.547V474.247C534.917 475.356 534.477 476.419 533.693 477.203C532.909 477.987 531.845 478.428 530.736 478.428H526.555C525.447 478.428 524.383 477.987 523.599 477.203C522.815 476.419 522.375 475.356 522.375 474.247V470.547C523.028 469.959 523.551 469.24 523.908 468.437C524.266 467.633 524.451 466.764 524.451 465.885C524.451 465.006 524.266 464.136 523.908 463.333C523.551 462.53 523.028 461.811 522.375 461.223V451.252C524.458 448.104 525.821 444.535 526.367 440.8H524.465V436.619H532.827V440.8H530.924C531.471 444.535 532.834 448.104 534.917 451.252V461.223Z" fill="#FFE5DE"/>
<defs>
<filter id="filter0_d_1343_1191" x="0.980804" y="0.997803" width="714.439" height="712.632" filterUnits="userSpaceOnUse" color-interpolation-filters="sRGB">
<feFlood flood-opacity="0" result="BackgroundImageFix"/>
<feColorMatrix in="SourceAlpha" type="matrix" values="0 0 0 0 0 0 0 0 0 0 0 0 0 0 0 0 0 0 127 0" result="hardAlpha"/>
<feOffset dx="4" dy="4"/>
<feGaussianBlur stdDeviation="2"/>
<feColorMatrix type="matrix" values="0 0 0 0 0 0 0 0 0 0 0 0 0 0 0 0 0 0 0.1 0"/>
<feBlend mode="normal" in2="BackgroundImageFix" result="effect1_dropShadow_1343_1191"/>
<feBlend mode="normal" in="SourceGraphic" in2="effect1_dropShadow_1343_1191" result="shape"/>
</filter>
</defs>
</svg>
