<svg width="60" height="59" viewBox="0 0 60 59" fill="none" xmlns="http://www.w3.org/2000/svg">
<g clip-path="url(#clip0_1343_1227)">
<path d="M30.0107 36.8451C24.5367 36.8451 19.8296 33.2868 18.573 28.1858C18.0831 26.1496 17.8914 22.6118 17.8701 22.4473C17.8488 21.9948 18.2109 21.604 18.6795 21.5834C19.1267 21.5628 19.5314 21.9125 19.574 22.365C19.574 22.4061 19.7657 25.9233 20.213 27.795C21.2993 32.1556 25.3248 35.1997 30.0107 35.1997C34.6965 35.1997 38.7221 32.1556 39.787 27.795C40.2556 25.9233 40.4473 22.4061 40.4473 22.365C40.4686 21.9125 40.8733 21.5628 41.3419 21.5834C41.8104 21.604 42.1725 21.9948 42.1512 22.4473C42.1512 22.5912 41.9595 26.1496 41.4484 28.1858C40.1704 33.2662 35.4633 36.8451 30.0107 36.8451Z" fill="#FFE5DE"/>
<path d="M22.4707 39.5602C22.3429 39.5602 22.2151 39.5397 22.1086 39.478C21.6826 39.2928 21.5122 38.7992 21.7039 38.3878C22.8754 36.0225 22.5772 34.377 22.5772 34.3564C22.492 33.9245 22.7902 33.4926 23.2588 33.4103C23.706 33.328 24.1533 33.616 24.2385 34.0479C24.2598 34.1302 24.6645 36.2076 23.2375 39.1077C23.0884 39.3957 22.7902 39.5602 22.4707 39.5602Z" fill="#FFE5DE"/>
<path d="M37.5293 39.56C37.2098 39.56 36.9116 39.3955 36.7625 39.087C35.3142 36.1868 35.7402 34.1094 35.7615 34.0271C35.8467 33.5952 36.2939 33.3073 36.7625 33.3895C37.2098 33.4718 37.508 33.9037 37.4228 34.3562C37.4228 34.3974 37.1246 36.0429 38.2961 38.3876C38.5091 38.799 38.3174 39.2927 37.8914 39.4778C37.7849 39.5395 37.6571 39.56 37.5293 39.56Z" fill="#FFE5DE"/>
<path d="M59.1694 58.6476C58.7008 58.6476 58.3174 58.2774 58.3174 57.8249C58.3174 57.722 58.2109 47.3761 51.2673 44.0234L38.147 38.5934C37.721 38.4083 37.508 37.9352 37.6997 37.5238C37.8914 37.1125 38.3813 36.9068 38.8073 37.0919L51.9702 42.5425C59.9148 46.3682 60 57.3723 60 57.8249C60 58.2774 59.638 58.627 59.1694 58.6476Z" fill="#FFE5DE"/>
<path d="M0.85197 58.6476C0.383387 58.627 0 58.2774 0 57.8249C0 57.3518 0.0851969 46.3682 7.98722 42.5631L21.1928 37.0919C21.6187 36.9068 22.1086 37.1125 22.3003 37.5238C22.492 37.9352 22.279 38.4083 21.853 38.5934L8.6901 44.044C1.76784 47.3761 1.68264 57.722 1.68264 57.8249C1.68264 58.2774 1.32055 58.6476 0.85197 58.6476Z" fill="#FFE5DE"/>
<path d="M30.0107 58.6477C29.5421 58.6477 29.1587 58.2775 29.1587 57.825C29.1587 48.4458 24.9627 45.1343 23.5357 44.291L14.6752 51.7779L15.9958 44.0647C16.081 43.6122 16.5069 43.3243 16.9755 43.386C17.4441 43.4682 17.7423 43.8796 17.6784 44.3321L17.1246 47.5202L23.2588 42.3164L23.7487 42.5221C24.0469 42.6455 30.8413 45.6074 30.8413 57.8044C30.8413 58.2775 30.4793 58.6477 30.0107 58.6477Z" fill="#FFE5DE"/>
<path d="M23.4292 44.1058C23.0671 44.1058 22.7476 43.9001 22.6198 43.5504L20.7454 38.0998C20.5964 37.6679 20.8306 37.2153 21.2779 37.0714C21.7252 36.9274 22.1938 37.1536 22.3429 37.5856L24.2172 43.0362C24.3663 43.4681 24.132 43.9207 23.6847 44.0646C23.5995 44.0852 23.5143 44.1058 23.4292 44.1058Z" fill="#FFE5DE"/>
<path d="M30.0107 58.6477C29.5421 58.6477 29.1587 58.2774 29.1587 57.8249C29.1587 45.6073 35.9744 42.666 36.2513 42.5426L36.7412 42.3369L42.8967 47.5407L42.3429 44.3526C42.2577 43.9001 42.5772 43.4887 43.0458 43.4065C43.5144 43.3242 43.9404 43.6327 44.0256 44.0852L45.3461 51.7984L36.4856 44.3115C35.0799 45.1548 30.8626 48.4663 30.8626 57.8455C30.8413 58.2774 30.4792 58.6477 30.0107 58.6477Z" fill="#FFE5DE"/>
<path d="M36.5921 44.1058C36.5069 44.1058 36.4217 44.0852 36.3365 44.0646C35.8892 43.9207 35.6549 43.4681 35.804 43.0362L37.6784 37.5856C37.8275 37.1536 38.296 36.9274 38.7433 37.0714C39.1906 37.2153 39.4249 37.6679 39.2758 38.0998L37.4015 43.5504C37.2737 43.8795 36.9542 44.1058 36.5921 44.1058Z" fill="#FFE5DE"/>
<path d="M48.8179 58.6477H39.4036C38.935 58.6477 38.5516 58.2774 38.5516 57.8249C38.5516 57.3724 38.935 57.0022 39.4036 57.0022H48.8179C49.2864 57.0022 49.6698 57.3724 49.6698 57.8249C49.6698 58.2774 49.2864 58.6477 48.8179 58.6477Z" fill="#FFE5DE"/>
<path d="M42.2364 57.7219C41.7678 57.7219 41.3844 57.3517 41.3844 56.8992V54.1636C41.3844 53.7111 41.7678 53.3408 42.2364 53.3408C42.705 53.3408 43.0884 53.7111 43.0884 54.1636V56.8992C43.0884 57.3517 42.705 57.7219 42.2364 57.7219Z" fill="#FFE5DE"/>
<path d="M45.9851 58.6476C45.8999 58.6476 45.8147 58.627 45.7082 58.6064C45.2609 58.4625 45.0266 58.0099 45.1757 57.578L46.1129 54.8424C46.262 54.4105 46.7306 54.1842 47.1779 54.3282C47.6252 54.4722 47.8594 54.9453 47.7104 55.3566L46.7732 58.0717C46.688 58.4213 46.3472 58.6476 45.9851 58.6476Z" fill="#FFE5DE"/>
<path d="M30.0106 21.3981C24.7284 21.3981 15.5271 20.8839 13.2907 17.3873L13.1629 17.1816V16.0298C13.1629 15.5773 13.5463 15.207 14.0149 15.207C14.4835 15.207 14.8669 15.5773 14.8669 16.0298V16.688C16.3791 18.6214 21.9808 19.7527 30.0106 19.7527C38.0192 19.7527 43.6422 18.6008 45.1544 16.688V16.0298C45.1544 15.5773 45.5378 15.207 46.0064 15.207C46.475 15.207 46.8583 15.5773 46.8583 16.0298V17.161L46.7306 17.3667C44.4728 20.8633 35.2929 21.3981 30.0106 21.3981Z" fill="#FFE5DE"/>
<path d="M30.0107 16.8525C26.8371 16.8525 23.8978 16.3794 21.3845 15.9269C20.9159 15.8447 20.6177 15.4333 20.7029 14.9808C20.7881 14.5283 21.2354 14.2403 21.6826 14.3226C24.1108 14.7545 26.9649 15.2276 29.9894 15.2276C33.0139 15.2276 35.868 14.7751 38.2961 14.3226C38.7647 14.2403 39.1906 14.5283 39.2758 14.9808C39.361 15.4333 39.0628 15.8447 38.5943 15.9269C36.1022 16.3794 33.163 16.8525 30.0107 16.8525Z" fill="#FFE5DE"/>
<path d="M32.8221 6.8563C32.3535 6.8563 31.9701 6.48607 31.9701 6.03356V2.53693C31.9701 2.4958 31.9275 2.45466 31.9062 2.45466C30.6496 2.29011 29.329 2.29011 28.0724 2.45466C28.0511 2.45466 28.0085 2.4958 28.0085 2.53693V6.03356C28.0085 6.48607 27.6251 6.8563 27.1565 6.8563C26.6879 6.8563 26.3045 6.48607 26.3045 6.03356V2.53693C26.3045 1.67306 26.9648 0.953165 27.8168 0.829755C29.2438 0.644639 30.7135 0.644639 32.1192 0.829755C32.9712 0.953165 33.6315 1.69363 33.6315 2.53693V6.03356C33.6741 6.48607 33.2907 6.8563 32.8221 6.8563Z" fill="#FFE5DE"/>
<path d="M43.1736 15.0426C42.705 15.0426 42.3216 14.6724 42.3216 14.2199C42.3216 9.07776 38.2534 4.55271 32.6517 3.48315C32.2045 3.40088 31.885 2.96894 31.9915 2.51643C32.098 2.06393 32.5239 1.79654 32.9925 1.87881C39.3823 3.11292 44.0255 8.29616 44.0255 14.2199C44.0255 14.6724 43.6422 15.0426 43.1736 15.0426Z" fill="#FFE5DE"/>
<path d="M16.8264 15.0423C16.3578 15.0423 15.9744 14.6721 15.9744 14.2196C15.9744 8.29589 20.6177 3.11265 27.0075 1.87854C27.476 1.79627 27.9233 2.08423 28.0085 2.51616C28.0937 2.9481 27.7955 3.4006 27.3482 3.48288C21.7465 4.55244 17.6784 9.07749 17.6784 14.2196C17.6784 14.6721 17.295 15.0423 16.8264 15.0423Z" fill="#FFE5DE"/>
</g>
<defs>
<clipPath id="clip0_1343_1227">
<rect width="60" height="57.9618" fill="white" transform="translate(0 0.685791)"/>
</clipPath>
</defs>
</svg>
