<svg width="61" height="52" viewBox="0 0 61 52" fill="none" xmlns="http://www.w3.org/2000/svg">
<g clip-path="url(#clip0_1343_1327)">
<path d="M21.4447 51.8171C21.0439 51.8171 20.716 51.5016 20.716 51.116V48.627L18.1834 23.1762H9.14636L6.63203 48.6971V51.116C6.63203 51.5016 6.30407 51.8171 5.90323 51.8171C5.5024 51.8171 5.17444 51.5016 5.17444 51.116V48.627L7.83453 21.7915H19.5134L22.1735 48.5744V51.1335C22.1553 51.5016 21.8274 51.8171 21.4447 51.8171Z" fill="#FFE5DE"/>
<path d="M31.7936 36.8834C31.3928 36.8834 31.0648 36.5679 31.0648 36.1823V29.3989H28.2043L23.2303 34.184C22.957 34.4645 22.4833 34.4645 22.21 34.184C21.9185 33.9211 21.9185 33.4654 22.21 33.2025L27.603 28.0142H32.5042V36.1823C32.5224 36.5679 32.1944 36.8834 31.7936 36.8834Z" fill="#FFE5DE"/>
<path d="M43.4361 36.8834C43.0353 36.8834 42.7073 36.5679 42.7073 36.1823V29.3989H39.8468L34.891 34.184C34.5995 34.4645 34.144 34.4645 33.8707 34.184C33.5792 33.9211 33.5792 33.4654 33.8707 33.2025L39.2637 28.0142H44.1649V36.1823C44.1649 36.5679 43.8369 36.8834 43.4361 36.8834Z" fill="#FFE5DE"/>
<path d="M55.0968 51.8173C54.6959 51.8173 54.368 51.5018 54.368 51.1162V29.3989H51.5075L46.5334 34.184C46.2601 34.4645 45.7864 34.4645 45.5131 34.184C45.2216 33.9036 45.2216 33.4654 45.5131 33.2025L50.9062 28.0142H55.8073V51.1337C55.8256 51.5018 55.4976 51.8173 55.0968 51.8173Z" fill="#FFE5DE"/>
<path d="M60.2712 51.8173H0.728793C0.327957 51.8173 0 51.5018 0 51.1162C0 50.7305 0.327957 50.415 0.728793 50.415H60.2712C60.672 50.415 61 50.7305 61 51.1162C61 51.5018 60.672 51.8173 60.2712 51.8173Z" fill="#FFE5DE"/>
<path d="M27.9128 46.8392C27.5119 46.8392 27.184 46.5237 27.184 46.1381V41.1601C27.184 40.7745 27.5119 40.459 27.9128 40.459C28.3136 40.459 28.6415 40.7745 28.6415 41.1601V46.1381C28.6415 46.5237 28.3136 46.8392 27.9128 46.8392Z" fill="#FFE5DE"/>
<path d="M33.0872 46.8392C32.6864 46.8392 32.3584 46.5237 32.3584 46.1381V41.1601C32.3584 40.7745 32.6864 40.459 33.0872 40.459C33.488 40.459 33.816 40.7745 33.816 41.1601V46.1381C33.816 46.5237 33.488 46.8392 33.0872 46.8392Z" fill="#FFE5DE"/>
<path d="M38.2616 46.8392C37.8608 46.8392 37.5328 46.5237 37.5328 46.1381V41.1601C37.5328 40.7745 37.8608 40.459 38.2616 40.459C38.6625 40.459 38.9904 40.7745 38.9904 41.1601V46.1381C38.9904 46.5237 38.6625 46.8392 38.2616 46.8392Z" fill="#FFE5DE"/>
<path d="M18.6935 19.3553C18.3474 19.3553 18.0558 19.1274 17.983 18.7944C17.9101 18.4263 18.1652 18.0582 18.5478 17.9706C19.7138 17.7427 20.552 16.7436 20.552 15.6043C20.552 15.0784 20.3698 14.5701 20.0418 14.1495C19.8049 13.834 19.8596 13.4133 20.1876 13.1679C20.4973 12.94 20.9528 12.9926 21.2079 13.3081C21.718 13.9742 22.0095 14.7629 22.0095 15.6043C22.0095 17.4097 20.6795 18.9872 18.8393 19.3378C18.7846 19.3553 18.73 19.3553 18.6935 19.3553Z" fill="#FFE5DE"/>
<path d="M24.032 18.1808C22.9206 18.1808 21.8456 17.9354 20.8617 17.4797C20.4973 17.3044 20.3516 16.8838 20.5338 16.5507C20.716 16.2002 21.1532 16.0599 21.4994 16.2352C22.2829 16.6033 23.1392 16.7961 24.032 16.7961C27.2022 16.7961 29.7712 14.3071 29.7712 11.2572C29.7712 10.8892 29.7348 10.5211 29.6619 10.1705C29.589 9.80241 29.8441 9.43432 30.2267 9.34668C30.6093 9.27657 30.9919 9.52196 31.083 9.89005C31.1741 10.3283 31.2106 10.784 31.2106 11.2397C31.2288 15.0608 27.9857 18.1808 24.032 18.1808Z" fill="#FFE5DE"/>
<path d="M39.5917 17.5498C35.4558 17.5498 31.6661 16.0074 29.4432 13.4307C29.1882 13.1328 29.2246 12.6946 29.5343 12.4492C29.8441 12.2038 30.2996 12.2388 30.5547 12.5368C32.5042 14.7979 35.8748 16.1476 39.5917 16.1476C42.3247 16.1476 44.9301 15.3939 46.9161 14.0442C47.244 13.8164 47.6995 13.904 47.9182 14.202C48.155 14.5175 48.0821 14.9557 47.7542 15.166C45.5131 16.7085 42.6162 17.5498 39.5917 17.5498Z" fill="#FFE5DE"/>
<path d="M11.0777 10.784C10.6768 10.784 10.3489 10.4685 10.3489 10.0828C10.3489 5.22756 14.4483 1.28374 19.4952 1.28374C21.3537 1.28374 23.1392 1.80958 24.6514 2.82621C27.0747 1.5116 33.1419 -1.34548 41.2315 2.68599C42.1789 3.15925 43.0535 3.70262 43.8916 4.24599C46.8614 6.12149 49.6673 7.89183 56.2264 6.29678C56.609 6.20913 57.0099 6.437 57.101 6.80509C57.1921 7.17318 56.9734 7.5588 56.5726 7.64644C49.394 9.39925 46.1873 7.36599 43.0899 5.40284C42.2882 4.89453 41.4501 4.36868 40.5574 3.93048C33.4881 0.407335 28.2772 2.42307 24.9612 4.26352L24.5421 4.49138L24.1595 4.21093C22.8112 3.21183 21.1897 2.68599 19.477 2.68599C15.2318 2.68599 11.7882 5.9988 11.7882 10.0828C11.8065 10.4685 11.4785 10.784 11.0777 10.784Z" fill="#FFE5DE"/>
<path d="M10.2396 19.4428C10.0756 19.4428 9.89338 19.3902 9.76584 19.2675C8.49045 18.1983 7.76166 16.6383 7.76166 15.0082C7.76166 11.8707 10.4035 9.3291 13.6649 9.3291C14.175 9.3291 14.667 9.38169 15.1407 9.50438C15.5415 9.60955 15.7602 9.97764 15.6691 10.3633C15.5597 10.7313 15.1771 10.9592 14.7763 10.854C14.4119 10.7664 14.0475 10.7138 13.6649 10.7138C11.2052 10.7138 9.21924 12.6419 9.21924 15.0082C9.21924 16.2352 9.76584 17.4096 10.7315 18.2158C11.023 18.4612 11.0594 18.917 10.7861 19.1974C10.6404 19.3552 10.44 19.4428 10.2396 19.4428Z" fill="#FFE5DE"/>
</g>
<defs>
<clipPath id="clip0_1343_1327">
<rect width="61" height="51.1996" fill="white" transform="translate(0 0.617676)"/>
</clipPath>
</defs>
</svg>
