<svg width="60" height="76" viewBox="0 0 60 76" fill="none" xmlns="http://www.w3.org/2000/svg">
<g clip-path="url(#clip0_1343_1245)">
<path d="M10.9212 18.4679C10.7508 18.4679 10.5805 18.376 10.4858 18.2106C10.4101 18.0636 8.68772 14.5349 12.0947 9.75638C15.5395 4.94113 20.2145 5.95197 20.4038 6.0071C20.6688 6.06224 20.8202 6.31954 20.7634 6.55847C20.7066 6.81577 20.4417 6.9628 20.1956 6.90767C20.0253 6.87091 15.9559 6.0071 12.8896 10.2894C9.80443 14.59 11.2808 17.6593 11.3376 17.7879C11.4511 18.0268 11.3565 18.3025 11.1294 18.4128C11.0536 18.4496 10.9779 18.4679 10.9212 18.4679Z" fill="#FFE5DE"/>
<path d="M10.9211 18.6148C10.6751 18.6148 10.448 18.4862 10.3533 18.2656C10.2587 18.1186 8.49843 14.5164 11.9622 9.66435C15.4827 4.75721 20.2524 5.8048 20.4416 5.85994C20.612 5.89669 20.7445 5.98859 20.8391 6.13562C20.9338 6.28265 20.9527 6.44806 20.9148 6.61347C20.8391 6.94429 20.4795 7.14645 20.1388 7.07294C19.9685 7.03618 16.0126 6.19075 13.0032 10.3811C9.97477 14.6083 11.4133 17.604 11.47 17.7143C11.6215 18.0267 11.489 18.3943 11.1672 18.5413C11.1104 18.5965 11.0158 18.6148 10.9211 18.6148ZM19.1167 6.04372C17.489 6.04372 14.5741 6.57671 12.2461 9.84814C8.8959 14.5347 10.5615 17.99 10.6372 18.1186C10.7129 18.2473 10.9022 18.3208 11.0536 18.2473C11.2051 18.1737 11.2808 17.99 11.2051 17.8429C11.1293 17.7326 9.61515 14.5715 12.7571 10.1973C15.8801 5.82318 20.0631 6.72374 20.2334 6.7605C20.4038 6.79726 20.5741 6.70536 20.612 6.53995C20.6309 6.46644 20.612 6.37454 20.5741 6.31941C20.5363 6.24589 20.4606 6.20913 20.3849 6.19075C20.3092 6.154 19.836 6.04372 19.1167 6.04372Z" fill="#FFE5DE"/>
<path d="M8.59309 35.3397C8.47953 35.3397 8.36596 35.3029 8.29025 35.2294C8.15776 35.1191 5.26186 32.6747 6.28394 26.9957C7.26817 21.4269 9.93694 18.7803 10.0505 18.6701C10.2398 18.4863 10.5426 18.4863 10.7319 18.6701C10.9212 18.8539 10.9212 19.1479 10.7319 19.3317C10.713 19.3501 8.15776 21.9047 7.23032 27.1611C6.3218 32.3255 8.89593 34.5126 8.91486 34.531C9.12306 34.6964 9.14199 34.9905 8.97164 35.1742C8.85807 35.2845 8.72558 35.3397 8.59309 35.3397Z" fill="#FFE5DE"/>
<path d="M8.59308 35.5051C8.44166 35.5051 8.29024 35.45 8.17667 35.3581C8.04418 35.2478 5.07257 32.7483 6.11358 26.959C7.11674 21.3351 9.82336 18.6518 9.93693 18.5415C10.183 18.3026 10.5994 18.3026 10.8454 18.5415C11.0915 18.7804 11.0915 19.1848 10.8454 19.4237C10.8265 19.4421 8.30917 21.9967 7.38172 27.1795C6.49213 32.2153 8.99056 34.384 9.00948 34.4024C9.14197 34.5127 9.21768 34.6597 9.23661 34.8251C9.25554 34.9905 9.19876 35.1559 9.08519 35.2846C8.9527 35.4132 8.78235 35.5051 8.59308 35.5051ZM10.3723 18.6701C10.2965 18.6701 10.2208 18.7069 10.1451 18.762C10.0316 18.8723 7.40065 21.4821 6.41642 27.0141C5.41327 32.6197 8.25238 35.0089 8.36595 35.1008C8.49844 35.2111 8.68772 35.1927 8.80128 35.064C8.85806 35.0089 8.87699 34.917 8.87699 34.8435C8.87699 34.77 8.83914 34.6965 8.76343 34.6413C8.7445 34.623 6.07573 32.3807 7.0221 27.106C7.96847 21.8129 10.5426 19.2031 10.5805 19.1848C10.713 19.0745 10.694 18.8723 10.5805 18.762C10.5426 18.7069 10.448 18.6701 10.3723 18.6701Z" fill="#FFE5DE"/>
<path d="M31.1925 17.9717C31.041 17.9717 30.8896 17.8982 30.8139 17.7879C30.6625 17.5858 30.7004 17.2917 30.9086 17.1447C31.6467 16.6117 31.4953 16.1338 31.1546 15.3068C30.9275 14.737 30.6246 14.0387 31.1735 13.4689C31.3439 13.2851 31.6657 13.2667 31.8549 13.4505C32.0442 13.6343 32.0631 13.9284 31.8739 14.1122C31.7603 14.2408 31.8549 14.5165 32.0442 14.976C32.366 15.7479 32.8392 16.9241 31.4764 17.9166C31.3817 17.9533 31.2871 17.9717 31.1925 17.9717Z" fill="#FFE5DE"/>
<path d="M31.1924 18.1372C30.9842 18.1372 30.795 18.0453 30.6814 17.8798C30.5868 17.7512 30.53 17.5858 30.5678 17.4204C30.6057 17.255 30.6814 17.1079 30.8328 17.016C31.4574 16.575 31.3817 16.2441 31.0221 15.362C30.795 14.7922 30.4543 14.0019 31.0789 13.3587C31.1924 13.23 31.3628 13.1749 31.5331 13.1565C31.7224 13.1565 31.8738 13.2116 31.9874 13.3219C32.1199 13.4322 32.1767 13.5976 32.1956 13.763C32.1956 13.9284 32.1388 14.0938 32.0252 14.2041C31.9874 14.2776 32.1577 14.7003 32.2334 14.9025C32.5552 15.6744 33.0852 16.9793 31.5899 18.0269C31.4574 18.1004 31.3249 18.1372 31.1924 18.1372ZM31.5331 13.4689C31.4385 13.4689 31.3628 13.5057 31.306 13.5608C30.8328 14.0387 31.0978 14.6819 31.3249 15.2333C31.6278 15.9868 31.8927 16.6485 31.0221 17.2733C30.8896 17.3652 30.8517 17.5674 30.9464 17.6961C31.041 17.8247 31.2492 17.8615 31.3817 17.7512C32.6498 16.8506 32.2145 15.7847 31.9117 15.0128C31.7035 14.4981 31.5899 14.1857 31.7792 13.9835C31.836 13.9284 31.8738 13.8549 31.8549 13.763C31.8549 13.6895 31.817 13.616 31.7603 13.5608C31.6845 13.5057 31.6088 13.4689 31.5331 13.4689Z" fill="#FFE5DE"/>
<path d="M30.3029 12.7706C29.7729 12.7706 29.2808 12.6236 28.694 12.2744C28.6562 12.256 28.6372 12.2376 28.5994 12.2009C28.5426 12.1457 28.3533 11.9436 28.3533 11.6495C28.3533 11.6311 28.3533 11.5944 28.3533 11.576C28.3912 11.3738 28.4669 11.1717 28.5237 10.9879C28.5805 10.8225 28.694 10.51 28.6562 10.4181C28.6562 10.4181 28.5994 10.3814 28.4858 10.363C28.0694 10.2895 27.5962 10.3262 27.0852 10.363C26.1577 10.4365 25.0978 10.51 24.2461 9.83001C23.735 9.44406 23.2808 8.96621 22.8265 8.52512C22.3723 8.04727 21.9369 7.62456 21.4637 7.27536C21.2555 7.12833 21.1988 6.83427 21.3691 6.6321C21.5205 6.42993 21.8234 6.3748 22.0316 6.54021C22.5805 6.92616 23.0536 7.42239 23.5268 7.90024C23.9432 8.32295 24.3786 8.76404 24.8328 9.11324C25.4006 9.55433 26.1577 9.4992 27.0284 9.44406C27.5584 9.4073 28.1262 9.37054 28.6751 9.46244C29.0915 9.55433 29.3565 9.71974 29.5079 9.97705C29.754 10.3998 29.5836 10.8776 29.4322 11.3003C29.3943 11.3922 29.3754 11.4841 29.3376 11.576C29.7729 11.8149 30.1325 11.8884 30.53 11.8333C30.795 11.7965 31.0221 11.9803 31.06 12.2376C31.0978 12.4949 30.9085 12.7339 30.6435 12.7522C30.53 12.7522 30.4164 12.7706 30.3029 12.7706Z" fill="#FFE5DE"/>
<path d="M30.3028 12.936C29.7539 12.936 29.224 12.7706 28.6183 12.4214C28.5804 12.3847 28.5237 12.3663 28.4858 12.3295C28.4101 12.256 28.183 12.0171 28.183 11.6679C28.183 11.6312 28.183 11.5944 28.2019 11.576C28.2398 11.3555 28.3155 11.1533 28.3912 10.9511C28.4669 10.7673 28.5047 10.6203 28.5237 10.5468C28.5047 10.5468 28.5047 10.5468 28.4858 10.5468C28.1073 10.4733 27.6341 10.51 27.142 10.5468C26.1577 10.6019 25.0599 10.6755 24.1514 9.97706C23.6215 9.57272 23.1672 9.11326 22.7129 8.65378C22.2587 8.17594 21.8233 7.75322 21.3691 7.40403C21.0852 7.20186 21.0284 6.79752 21.2366 6.52184C21.4448 6.24616 21.8612 6.19102 22.1451 6.39319C22.7129 6.79752 23.1861 7.29375 23.6593 7.7716C24.0757 8.19431 24.511 8.63541 24.9464 8.9846C25.4763 9.38894 26.1956 9.3338 27.0095 9.27866C27.5584 9.24191 28.1262 9.20515 28.694 9.29704C29.1483 9.38894 29.47 9.5911 29.6404 9.90354C29.9243 10.3998 29.735 10.9328 29.5836 11.3555C29.5647 11.4106 29.5457 11.4474 29.5268 11.4841C29.8675 11.6495 30.1704 11.7047 30.4921 11.6679C30.6625 11.6495 30.8328 11.6863 30.9653 11.7966C31.0978 11.9068 31.1924 12.0539 31.2114 12.2193C31.2303 12.3847 31.1924 12.5501 31.0789 12.6787C30.9653 12.8074 30.8139 12.8993 30.6435 12.9177C30.5489 12.9177 30.4164 12.936 30.3028 12.936ZM28.7129 10.2711H28.7886L28.8265 10.3814C28.8644 10.4917 28.8265 10.6571 28.694 11.043C28.6372 11.2268 28.5615 11.429 28.5237 11.6128C28.5237 11.6312 28.5237 11.6495 28.5237 11.6679C28.5237 11.8885 28.694 12.0722 28.7319 12.0906C28.7508 12.109 28.7697 12.1274 28.7886 12.1458C29.47 12.5317 30.0189 12.6787 30.6246 12.5868C30.7003 12.5685 30.776 12.5317 30.8328 12.4766C30.8896 12.4214 30.9085 12.3295 30.8896 12.256C30.8707 12.1825 30.8328 12.109 30.776 12.0539C30.7192 11.9987 30.6246 11.9803 30.5489 11.9987C30.1136 12.0539 29.735 11.962 29.2618 11.723L29.1483 11.6495L29.1861 11.5209C29.2051 11.429 29.2429 11.3371 29.2808 11.2452C29.4322 10.8409 29.5836 10.4182 29.3754 10.069C29.2429 9.84841 29.0158 9.70138 28.6562 9.62786C28.1451 9.53597 27.5962 9.5911 27.0663 9.62786C26.1577 9.683 25.3817 9.73813 24.7571 9.26029C24.2839 8.91109 23.8486 8.47 23.4322 8.02891C22.959 7.55106 22.4858 7.07321 21.9558 6.68725C21.8234 6.59536 21.6151 6.61374 21.5205 6.74239C21.4069 6.85266 21.4448 7.03645 21.5773 7.14672C22.0694 7.49592 22.5047 7.95539 22.959 8.41486C23.3943 8.87433 23.8486 9.3338 24.3596 9.70138C25.1735 10.3263 26.1956 10.2527 27.0852 10.1976C27.5962 10.1608 28.0883 10.1241 28.5237 10.1976C28.6183 10.2344 28.6751 10.2527 28.7129 10.2711Z" fill="#FFE5DE"/>
<path d="M26.4795 19.5523C25.1925 19.5523 24.3218 18.9642 24.265 18.9275C24.0568 18.7804 24 18.4864 24.1515 18.2842C24.3029 18.082 24.6057 18.0269 24.8139 18.1739C24.8896 18.2291 26.3849 19.2215 28.3155 18.1004C28.5426 17.9718 28.8265 18.0453 28.978 18.2658C29.1105 18.4864 29.0347 18.7621 28.8076 18.9091C27.9559 19.3869 27.1609 19.5523 26.4795 19.5523Z" fill="#FFE5DE"/>
<path d="M26.4795 19.7179C25.1546 19.7179 24.265 19.1297 24.1703 19.0562C23.8864 18.8541 23.8107 18.4681 24.0189 18.174C24.2271 17.8984 24.6246 17.8248 24.9085 18.027C24.9653 18.0638 26.3849 19.0195 28.2208 17.9351C28.5237 17.7513 28.9211 17.8432 29.1104 18.1557C29.205 18.3027 29.224 18.4681 29.1861 18.6335C29.1483 18.7989 29.0347 18.9276 28.8833 19.0195C28.1262 19.4973 27.3123 19.7179 26.4795 19.7179ZM24.5489 18.2476C24.4543 18.2476 24.3596 18.2843 24.3028 18.3762C24.2082 18.5049 24.2271 18.707 24.3785 18.7989C24.4732 18.8541 25.2871 19.4054 26.4984 19.4054C27.2555 19.4054 28.0126 19.1849 28.7508 18.7622C28.8265 18.7254 28.8833 18.6519 28.9022 18.5784C28.9211 18.5049 28.9022 18.413 28.8643 18.3578C28.7697 18.2108 28.5804 18.174 28.429 18.2476C26.4038 19.4422 24.8139 18.3578 24.7382 18.3211C24.6814 18.2659 24.6057 18.2476 24.5489 18.2476Z" fill="#FFE5DE"/>
<path d="M20.4984 19.534C19.7792 19.534 19.041 19.4053 18.4543 19.0377C17.7729 18.6334 17.4322 18.0085 17.47 17.2366C17.5079 16.5015 17.7729 15.9501 18.265 15.6193C19.1357 15.0312 20.347 15.362 20.4795 15.3987C20.7256 15.4723 20.877 15.7296 20.8013 15.9869C20.7256 16.2258 20.4606 16.3728 20.1956 16.2993C19.9495 16.2258 19.2303 16.0971 18.8139 16.3912C18.5678 16.5566 18.4353 16.8507 18.4164 17.2918C18.3975 17.7328 18.5678 18.0453 18.9464 18.2842C19.817 18.8172 21.4637 18.6702 22.1073 18.321C22.3344 18.1923 22.6183 18.2658 22.7508 18.5048C22.8833 18.7253 22.8076 19.0194 22.5615 19.1296C22.1262 19.3502 21.3312 19.534 20.4984 19.534Z" fill="#FFE5DE"/>
<path d="M20.4985 19.6994C19.9117 19.6994 19.0789 19.6075 18.3597 19.1848C17.6215 18.7437 17.2619 18.0637 17.2997 17.2182C17.3376 16.4279 17.6404 15.8398 18.1704 15.4722C19.0978 14.8474 20.3849 15.1966 20.5174 15.2333C20.8581 15.3436 21.0474 15.6928 20.9338 16.0236C20.8202 16.3544 20.4606 16.5382 20.1199 16.4279C19.9117 16.3728 19.2492 16.2442 18.8896 16.5015C18.7003 16.6301 18.5868 16.8874 18.5679 17.2734C18.5489 17.6593 18.6814 17.9166 19.0221 18.1188C19.8171 18.5966 21.407 18.4864 22.0127 18.1372C22.1641 18.0637 22.3344 18.0269 22.5048 18.082C22.6751 18.1372 22.8076 18.2291 22.8833 18.3761C22.978 18.5231 22.9969 18.6885 22.9401 18.8539C22.9022 19.0194 22.7887 19.148 22.6373 19.2399C22.1451 19.5156 21.3123 19.6994 20.4985 19.6994ZM19.5332 15.4171C19.1546 15.4171 18.7382 15.4906 18.3597 15.7479C17.9243 16.0604 17.6783 16.5566 17.6404 17.2366C17.6026 17.9534 17.9054 18.5415 18.5489 18.9091C19.1925 19.295 19.9685 19.3685 20.4985 19.3685C21.2556 19.3685 22.0316 19.2031 22.5048 18.9458C22.5805 18.9091 22.6373 18.8356 22.6562 18.762C22.6751 18.6885 22.6751 18.5966 22.6183 18.5415C22.5805 18.468 22.5048 18.4312 22.4291 18.3945C22.3533 18.3761 22.2587 18.3761 22.2019 18.4312C21.5205 18.8172 19.7981 18.9642 18.8707 18.3945C18.4354 18.1372 18.2272 17.7696 18.265 17.2734C18.2839 16.7771 18.4354 16.4463 18.7193 16.2442C19.2871 15.8582 20.2335 16.1339 20.2335 16.1339C20.4038 16.189 20.5742 16.0971 20.612 15.9317C20.6688 15.7663 20.5742 15.6009 20.4038 15.5458C20.366 15.5274 19.9874 15.4171 19.5332 15.4171Z" fill="#FFE5DE"/>
<path d="M23.2051 11.9435C22.9401 11.9435 22.7319 11.7413 22.7319 11.484C22.7319 11.2267 22.9401 11.0246 23.1861 11.0062C23.2808 11.0062 24.0757 10.9143 24.3596 9.7013C24.4164 9.44399 24.6625 9.29696 24.9275 9.3521C25.1924 9.40724 25.3439 9.64616 25.2871 9.90346C24.8328 11.87 23.2808 11.9251 23.2051 11.9435Z" fill="#FFE5DE"/>
<path d="M23.2051 12.0905C22.8454 12.0905 22.5615 11.8149 22.5426 11.484C22.5237 11.1348 22.8076 10.8592 23.1672 10.8408C23.2429 10.8408 23.9243 10.7673 24.1704 9.66454C24.2082 9.49913 24.3029 9.3521 24.4543 9.27859C24.6057 9.18669 24.776 9.14994 24.9464 9.18669C25.1167 9.22345 25.2492 9.31534 25.3439 9.46237C25.4385 9.60941 25.4764 9.77481 25.4385 9.94022C24.9842 12.0354 23.2808 12.0905 23.2051 12.0905ZM24.8139 9.49913C24.7571 9.49913 24.7003 9.51751 24.6435 9.55427C24.5678 9.59103 24.53 9.66454 24.5111 9.73806C24.2082 11.0797 23.2997 11.1716 23.1861 11.1716C23.0158 11.1716 22.8833 11.3186 22.8833 11.484C22.8833 11.6495 23.0158 11.7781 23.1861 11.7781H23.2051C23.2618 11.7781 24.7003 11.723 25.1167 9.86671C25.1357 9.79319 25.1167 9.7013 25.0789 9.64616C25.041 9.57265 24.9653 9.53589 24.8896 9.51751C24.8707 9.49913 24.8328 9.49913 24.8139 9.49913Z" fill="#FFE5DE"/>
<path d="M28.0884 27.253C27.8423 27.253 27.6341 27.0692 27.6152 26.8303C27.0852 20.4344 29.9811 18.3944 30.1136 18.3209C30.3407 18.1738 30.6246 18.229 30.7761 18.4311C30.9275 18.6333 30.8707 18.9274 30.6625 19.0744C30.6246 19.0928 28.0884 20.949 28.5805 26.7567C28.5994 27.014 28.4101 27.2346 28.1451 27.253C28.1073 27.253 28.1073 27.253 28.0884 27.253Z" fill="#FFE5DE"/>
<path d="M28.0884 27.4186C27.7477 27.4186 27.4638 27.1613 27.4448 26.8489C26.8959 20.3611 29.8865 18.266 30 18.1924C30.2839 17.9903 30.7003 18.0638 30.8896 18.3578C31.0978 18.6335 31.0221 19.0379 30.7382 19.2217C30.7193 19.24 28.2398 21.0779 28.7319 26.757C28.7508 26.9224 28.694 27.0878 28.5805 27.2164C28.4669 27.3451 28.3155 27.4186 28.1451 27.437L28.0884 27.4186ZM30.3786 18.3946C30.3218 18.3946 30.2461 18.413 30.2082 18.4497C30.0947 18.5233 27.2556 20.5082 27.7855 26.8121C27.8044 26.9775 27.9369 27.0878 28.0884 27.0878V27.2532L28.1073 27.0878C28.183 27.0878 28.2587 27.051 28.3155 26.9775C28.3723 26.9224 28.3912 26.8489 28.3912 26.757C27.8991 20.8574 30.5111 18.9643 30.5489 18.9276C30.6814 18.8357 30.7193 18.6519 30.6246 18.5049C30.5679 18.4314 30.5111 18.3946 30.4164 18.3762C30.4164 18.3946 30.3975 18.3946 30.3786 18.3946Z" fill="#FFE5DE"/>
<path d="M18.7192 27.3081C18.5489 27.3081 18.3975 27.2345 18.3028 27.0875C18.1704 26.867 18.2271 26.5729 18.4543 26.4443C22.5994 23.9815 20.9527 20.6917 20.8959 20.5447C20.7823 20.3241 20.877 20.03 21.1041 19.9198C21.3312 19.8095 21.6341 19.9014 21.7476 20.1219C21.7666 20.1587 23.8675 24.3123 18.9653 27.2162C18.8896 27.2897 18.795 27.3081 18.7192 27.3081Z" fill="#FFE5DE"/>
<path d="M18.7193 27.4735C18.4922 27.4735 18.284 27.3632 18.1704 27.1795C17.9811 26.8854 18.0758 26.4994 18.3786 26.3156C22.3912 23.9448 20.8202 20.7652 20.7445 20.6366C20.5931 20.3242 20.7067 19.9566 21.0284 19.7912C21.3502 19.6441 21.7288 19.7544 21.8991 20.0669C21.918 20.1036 24.1136 24.3859 19.0411 27.3816C18.9464 27.4551 18.8329 27.4735 18.7193 27.4735ZM21.3313 20.0485C21.2745 20.0485 21.2366 20.0669 21.1988 20.0852C21.0474 20.1587 20.9906 20.3425 21.0663 20.4896C21.142 20.6366 22.8455 24.0551 18.5679 26.5913C18.4165 26.6832 18.3786 26.867 18.4732 26.9957C18.5679 27.1243 18.7572 27.1795 18.9086 27.0876C23.6783 24.2756 21.6531 20.2323 21.6341 20.1955C21.5584 20.122 21.4448 20.0485 21.3313 20.0485Z" fill="#FFE5DE"/>
<path d="M29.7161 33.5019C25.8549 33.5019 21.4637 27.0693 21.2555 26.7753C21.1041 26.5547 21.1798 26.2791 21.388 26.132C21.6152 25.985 21.8991 26.0585 22.0505 26.2607C23.5268 28.4294 27.9369 33.7592 30.7193 32.3257C30.9464 32.2154 31.2492 32.2889 31.3628 32.5278C31.4764 32.7668 31.4006 33.0425 31.1546 33.1527C30.7003 33.3917 30.2271 33.5019 29.7161 33.5019Z" fill="#FFE5DE"/>
<path d="M29.7161 33.6673C25.7603 33.6673 21.2934 27.1428 21.1041 26.8671C21.0095 26.7201 20.9716 26.5547 21.0095 26.3893C21.0473 26.2239 21.142 26.0769 21.2934 25.985C21.5962 25.8012 21.9937 25.8747 22.183 26.1688C23.5268 28.1537 27.9748 33.557 30.6435 32.197C30.795 32.1235 30.9653 32.1051 31.1357 32.1602C31.306 32.2154 31.4385 32.3257 31.5142 32.4727C31.6845 32.7851 31.5521 33.1527 31.2492 33.3181C30.776 33.5387 30.265 33.6673 29.7161 33.6673ZM21.653 26.2055C21.5962 26.2055 21.5394 26.2239 21.4827 26.2606C21.4069 26.2974 21.3691 26.3709 21.3502 26.4444C21.3312 26.518 21.3502 26.6098 21.388 26.665C21.5773 26.9407 25.9495 33.3181 29.7161 33.3181C30.2082 33.3181 30.6625 33.2078 31.0978 32.9873C31.2492 32.9138 31.306 32.73 31.2303 32.583C31.1924 32.5094 31.1356 32.4543 31.041 32.4359C30.9653 32.4175 30.8707 32.4175 30.8139 32.4543C27.918 33.9246 23.4133 28.5212 21.918 26.3342C21.8612 26.2606 21.7666 26.2055 21.653 26.2055Z" fill="#FFE5DE"/>
<path d="M20.6498 69.3037C20.2713 69.3037 19.8738 69.267 19.4196 69.1935C15.6719 68.5318 5.09148 59.324 1.49527 54.1963C0.473188 52.7444 0.0567842 51.6968 0.208204 50.9617C0.908519 47.5616 11.0158 31.7558 16.0694 28.7784C17.8486 27.5654 19.3817 27.1243 20.5741 27.5103C21.8044 27.9146 22.2019 29.0174 22.2208 29.0541C22.2965 29.293 22.164 29.5687 21.918 29.6422C21.6719 29.7158 21.4069 29.5871 21.3123 29.3482C21.2934 29.3114 21.0473 28.613 20.2713 28.3741C19.3817 28.0984 18.1136 28.5028 16.5994 29.532C11.7918 32.3807 1.79811 47.9292 1.13565 51.1455C1.09779 51.3476 1.11672 52.0276 2.2713 53.6634C5.88644 58.8278 16.4101 67.7048 19.571 68.2745C21.8233 68.6788 22.7129 67.7967 23.5836 66.9512C24.265 66.2896 24.9653 65.5912 26.1956 65.7199C27.4448 65.8485 28.2965 67.1902 28.3155 67.2453C28.448 67.4658 28.3722 67.7599 28.1451 67.8885C27.918 68.0172 27.6341 67.9437 27.4827 67.7231C27.3123 67.4475 26.7256 66.7123 26.082 66.6388C25.3438 66.5653 24.9274 66.9329 24.2461 67.5945C23.489 68.3848 22.5426 69.3037 20.6498 69.3037Z" fill="#FFE5DE"/>
<path d="M20.6499 69.4693C20.2524 69.4693 19.836 69.4326 19.3817 69.3591C15.6152 68.6974 4.95901 59.4345 1.34386 54.3068C0.302855 52.8181 -0.132477 51.7338 0.0378704 50.9619C0.738186 47.5434 10.9022 31.6641 15.9748 28.6684C17.7918 27.4186 19.3628 26.9775 20.6309 27.3819C21.9369 27.8046 22.3533 28.9808 22.3723 29.036C22.4858 29.3668 22.2965 29.716 21.9559 29.8262C21.6152 29.9365 21.2555 29.7527 21.142 29.4403C21.123 29.3668 20.877 28.7787 20.1956 28.5765C19.3628 28.3192 18.1325 28.7051 16.6751 29.716C11.9243 32.5279 1.94954 47.9845 1.28708 51.2008C1.24923 51.3478 1.24923 51.9543 2.4038 53.6084C6.01894 58.7545 16.4669 67.5763 19.6088 68.1461C21.7666 68.532 22.5994 67.7234 23.47 66.8779C24.1514 66.2163 24.9085 65.4811 26.2145 65.6098C27.5205 65.7384 28.3723 67.0617 28.4669 67.2088C28.6562 67.5028 28.5426 67.8888 28.2398 68.0726C28.0883 68.1645 27.918 68.1828 27.7477 68.1461C27.5773 68.1093 27.4448 67.999 27.3502 67.852C27.1988 67.6131 26.6309 66.8963 26.0631 66.8412C25.4006 66.7677 25.0221 67.1169 24.3786 67.7601C23.5836 68.5136 22.5994 69.4693 20.6499 69.4693ZM19.6467 27.5473C18.6435 27.5473 17.489 28.0067 16.1451 28.9257C11.1104 31.9031 1.04103 47.6169 0.34071 51.017C0.208217 51.697 0.605694 52.7079 1.58992 54.123C5.16721 59.2323 15.6909 68.385 19.4006 69.0466C19.8171 69.1201 20.2335 69.1569 20.612 69.1569C22.429 69.1569 23.3186 68.2747 24.1136 67.5028C24.795 66.8228 25.2682 66.4185 26.082 66.492C26.9338 66.5839 27.6152 67.6315 27.6152 67.6498C27.7098 67.7969 27.8991 67.8336 28.0505 67.7601C28.2019 67.6682 28.2398 67.4844 28.1641 67.3374C28.1262 67.2823 27.3312 66.0141 26.1577 65.8855C25.0221 65.7752 24.3786 66.4001 23.6972 67.0617C22.8454 67.8888 21.8801 68.8445 19.5331 68.4218C16.3344 67.852 5.75396 58.9383 2.11989 53.7555C0.965315 52.1197 0.908533 51.3846 0.965315 51.1089C1.62778 47.8559 11.6972 32.2339 16.4858 29.4035C18.0379 28.3376 19.3628 27.9332 20.2902 28.2273C21.123 28.4846 21.407 29.2197 21.4448 29.2933C21.5016 29.4587 21.6719 29.5506 21.8423 29.4771C22.0126 29.4219 22.0883 29.2565 22.0505 29.0911C22.0316 29.0543 21.6719 28.0067 20.5174 27.6392C20.2524 27.584 19.9685 27.5473 19.6467 27.5473Z" fill="#FFE5DE"/>
<path d="M29.6404 67.9623C29.489 67.9623 29.3186 67.8888 29.2429 67.7418C28.183 66.0877 27.5205 63.6984 27.4827 63.5881C27.4259 63.3308 27.5773 63.0919 27.8234 63.0184C28.0694 62.9633 28.3344 63.1103 28.4101 63.3492C28.4101 63.3676 29.0537 65.7201 30.0379 67.2455C30.1893 67.4661 30.1136 67.7418 29.8865 67.8888C29.8108 67.9439 29.735 67.9623 29.6404 67.9623Z" fill="#FFE5DE"/>
<path d="M29.6404 68.1276C29.4132 68.1276 29.205 68.0173 29.0915 67.8336C27.9937 66.1427 27.3312 63.6616 27.3123 63.6432C27.2744 63.4778 27.2934 63.3124 27.388 63.1653C27.4637 63.0183 27.6151 62.9264 27.7855 62.8713C27.9558 62.8345 28.1262 62.8529 28.2776 62.9448C28.429 63.0367 28.5426 63.1653 28.5804 63.3307C28.5994 63.4226 29.2429 65.6832 30.1893 67.1719C30.3785 67.466 30.2839 67.8519 29.9811 68.0357C29.8864 68.0909 29.7729 68.1276 29.6404 68.1276ZM27.9558 63.1837C27.9369 63.1837 27.8991 63.1837 27.8801 63.2021C27.8044 63.2205 27.7287 63.2756 27.6908 63.3491C27.653 63.4226 27.6341 63.4961 27.653 63.5697C27.653 63.588 28.3155 66.0324 29.3943 67.6681C29.489 67.7968 29.6782 67.8519 29.8297 67.76C29.9811 67.6681 30.0189 67.4844 29.9243 67.3373C28.9401 65.8119 28.2965 63.4961 28.2587 63.4043C28.2397 63.3307 28.183 63.2572 28.1073 63.2205C28.0505 63.2021 28.0126 63.1837 27.9558 63.1837Z" fill="#FFE5DE"/>
<path d="M30.7003 66.2347C30.4353 66.2347 30.2271 66.0325 30.2271 65.7752C30.2271 65.7568 30.2271 64.7276 30.0947 63.9557C30.0379 63.5881 28.8454 62.5773 27.8044 61.8973C27.5962 61.7502 27.5205 61.4562 27.6719 61.254C27.8234 61.0518 28.1262 60.9967 28.3344 61.1254C28.9212 61.5113 30.8707 62.8713 31.0221 63.8087C31.1546 64.6541 31.1546 65.7201 31.1546 65.7752C31.1924 66.0141 30.9653 66.2347 30.7003 66.2347Z" fill="#FFE5DE"/>
<path d="M30.7004 66.4C30.3407 66.4 30.0568 66.1243 30.0568 65.7751C30.0568 65.7567 30.0568 64.7459 29.9243 63.9923C29.8865 63.735 28.8833 62.8161 27.7098 62.0442C27.407 61.8604 27.3313 61.456 27.5395 61.1804C27.7477 60.8863 28.1452 60.8128 28.4291 61.015C29.2051 61.5296 31.0221 62.8345 31.1925 63.8085C31.3439 64.654 31.3439 65.7567 31.3439 65.7934C31.3439 66.1059 31.06 66.4 30.7004 66.4ZM28.0884 61.1987C27.9937 61.1987 27.8991 61.2539 27.8234 61.3274C27.7287 61.456 27.7666 61.6582 27.8991 61.7501C28.6373 62.2279 30.1704 63.4042 30.2461 63.9188C30.3786 64.7091 30.3786 65.7567 30.3786 65.7567C30.3786 65.9221 30.5111 66.0507 30.6814 66.0507C30.8518 66.0507 30.9843 65.9221 30.9843 65.7567C30.9843 65.7199 30.9843 64.654 30.8518 63.8269C30.7382 63.1285 29.4133 62.0442 28.2398 61.2539C28.2019 61.2171 28.1452 61.1987 28.0884 61.1987Z" fill="#FFE5DE"/>
<path d="M31.4953 63.3123C31.2871 63.3123 31.0789 63.1653 31.0221 62.9631L30.795 62.0074C30.4732 61.7501 29.4701 60.9966 28.5805 60.8679C27.3691 60.7025 24.795 60.5922 24.7571 60.5922C24.4922 60.5738 24.2839 60.3717 24.3029 60.1144C24.3218 59.8571 24.53 59.6549 24.795 59.6733C24.9086 59.6733 27.4638 59.7836 28.713 59.9673C30.0947 60.1511 31.4764 61.3641 31.5332 61.4193C31.6089 61.4928 31.6657 61.5663 31.6846 61.6582L31.9496 62.7609C32.0063 63.0182 31.8549 63.2571 31.5899 63.3123C31.571 63.3123 31.5332 63.3123 31.4953 63.3123Z" fill="#FFE5DE"/>
<path d="M31.4953 63.4777C31.1925 63.4777 30.9464 63.2755 30.8707 62.9998L30.6436 62.0993C30.3218 61.842 29.3754 61.1436 28.5426 61.0333C27.3502 60.8679 24.7761 60.7576 24.7382 60.7576C24.3786 60.7393 24.1136 60.4452 24.1136 60.096C24.1136 59.9306 24.1893 59.7652 24.3218 59.6549C24.4543 59.5446 24.6057 59.4895 24.7761 59.4895C24.795 59.4895 27.4259 59.5998 28.713 59.7836C30.0947 59.9857 31.4764 61.1436 31.6278 61.2722C31.7224 61.3641 31.7981 61.4744 31.8171 61.5847L32.0821 62.6874C32.1578 63.0182 31.9496 63.3674 31.6089 63.4409C31.5899 63.4593 31.5521 63.4777 31.4953 63.4777ZM24.7761 59.8203C24.7004 59.8203 24.6246 59.8571 24.5679 59.8938C24.5111 59.949 24.4732 60.0225 24.4732 60.1144C24.4732 60.1879 24.4922 60.2798 24.5489 60.3349C24.6057 60.3901 24.6814 60.4268 24.7571 60.4268C24.7761 60.4268 27.3691 60.5371 28.5994 60.7025C29.5269 60.8311 30.5111 61.5663 30.9086 61.8787L30.9464 61.9155L31.1925 62.9263C31.2303 63.0917 31.4007 63.1836 31.571 63.1469C31.7414 63.1101 31.836 62.9447 31.7981 62.7793L31.5332 61.6766C31.5142 61.6214 31.4953 61.5663 31.4385 61.5295C31.3817 61.4744 30 60.2982 28.694 60.1144C27.4259 59.9306 24.8139 59.8203 24.7761 59.8203C24.795 59.8203 24.7761 59.8203 24.7761 59.8203Z" fill="#FFE5DE"/>
<path d="M19.1924 63.4044C19.0032 63.4044 18.8328 63.3676 18.6814 63.2941C16.1073 61.9892 8.68771 52.7079 8.36595 52.3036C8.1956 52.1014 8.23345 51.8074 8.44166 51.6603C8.64986 51.4949 8.9527 51.5317 9.10412 51.7338C11.2051 54.3804 17.1104 61.4562 19.0978 62.4671C19.4764 62.6325 21.2745 61.7135 22.8833 60.5373C23.0915 60.3719 23.3943 60.427 23.5458 60.6292C23.6972 60.8313 23.6593 61.1254 23.4511 61.2724C22.5426 61.9708 20.4417 63.4044 19.1924 63.4044Z" fill="#FFE5DE"/>
<path d="M19.1924 63.5512C18.9653 63.5512 18.776 63.5144 18.6057 63.4225C16.0126 62.0993 8.55521 52.7812 8.23345 52.3952C8.02524 52.1196 8.0631 51.7336 8.34701 51.5131C8.63092 51.3109 9.0284 51.3477 9.25553 51.6233C11.3565 54.2515 17.2429 61.309 19.1924 62.3198C19.4196 62.3933 20.9527 61.7501 22.7887 60.4084C22.9211 60.3165 23.0915 60.2614 23.2618 60.2798C23.4322 60.2981 23.5836 60.39 23.6782 60.5187C23.7729 60.6473 23.8297 60.8127 23.8107 60.9782C23.7918 61.1436 23.6972 61.2906 23.5647 61.3825C22.4858 62.2095 20.4606 63.5512 19.1924 63.5512ZM8.76342 51.7152C8.68771 51.7152 8.63092 51.7336 8.57414 51.7704C8.44165 51.8806 8.42272 52.0644 8.51736 52.1931C8.83912 52.579 16.2398 61.842 18.776 63.1285C18.8896 63.1836 19.041 63.2204 19.2114 63.2204C20.4227 63.2204 22.5426 61.7684 23.3943 61.1436C23.47 61.0884 23.5079 61.0149 23.5079 60.9414C23.5268 60.8679 23.489 60.776 23.4511 60.7209C23.3943 60.6657 23.3186 60.6106 23.2429 60.6106C23.1672 60.6106 23.0726 60.629 23.0158 60.6657C21.7476 61.5847 19.6278 62.8528 19.0599 62.6139C17.0347 61.5847 11.1104 54.4904 9.00947 51.8255C8.95269 51.752 8.85805 51.7152 8.76342 51.7152Z" fill="#FFE5DE"/>
<path d="M8.7634 50.6859C8.68769 50.6859 8.59305 50.6676 8.51734 50.6308C8.29021 50.5021 8.2145 50.2265 8.34699 50.0059C8.63091 49.5097 15.4826 38.0781 20.9527 36.8834C21.2177 36.8283 21.4637 36.9937 21.5205 37.2326C21.5773 37.4899 21.4259 37.7289 21.1609 37.784C16.1072 38.8867 9.23658 50.3551 9.1798 50.4654C9.08516 50.594 8.91482 50.6859 8.7634 50.6859Z" fill="#FFE5DE"/>
<path d="M8.76344 50.8513C8.64987 50.8513 8.53631 50.8146 8.44167 50.7595C8.13883 50.594 8.02527 50.2081 8.21454 49.914C8.49846 49.4178 15.388 37.931 20.9338 36.718C21.1041 36.6813 21.2745 36.718 21.4259 36.7916C21.5773 36.8834 21.672 37.0121 21.7098 37.1775C21.7477 37.3429 21.7098 37.5083 21.6341 37.6554C21.5395 37.8024 21.407 37.8943 21.2366 37.931C16.183 39.0154 9.38804 50.4103 9.31234 50.5389C9.19877 50.7227 8.99057 50.8513 8.76344 50.8513ZM21.0474 37.0121C21.0284 37.0121 21.0095 37.0121 20.9716 37.0305C15.5773 38.2067 8.76344 49.5832 8.47953 50.0794C8.38489 50.2265 8.44167 50.4103 8.59309 50.4838C8.74451 50.5573 8.93379 50.5205 9.02842 50.3735C9.10413 50.2632 15.9748 38.7397 21.1231 37.6186C21.1988 37.6002 21.2745 37.5451 21.3123 37.4899C21.3502 37.4164 21.3691 37.3429 21.3502 37.2694C21.3313 37.1959 21.2745 37.1224 21.2177 37.0856C21.1609 37.0305 21.1041 37.0121 21.0474 37.0121Z" fill="#FFE5DE"/>
<path d="M18.0189 62.1544C17.9432 62.1544 17.8864 62.136 17.8107 62.1177C17.5647 62.0074 17.47 61.7317 17.5836 61.4928C17.6782 61.309 18.53 59.5998 19.5899 59.2506C19.836 59.1587 20.1009 59.3057 20.1956 59.5446C20.2902 59.7835 20.1577 60.0592 19.8927 60.1327C19.4006 60.2982 18.7571 61.2539 18.4353 61.8971C18.3596 62.0625 18.1893 62.1544 18.0189 62.1544Z" fill="#FFE5DE"/>
<path d="M18 62.3198C17.9054 62.3198 17.8107 62.3015 17.735 62.2647C17.4133 62.1177 17.2808 61.7501 17.4322 61.4377C17.5836 61.1068 18.4353 59.4711 19.5331 59.1035C19.7035 59.0484 19.8738 59.0484 20.0252 59.1403C20.1767 59.2322 20.2902 59.3425 20.347 59.5079C20.4606 59.8387 20.2902 60.1879 19.9495 60.2982C19.571 60.4268 18.9464 61.2722 18.5868 61.9706C18.4921 62.1912 18.265 62.3198 18 62.3198ZM19.7413 59.3976C19.7035 59.3976 19.6656 59.3976 19.6467 59.416C18.6625 59.7468 17.8297 61.3825 17.735 61.5847C17.6593 61.7317 17.735 61.9155 17.8864 61.989C18.0379 62.0625 18.2271 61.989 18.3028 61.842C18.6057 61.2171 19.2871 60.1879 19.8549 59.9857C20.0063 59.9306 20.101 59.7652 20.0442 59.5998C20.0252 59.5263 19.9685 59.4527 19.8928 59.4344C19.836 59.3976 19.7981 59.3976 19.7413 59.3976Z" fill="#FFE5DE"/>
<path d="M20.4985 61.3459H20.4795C20.2145 61.3275 20.0063 61.1253 20.0253 60.868C20.4227 52.8365 14.8581 44.6763 14.8202 44.6028C14.6688 44.3822 14.7256 44.1065 14.9527 43.9595C15.1798 43.8125 15.4638 43.8676 15.6152 44.0882C15.8423 44.4374 21.407 52.5792 20.9906 60.9232C20.9716 61.1437 20.7445 61.3459 20.4985 61.3459Z" fill="#FFE5DE"/>
<path d="M20.4985 61.5113H20.4606C20.101 61.4929 19.836 61.1988 19.8549 60.8496C20.2524 52.8365 14.7256 44.7682 14.6688 44.6763C14.5742 44.5293 14.5363 44.3638 14.5742 44.1984C14.612 44.033 14.7067 43.886 14.8392 43.7941C15.142 43.6103 15.5395 43.7022 15.7477 43.9779C15.9748 44.3271 21.5584 52.524 21.142 60.9048C21.1231 61.2356 20.8392 61.5113 20.4985 61.5113ZM15.1988 44.033C15.142 44.033 15.0852 44.0514 15.0284 44.0882C14.9527 44.1249 14.9149 44.1984 14.8959 44.272C14.877 44.3455 14.8959 44.4374 14.9338 44.4925C14.9906 44.566 20.5742 52.7262 20.1767 60.8496C20.1578 61.0151 20.3092 61.1621 20.4795 61.1621L20.4985 61.3275V61.1621C20.6688 61.1621 20.8013 61.0334 20.8013 60.868C21.1988 52.5976 15.6909 44.4741 15.4638 44.1433C15.407 44.0698 15.3123 44.033 15.1988 44.033Z" fill="#FFE5DE"/>
<path d="M18.53 44.3086C18.1704 44.3086 17.8297 44.2719 17.5079 44.18C16.2209 43.8124 15.7477 42.8383 15.7287 42.8016C15.6152 42.5627 15.7287 42.287 15.9559 42.1951C16.183 42.0848 16.4669 42.1951 16.5805 42.4156C16.6183 42.434 16.9401 43.0589 17.7918 43.2978C18.8707 43.5919 20.366 43.1692 22.1073 42.0848C26.5552 39.3096 22.6373 30.7818 22.5994 30.6899C22.4858 30.451 22.5994 30.1753 22.8455 30.0834C23.0915 29.9732 23.3754 30.0834 23.4701 30.3224C23.6404 30.7083 27.7666 39.6772 22.6183 42.8751C21.0852 43.8308 19.7035 44.3086 18.53 44.3086Z" fill="#FFE5DE"/>
<path d="M18.53 44.4741C18.1514 44.4741 17.7918 44.419 17.4511 44.3271C16.1262 43.9411 15.6152 42.9671 15.5584 42.8568C15.407 42.5443 15.5584 42.1768 15.8802 42.0297C16.2019 41.8827 16.5805 42.0297 16.7319 42.3422C16.7508 42.3606 17.0347 42.9303 17.8297 43.1508C18.8518 43.4265 20.3092 43.0222 22.0126 41.9562C26.3281 39.2729 22.4858 30.8554 22.448 30.7635C22.2966 30.4511 22.448 30.0835 22.7697 29.9365C23.0915 29.7895 23.4701 29.9365 23.6215 30.2489C23.8108 30.6349 27.9748 39.7324 22.713 43.0038C21.1609 43.9779 19.7414 44.4741 18.53 44.4741ZM16.1641 42.3054C16.1262 42.3054 16.0694 42.3238 16.0316 42.3422C15.9559 42.3789 15.8991 42.4341 15.8612 42.5076C15.8423 42.5811 15.8423 42.673 15.8802 42.7281C15.8991 42.7649 16.3533 43.6838 17.5647 44.0147C18.8896 44.3822 20.5742 43.9411 22.5615 42.7281C27.5773 39.6037 23.5268 30.7452 23.3376 30.3776C23.2619 30.2305 23.0726 30.157 22.9212 30.2305C22.8455 30.2673 22.7887 30.3224 22.7508 30.396C22.7319 30.4695 22.7319 30.543 22.7508 30.6165C22.7887 30.7084 26.7634 39.3832 22.2019 42.2135C20.4038 43.3346 18.8707 43.7573 17.754 43.4449C16.8265 43.1876 16.4858 42.5443 16.448 42.4708C16.3912 42.3606 16.2776 42.3054 16.1641 42.3054Z" fill="#FFE5DE"/>
<path d="M28.9779 47.0103C28.5804 47.0103 28.2019 46.9552 27.8423 46.8633C25.6467 46.2568 24.6057 44.0881 24.5489 43.9962C24.4353 43.7573 24.5489 43.4816 24.776 43.3897C25.0221 43.2794 25.306 43.3897 25.4006 43.6102C25.4195 43.647 26.3091 45.4849 28.0883 45.9627C29.205 46.2752 30.4732 45.9627 31.817 45.0805C32.0442 44.9335 32.3281 44.9886 32.4795 45.2092C32.6309 45.4114 32.5741 45.7054 32.347 45.8525C31.1924 46.6244 30.0568 47.0103 28.9779 47.0103Z" fill="#FFE5DE"/>
<path d="M28.9779 47.1757C28.5805 47.1757 28.183 47.1206 27.7855 47.0103C25.5142 46.3854 24.4354 44.1616 24.3975 44.0697C24.2461 43.7572 24.3975 43.3897 24.7193 43.2426C25.041 43.0956 25.4196 43.2426 25.571 43.5551C25.571 43.5735 26.4606 45.3562 28.1451 45.8157C29.224 46.1097 30.4164 45.8157 31.7414 44.9519C31.8928 44.86 32.0442 44.8232 32.2335 44.86C32.4038 44.8967 32.5552 44.9886 32.6499 45.1173C32.7445 45.2643 32.7824 45.4297 32.7445 45.5951C32.7066 45.7605 32.612 45.9076 32.4795 45.9995C31.2682 46.7714 30.0947 47.1757 28.9779 47.1757ZM24.9842 43.4999C24.9464 43.4999 24.8896 43.5183 24.8518 43.5367C24.7003 43.6102 24.6246 43.794 24.7003 43.941C24.7382 44.0329 25.7603 46.1281 27.8801 46.7162C29.224 47.0838 30.7193 46.753 32.2713 45.7238C32.347 45.687 32.3849 45.6135 32.4038 45.54C32.4227 45.4665 32.4038 45.3746 32.347 45.3194C32.3092 45.2459 32.2335 45.2092 32.1578 45.1908C32.082 45.1724 31.9874 45.1908 31.9306 45.2459C30.53 46.1649 29.224 46.4773 28.0505 46.1465C26.2145 45.6503 25.306 43.794 25.2682 43.7021C25.2114 43.5735 25.0978 43.4999 24.9842 43.4999Z" fill="#FFE5DE"/>
<path d="M35.3375 35.4867C35.1104 35.4867 34.9022 35.3213 34.8643 35.0824C34.164 30.065 29.47 26.8671 29.4132 26.8487C29.205 26.7017 29.1293 26.4076 29.2808 26.2054C29.4322 26.0033 29.735 25.9481 29.9432 26.0768C30.1514 26.2238 35.0347 29.5136 35.7918 34.9721C35.8296 35.2294 35.6404 35.45 35.3754 35.4867C35.3754 35.4867 35.3565 35.4867 35.3375 35.4867Z" fill="#FFE5DE"/>
<path d="M35.3375 35.6338C35.0158 35.6338 34.7319 35.3949 34.694 35.1008C34.0126 30.1569 29.3565 26.9957 29.3186 26.959C29.1672 26.8671 29.0915 26.7201 29.0536 26.5547C29.0158 26.3892 29.0536 26.2238 29.1483 26.0768C29.2429 25.9298 29.3943 25.8379 29.5647 25.8195C29.735 25.7827 29.9054 25.8195 30.0379 25.9114C30.2461 26.0584 35.205 29.385 35.9621 34.917C36 35.2662 35.7539 35.5787 35.4132 35.6154C35.3943 35.6338 35.3754 35.6338 35.3375 35.6338ZM29.6972 26.1503C29.6782 26.1503 29.6593 26.1503 29.6404 26.1503C29.5647 26.1687 29.489 26.2055 29.4322 26.279C29.3943 26.3525 29.3754 26.426 29.3754 26.4995C29.3943 26.573 29.4322 26.6466 29.5079 26.7017C29.5647 26.7384 34.3344 29.9731 35.0158 35.064C35.0347 35.2295 35.1861 35.3397 35.3565 35.3214C35.5268 35.303 35.6404 35.1559 35.6214 34.9905C34.8833 29.6055 30.0379 26.3525 29.8486 26.2055C29.8107 26.1687 29.7539 26.1503 29.6972 26.1503Z" fill="#FFE5DE"/>
<path d="M32.7634 61.8053C32.4984 61.8053 32.2902 61.6032 32.2902 61.3459C32.2902 61.0886 32.4984 60.8864 32.7634 60.868C36 60.8129 36.9842 60.2431 37.2492 59.9858C36.8706 59.3426 36.3218 57.6333 36.1325 53.1305C35.9432 48.5358 36.8896 47.2677 38.0631 45.6687C38.5173 45.0439 38.9905 44.419 39.4637 43.4817C40.8265 40.7984 39.4069 39.2729 37.6088 37.3615C37.3628 37.0858 37.1167 36.8285 36.8517 36.5529C36.6814 36.3691 36.7003 36.075 36.9085 35.8912C37.0978 35.7258 37.4006 35.7442 37.5899 35.928C37.8359 36.2037 38.082 36.461 38.3281 36.7366C40.2019 38.7583 41.9811 40.6513 40.3154 43.9044C39.8044 44.8968 39.2934 45.5952 38.8202 46.2201C37.7035 47.7272 36.8896 48.8115 37.0599 53.0938C37.2871 58.4972 38.0252 59.508 38.1009 59.5999C38.2145 59.6918 38.2713 59.8388 38.2713 59.9858C38.2713 60.3902 37.7981 61.7318 32.7634 61.8053Z" fill="#FFE5DE"/>
<path d="M32.7824 61.9707C32.4227 61.9707 32.1388 61.695 32.1199 61.3458C32.1199 61.1804 32.1767 61.015 32.3092 60.9047C32.4227 60.7944 32.5931 60.7209 32.7634 60.7209C35.6593 60.6842 36.7003 60.1879 37.041 59.949C36.6246 59.1587 36.1515 57.3392 35.9811 53.1488C35.7918 48.499 36.7382 47.2125 37.9496 45.5951C38.4038 44.9703 38.877 44.3454 39.3502 43.4264C40.6751 40.8534 39.3502 39.4382 37.5332 37.4717C37.2871 37.196 37.041 36.9387 36.7761 36.663C36.6625 36.5344 36.6057 36.369 36.6246 36.2036C36.6436 36.0382 36.7193 35.8911 36.8518 35.7809C37.1167 35.5603 37.5332 35.5787 37.7603 35.836C38.0063 36.1117 38.2524 36.369 38.4985 36.6263C40.4101 38.6847 42.2272 40.6329 40.5237 43.9778C40.0126 44.9886 39.4827 45.687 39.0095 46.3119C37.9117 47.7822 37.1168 48.8482 37.2871 53.0753C37.5142 58.5155 38.2524 59.4528 38.2903 59.4895C38.4227 59.5998 38.4985 59.7836 38.4985 59.9858C38.4227 60.5555 37.7981 61.8788 32.7824 61.9707ZM37.2492 35.9463C37.1735 35.9463 37.0978 35.9646 37.041 36.0198C36.9843 36.0749 36.9464 36.1484 36.9275 36.222C36.9275 36.2955 36.9464 36.3874 37.0032 36.4425C37.2492 36.7182 37.5142 36.9939 37.7603 37.2512C39.5205 39.1442 41.0537 40.7799 39.6341 43.5551C39.1609 44.4924 38.6688 45.1357 38.2145 45.7606C37.041 47.3411 36.1136 48.5725 36.3029 53.1121C36.4921 57.7068 37.06 59.3241 37.4007 59.8755L37.4574 59.9858L37.3628 60.0776C37.0032 60.4085 35.9432 60.9598 32.7634 61.015C32.6877 61.015 32.5931 61.0517 32.5552 61.1069C32.4985 61.162 32.4606 61.2355 32.4606 61.3274C32.4606 61.4928 32.612 61.6215 32.7634 61.6215C37.7603 61.548 38.101 60.2247 38.101 59.949C38.101 59.8571 38.0631 59.7652 37.9874 59.7101C37.9685 59.6917 37.9685 59.6917 37.9496 59.6733L37.9306 59.6917L37.9496 59.6733C37.9306 59.6549 37.9306 59.6366 37.9117 59.6182L37.8928 59.6366L37.9117 59.6182C37.6846 59.2506 37.0789 57.8722 36.8896 53.0937C36.7193 48.7563 37.5332 47.6536 38.6688 46.1281C39.1231 45.5216 39.653 44.8232 40.1451 43.8308C41.754 40.688 40.0126 38.8134 38.1767 36.8468C37.9306 36.5895 37.6846 36.3138 37.4385 36.0382C37.4196 35.983 37.325 35.9463 37.2492 35.9463Z" fill="#FFE5DE"/>
<path d="M34.7508 70.3145C34.5237 70.3145 34.3155 70.1491 34.2776 69.9286C34.2587 69.855 33.9559 68.0907 34.2776 66.3631C34.5805 64.6906 35.2619 62.3013 35.2808 62.1911C35.3565 61.9338 35.6026 61.8051 35.8676 61.8603C36.1136 61.9338 36.265 62.1911 36.2082 62.43C36.2082 62.4484 35.5269 64.8744 35.224 66.5101C34.9401 68.0907 35.224 69.7448 35.224 69.7631C35.2619 70.0204 35.0915 70.2594 34.8265 70.2961C34.8076 70.3145 34.7698 70.3145 34.7508 70.3145Z" fill="#FFE5DE"/>
<path d="M34.7508 70.48C34.429 70.48 34.1641 70.2595 34.1073 69.9654C34.0694 69.7816 33.7855 68.054 34.1073 66.3448C34.4101 64.7274 35.0347 62.4301 35.1104 62.1728C35.2051 61.842 35.5647 61.6398 35.9054 61.7317C36.2461 61.8236 36.4543 62.1728 36.3596 62.5036C36.3596 62.522 35.6783 64.9296 35.3754 66.5837C35.0915 68.1091 35.3565 69.7081 35.3754 69.7816C35.4322 70.1308 35.2051 70.4432 34.8454 70.4984C34.8265 70.48 34.7887 70.48 34.7508 70.48ZM35.754 62.0257C35.6215 62.0257 35.489 62.1176 35.4511 62.2463C35.3754 62.5036 34.7508 64.7826 34.448 66.3999C34.1451 68.0908 34.429 69.8367 34.448 69.9103C34.4858 70.0757 34.6372 70.1859 34.8076 70.1492C34.9779 70.1124 35.0915 69.9654 35.0536 69.8C35.0347 69.7265 34.7697 68.0724 35.0536 66.4918C35.3565 64.8377 36.0379 62.4117 36.0379 62.3933C36.0757 62.2279 35.9811 62.0625 35.8107 62.0257C35.8107 62.0257 35.7729 62.0257 35.754 62.0257Z" fill="#FFE5DE"/>
<path d="M38.0252 27.8228C37.9117 27.8228 37.817 27.7861 37.7224 27.7126C35.2051 25.7276 31.9306 26.5731 31.8928 26.5731C31.6278 26.6466 31.3817 26.4996 31.306 26.2423C31.2303 25.9849 31.3817 25.746 31.6467 25.6725C31.7981 25.6358 35.4322 24.7168 38.3281 26.9774C38.5363 27.1428 38.5552 27.4369 38.4038 27.6207C38.2902 27.7677 38.1577 27.8228 38.0252 27.8228Z" fill="#FFE5DE"/>
<path d="M38.0253 27.9881C37.8739 27.9881 37.7414 27.9329 37.6278 27.8594C35.1862 25.948 31.9874 26.7383 31.9496 26.7567C31.7792 26.7934 31.6089 26.7751 31.4574 26.7015C31.306 26.6097 31.1925 26.481 31.1546 26.3156C31.06 25.9848 31.2682 25.6356 31.6089 25.5437C31.7603 25.5069 35.4701 24.5696 38.4227 26.8853C38.5552 26.9956 38.6499 27.1426 38.6499 27.308C38.6688 27.4735 38.612 27.6389 38.5174 27.7675C38.4038 27.8962 38.2145 27.9881 38.0253 27.9881ZM33.5773 26.2421C34.7887 26.2421 36.4164 26.4994 37.8171 27.5837C37.9496 27.694 38.1578 27.6572 38.2524 27.547C38.3092 27.4918 38.3281 27.3999 38.3092 27.3264C38.3092 27.2529 38.2524 27.1794 38.1956 27.1243C35.3754 24.9004 31.8171 25.801 31.6656 25.8377C31.4953 25.8745 31.4007 26.0399 31.4385 26.2053C31.4574 26.2788 31.5142 26.3524 31.5899 26.3891C31.6657 26.4259 31.7414 26.4442 31.8171 26.4259C31.8738 26.4075 32.5742 26.2421 33.5773 26.2421Z" fill="#FFE5DE"/>
<path d="M39.2934 27.106C39.0662 27.106 38.858 26.9406 38.8202 26.7016C38.7823 26.4443 38.9716 26.2054 39.2366 26.187C39.3123 26.1687 46.7886 25.2313 51.3501 25.3232C51.6151 25.3232 51.8233 25.5438 51.8233 25.8011C51.8233 26.0584 51.5962 26.2422 51.3312 26.2606C46.8643 26.1687 39.4448 27.106 39.3691 27.106C39.3312 27.106 39.3123 27.106 39.2934 27.106Z" fill="#FFE5DE"/>
<path d="M39.2934 27.2714C38.9716 27.2714 38.6877 27.0325 38.6498 26.72C38.6309 26.5546 38.6688 26.3892 38.7823 26.2606C38.8959 26.1319 39.0473 26.04 39.2177 26.0216C39.5205 25.9849 46.8643 25.0659 51.3501 25.1578C51.5205 25.1578 51.6908 25.2313 51.8044 25.36C51.918 25.4703 51.9937 25.6357 51.9747 25.8011C51.9747 26.1319 51.6719 26.4076 51.3123 26.4076C46.8454 26.2973 39.4448 27.253 39.3691 27.253C39.3501 27.2714 39.3123 27.2714 39.2934 27.2714ZM50.612 25.4703C46.1072 25.4703 39.5394 26.2973 39.2555 26.3341C39.1798 26.3524 39.1041 26.3892 39.0473 26.4443C38.9905 26.4995 38.9716 26.5914 38.9905 26.6649C39.0095 26.8303 39.1798 26.9406 39.3312 26.9222C39.4069 26.9038 46.8265 25.9665 51.3123 26.0768C51.4826 26.0768 51.6341 25.9481 51.6341 25.7827C51.6341 25.7092 51.5962 25.6173 51.5583 25.5622C51.5016 25.507 51.4259 25.4703 51.3312 25.4703C51.1041 25.4703 50.858 25.4703 50.612 25.4703Z" fill="#FFE5DE"/>
<path d="M50.9905 24.9925C50.7634 24.9925 50.5552 24.8271 50.5173 24.5882C50.5173 24.5698 50.1388 21.9233 48.3785 17.8616C46.3533 13.1933 45.5016 11.7598 45.1609 11.3371C44.2334 12.0355 41.7918 13.0831 40.7508 13.0279C39.5584 12.9544 38.2334 11.3187 37.9874 10.9879C37.8549 10.7673 37.8927 10.4733 38.1009 10.3262C38.3091 10.1792 38.612 10.216 38.7634 10.4181C39.2934 11.0982 40.2587 12.0539 40.8265 12.0906C41.6782 12.1458 44.3091 10.9511 44.7256 10.4917C44.858 10.3446 45.0662 10.2711 45.2744 10.3079C45.7855 10.3814 46.4479 10.9879 49.2681 17.5124C51.0852 21.7027 51.4448 24.3677 51.4637 24.4779C51.5016 24.7352 51.3123 24.9558 51.0473 24.9925C51.0284 24.9925 51.0095 24.9925 50.9905 24.9925Z" fill="#FFE5DE"/>
<path d="M50.9905 25.158C50.6688 25.158 50.3849 24.919 50.347 24.6066C50.3281 24.4963 49.9495 21.9049 48.2271 17.9167C46.3533 13.5793 45.5016 12.0722 45.123 11.5576C44.082 12.2744 41.7918 13.2301 40.7508 13.175C39.5205 13.1015 38.2334 11.5393 37.8738 11.0614C37.7792 10.9328 37.7224 10.7673 37.7413 10.6019C37.7603 10.4365 37.8549 10.2895 37.9874 10.1976C38.1199 10.1057 38.2902 10.0506 38.4606 10.069C38.6309 10.0873 38.7823 10.1792 38.877 10.3079C39.4637 11.0614 40.3722 11.8885 40.8076 11.9252C41.6215 11.9803 44.1767 10.8041 44.5552 10.3814C44.7256 10.1792 44.9905 10.1057 45.2555 10.1425C45.8612 10.2344 46.5047 10.8225 49.3817 17.4389C51.1987 21.6292 51.5773 24.3309 51.5962 24.4596C51.6341 24.8088 51.388 25.1212 51.0473 25.158C51.0473 25.158 51.0095 25.158 50.9905 25.158ZM45.1987 11.0982L45.2934 11.2268C45.6719 11.7047 46.5615 13.2301 48.53 17.7881C50.2713 21.813 50.6498 24.4412 50.6688 24.5515C50.6877 24.7169 50.8391 24.8455 51.0095 24.8088C51.1798 24.7904 51.2934 24.6433 51.2744 24.4779C51.2555 24.3677 50.877 21.6844 49.0789 17.5491C46.2965 11.1165 45.6341 10.51 45.2177 10.4365C45.0662 10.4181 44.9338 10.4733 44.8202 10.5836C44.3849 11.0798 41.6972 12.2928 40.7886 12.2377C40.0694 12.2009 38.9716 10.9695 38.612 10.4917C38.5552 10.4181 38.4795 10.3814 38.4038 10.363C38.3281 10.3446 38.2334 10.3814 38.1767 10.4181C38.1199 10.4733 38.0631 10.5468 38.0631 10.6203C38.0631 10.6938 38.082 10.7857 38.1199 10.8409C38.8013 11.723 39.8991 12.7706 40.7508 12.8258C41.6972 12.8809 44.1388 11.8333 45.0473 11.1717L45.1987 11.0982Z" fill="#FFE5DE"/>
<path d="M41.224 11.0062C41.1483 11.0062 41.0915 11.0062 41.0347 10.9878C40.8265 10.9326 40.6562 10.7672 40.5994 10.5651C40.5426 10.3813 40.2208 10.1056 39.6909 9.9218C39.0473 9.71963 38.3849 9.75639 38.0252 10.0321C37.817 10.1975 37.5142 10.1607 37.3628 9.95856C37.1924 9.75639 37.2303 9.46233 37.4385 9.3153C38.0631 8.83745 39.0284 8.74556 40.0126 9.058C40.694 9.27854 41.2051 9.64612 41.4322 10.0688C42.7193 9.81153 48.4543 6.44821 49.2492 5.80495C49.3628 5.41899 48.8517 3.78328 48 2.79082C47.6593 2.40487 47.3186 2.2027 47.0915 2.25784C45.653 2.57028 44.0252 3.58111 44.0063 3.59949C43.7792 3.72814 43.4953 3.67301 43.3439 3.47084C43.1924 3.25029 43.2681 2.97461 43.4953 2.82758C43.571 2.77244 45.2934 1.70647 46.9022 1.35728C47.7729 1.17349 48.7192 1.87188 49.4763 3.28705C49.5331 3.37895 50.7823 5.71305 49.9495 6.46659C49.6278 6.72389 42.9464 11.0062 41.224 11.0062Z" fill="#FFE5DE"/>
<path d="M41.224 11.1716C41.1294 11.1716 41.0537 11.1533 40.9969 11.1349C40.713 11.0614 40.5237 10.8592 40.448 10.6019C40.429 10.51 40.1641 10.2527 39.653 10.0689C39.0473 9.88512 38.4606 9.9035 38.1388 10.1608C38.0063 10.2711 37.836 10.3078 37.6656 10.2895C37.4953 10.2711 37.3439 10.1792 37.2303 10.0505C37.1167 9.92188 37.0789 9.75647 37.0978 9.59106C37.1167 9.42565 37.2114 9.27862 37.3439 9.16834C38.0253 8.65374 39.0473 8.54346 40.0694 8.87428C40.713 9.09483 41.2429 9.44403 41.5079 9.86674C42.9085 9.46241 48.1325 6.44828 49.0789 5.69475C49.1167 5.30879 48.6625 3.80173 47.8486 2.88279C47.5079 2.47846 47.224 2.36819 47.1104 2.38656C45.6909 2.699 44.101 3.69146 44.082 3.70984C43.7792 3.89363 43.3817 3.82011 43.1925 3.52605C43.0032 3.23199 43.0789 2.84603 43.3817 2.66225C43.4574 2.60711 45.1988 1.52276 46.8455 1.17356C47.8108 0.971396 48.8139 1.70655 49.6089 3.19523C49.7414 3.45253 50.9527 5.74989 50.0442 6.55855C49.7981 6.7791 43.06 11.1716 41.224 11.1716ZM38.8959 9.62781C39.1609 9.62781 39.4637 9.66457 39.7477 9.77484C40.2776 9.94025 40.694 10.2527 40.7697 10.5284C40.8076 10.6754 40.9212 10.7857 41.0915 10.8408C41.1294 10.8592 41.1672 10.8592 41.2429 10.8592C42.8896 10.8592 49.571 6.57693 49.8171 6.35639C50.4038 5.8234 49.7414 4.16931 49.306 3.37902C48.5678 2.03737 47.6972 1.35735 46.9022 1.52276C45.3313 1.87196 43.6278 2.91955 43.5521 2.97469C43.4007 3.06658 43.3628 3.25037 43.4574 3.3974C43.5521 3.54443 43.7414 3.58119 43.8928 3.48929C43.9117 3.47091 45.5584 2.4417 47.0347 2.12926C47.3376 2.05575 47.7161 2.27629 48.1136 2.71738C48.9653 3.69146 49.5521 5.40069 49.4007 5.87854L49.3817 5.93367H49.3439C48.5868 6.55855 42.795 9.95863 41.4511 10.2343L41.3186 10.2527L41.2619 10.1424C41.0537 9.75647 40.5615 9.40727 39.9369 9.2051C39.0095 8.91104 38.1199 8.98456 37.5331 9.44403C37.4764 9.49916 37.4196 9.57268 37.4196 9.64619C37.4007 9.71971 37.4385 9.8116 37.4764 9.86674C37.5331 9.94025 37.6089 9.97701 37.6846 9.97701C37.7603 9.97701 37.8549 9.95863 37.9117 9.9035C38.1578 9.71971 38.4984 9.62781 38.8959 9.62781Z" fill="#FFE5DE"/>
<path d="M35.8486 13.0832C35.0915 13.0832 34.3723 12.881 33.8045 12.348C33.6152 12.1642 33.5963 11.8702 33.7855 11.6864C33.9748 11.5026 34.2776 11.5026 34.4669 11.668C35.3376 12.4583 36.8328 12.1458 37.836 11.6312C38.0631 11.521 38.366 11.5945 38.4795 11.8334C38.5931 12.0539 38.5174 12.348 38.2713 12.4583C37.5521 12.8259 36.6814 13.0832 35.8486 13.0832Z" fill="#FFE5DE"/>
<path d="M35.8486 13.2484C34.9779 13.2484 34.2397 12.9911 33.6909 12.4581C33.5584 12.3479 33.5016 12.1825 33.4827 12.017C33.4827 11.8516 33.5394 11.6862 33.653 11.576C33.8991 11.3187 34.3155 11.3187 34.5615 11.5576C35.3565 12.2927 36.776 11.9803 37.7413 11.5024C38.0631 11.337 38.4416 11.4657 38.612 11.7781C38.7823 12.0906 38.6498 12.4581 38.3281 12.6235C37.5331 13.0279 36.6435 13.2484 35.8486 13.2484ZM34.1262 11.7046C34.0505 11.7046 33.9558 11.7414 33.8991 11.7965C33.8423 11.8516 33.8044 11.9252 33.8233 12.017C33.8233 12.0906 33.8612 12.1641 33.918 12.2192C34.429 12.6787 35.0726 12.9176 35.8486 12.9176C36.5868 12.9176 37.4196 12.6971 38.1956 12.3111C38.347 12.2376 38.4038 12.0538 38.3281 11.9068C38.2524 11.7597 38.0631 11.7046 37.9117 11.7781C36.8517 12.3111 35.2808 12.6419 34.3533 11.7781C34.2776 11.7414 34.2019 11.7046 34.1262 11.7046Z" fill="#FFE5DE"/>
<path d="M33.2555 10.9694C33.0284 10.9694 32.8391 10.8224 32.7823 10.6202C32.3848 8.96614 33.388 7.40394 35.3375 6.65041C35.5836 6.55852 35.8675 6.66879 35.9621 6.90772C36.0568 7.14664 35.9432 7.42232 35.6972 7.51422C34.5615 7.95531 33.3691 8.96614 33.7287 10.3997C33.7855 10.657 33.6341 10.8959 33.3691 10.9511C33.3312 10.9694 33.2934 10.9694 33.2555 10.9694Z" fill="#FFE5DE"/>
<path d="M33.2555 11.1348C32.9527 11.1348 32.6877 10.9327 32.6309 10.657C32.2145 8.91099 33.2555 7.29366 35.2808 6.50337C35.6026 6.37472 35.9811 6.54013 36.1136 6.85257C36.1704 6.9996 36.1704 7.18338 36.1136 7.33041C36.0379 7.47744 35.9243 7.6061 35.754 7.66123C34.694 8.06557 33.5584 9.02127 33.8802 10.3629C33.918 10.5283 33.8991 10.6937 33.8044 10.8408C33.7098 10.9878 33.5773 11.0797 33.407 11.1165C33.3502 11.1348 33.2934 11.1348 33.2555 11.1348ZM35.5079 6.77905C35.4701 6.77905 35.4322 6.77905 35.3944 6.79743C33.5205 7.5142 32.5552 9.00289 32.9527 10.5651C32.9906 10.7305 33.1609 10.8408 33.3313 10.7856C33.407 10.7673 33.4827 10.7121 33.5205 10.657C33.5584 10.6018 33.5773 10.5099 33.5584 10.4364C33.1798 8.89261 34.448 7.80826 35.6404 7.34879C35.7161 7.31204 35.7729 7.2569 35.8108 7.18338C35.8486 7.10987 35.8486 7.03635 35.8108 6.96284C35.754 6.85257 35.6404 6.77905 35.5079 6.77905Z" fill="#FFE5DE"/>
<path d="M35.5647 6.35625C35.3565 6.35625 35.1861 6.24598 35.1104 6.04381C34.959 5.63948 34.9022 4.99622 35.4701 4.24269C36.795 2.42319 40.9022 0.952881 42.1136 0.952881C42.3786 0.952881 42.5868 1.15505 42.5868 1.41235C42.5868 1.66965 42.3786 1.87182 42.1136 1.87182C41.1861 1.87182 37.3817 3.1951 36.2461 4.77567C35.9811 5.12487 35.9054 5.45569 36.019 5.74975C36.1136 5.98868 35.9811 6.26436 35.7161 6.33787C35.6783 6.35625 35.6215 6.35625 35.5647 6.35625Z" fill="#FFE5DE"/>
<path d="M35.5647 6.52179C35.2997 6.52179 35.0536 6.35638 34.959 6.09907C34.8076 5.65798 34.7319 4.95959 35.3375 4.15092C36.6814 2.29466 40.8833 0.805976 42.1136 0.787598C42.4732 0.787598 42.7571 1.06328 42.7571 1.41248C42.7571 1.57789 42.7003 1.7433 42.5678 1.85357C42.4543 1.96384 42.2839 2.03736 42.1136 2.03736C41.224 2.05574 37.4763 3.36063 36.3786 4.86769C36.1514 5.18013 36.0757 5.45582 36.1704 5.69474C36.2839 6.02556 36.1136 6.37476 35.7729 6.48503C35.7161 6.50341 35.6404 6.52179 35.5647 6.52179ZM42.1136 1.11842C40.9401 1.1368 36.8896 2.57034 35.6025 4.33471C35.0915 5.0331 35.1293 5.62122 35.2618 5.9888C35.3186 6.13583 35.489 6.22773 35.6593 6.17259C35.8297 6.11745 35.9054 5.95204 35.8486 5.78663C35.7161 5.43744 35.8107 5.06986 36.0946 4.66553C37.3249 2.97468 41.1861 1.70654 42.0946 1.70654C42.1704 1.70654 42.265 1.66978 42.3218 1.61464C42.3786 1.55951 42.4164 1.48599 42.4164 1.3941C42.4353 1.24707 42.2839 1.11842 42.1136 1.11842Z" fill="#FFE5DE"/>
<path d="M31.9685 71.7115C26.877 71.7115 23.4511 69.8368 23.2808 69.745C23.0537 69.6163 22.978 69.3406 23.1105 69.1201C23.2429 68.8995 23.5269 68.826 23.7729 68.9547C23.8108 68.9914 28.694 71.638 35.2808 70.5352C35.5458 70.4801 35.7918 70.6639 35.8297 70.9028C35.8676 71.1601 35.6972 71.399 35.4322 71.4358C34.2019 71.6196 33.0474 71.7115 31.9685 71.7115Z" fill="#FFE5DE"/>
<path d="M31.9685 71.8584C26.8202 71.8584 23.3375 69.947 23.1861 69.8551C22.8833 69.6897 22.7697 69.3038 22.959 68.9913C23.1293 68.6973 23.5268 68.587 23.8297 68.7524C23.8675 68.7892 28.694 71.399 35.224 70.3146C35.5836 70.2595 35.9054 70.48 35.9621 70.8292C36.0189 71.1784 35.7918 71.4909 35.4322 71.5644C34.2965 71.7665 33.123 71.8584 31.9685 71.8584ZM23.5079 69.0281C23.3943 69.0281 23.2997 69.0832 23.2429 69.1751C23.1672 69.3222 23.205 69.5059 23.3565 69.5795C23.5079 69.653 26.8959 71.5276 31.9685 71.5276C33.1041 71.5276 34.2587 71.4357 35.3943 71.2336C35.47 71.2152 35.5457 71.1784 35.6025 71.1049C35.6404 71.0314 35.6593 70.9579 35.6593 70.8844C35.6214 70.7189 35.47 70.6087 35.2997 70.6454C28.6183 71.7665 23.735 69.0832 23.6972 69.0465C23.6215 69.0465 23.5647 69.0281 23.5079 69.0281Z" fill="#FFE5DE"/>
<path d="M39.1609 34.5678C38.1956 34.5678 37.6278 34.531 37.6088 34.531C37.3439 34.5126 37.1546 34.2921 37.1546 34.0348C37.1735 33.7775 37.4006 33.5937 37.6656 33.5937C37.7224 33.5937 43.1546 33.8878 49.3439 32.5829C54.6435 31.4618 57.9748 28.6314 58.8076 27.8595C58.3344 26.5362 56.2145 20.6734 54.0379 16.336C51.5773 11.4472 48.9653 8.32283 48.9275 8.28607C48.7571 8.0839 48.795 7.78984 49.0032 7.62443C49.2114 7.45902 49.5142 7.49578 49.6656 7.69795C49.7792 7.8266 52.3912 10.9326 54.8896 15.9133C57.388 20.8756 59.7918 27.7676 59.8107 27.8228C59.8675 27.9882 59.8297 28.1536 59.7161 28.2822C59.5647 28.4293 55.9874 32.105 49.571 33.465C45.2177 34.4207 41.2429 34.5678 39.1609 34.5678Z" fill="#FFE5DE"/>
<path d="M39.1609 34.7333C38.1766 34.7333 37.6088 34.6966 37.5899 34.6966C37.4196 34.6782 37.2681 34.6047 37.1546 34.4944C37.041 34.3657 36.9842 34.2003 37.0031 34.0349C37.0221 33.6857 37.3438 33.4284 37.6845 33.4468C37.7413 33.4468 43.1356 33.7409 49.3249 32.436C54.3975 31.3516 57.6341 28.7234 58.6183 27.8413C58.1262 26.4812 56.0442 20.6919 53.8864 16.428C51.4448 11.5576 48.8328 8.45161 48.7949 8.41485C48.6814 8.2862 48.6435 8.12079 48.6435 7.95538C48.6625 7.78997 48.7382 7.64294 48.8707 7.53266C49.1356 7.31212 49.552 7.34888 49.7792 7.62456C49.8927 7.75321 52.5047 10.8776 55.0221 15.8766C57.5205 20.8389 59.9243 27.7494 59.9432 27.8045C60.0189 28.025 59.9621 28.264 59.8107 28.4294C59.6593 28.5764 56.0442 32.2889 49.571 33.649C45.1987 34.6047 41.1672 34.7333 39.1609 34.7333ZM37.6467 33.7776C37.4763 33.7776 37.3438 33.9063 37.3249 34.0533C37.3249 34.1268 37.3438 34.2003 37.4006 34.2738C37.4574 34.329 37.5331 34.3657 37.6088 34.3657C37.6088 34.3657 38.1766 34.4025 39.1419 34.4025C41.1483 34.4025 45.1419 34.2555 49.4953 33.3365C55.8549 31.9765 59.4132 28.3559 59.5647 28.2088C59.6404 28.1353 59.6593 28.0067 59.6404 27.8964C59.6214 27.8229 57.2177 20.9492 54.7382 16.0053C52.2397 11.043 49.6467 7.937 49.5331 7.80835C49.4195 7.69807 49.2113 7.6797 49.0789 7.78997C49.0221 7.8451 48.9653 7.91862 48.9653 7.99214C48.9464 8.06565 48.9842 8.15754 49.041 8.21268C49.0599 8.24944 51.7098 11.3922 54.1703 16.281C56.3848 20.6919 58.5426 26.6834 58.959 27.8229L58.9968 27.9148L58.9211 27.9883C58.0315 28.8153 54.7003 31.6273 49.3817 32.7484C43.1546 34.09 37.7035 33.7776 37.6467 33.7776Z" fill="#FFE5DE"/>
<path d="M13.041 74.266C13.0032 74.266 12.9653 74.266 12.9464 74.2477C12.6814 74.1925 12.53 73.9536 12.5678 73.6963C13.2871 70.3881 15.0095 68.5502 15.0852 68.4767C15.2555 68.2929 15.5584 68.2746 15.7666 68.4583C15.9558 68.6237 15.9748 68.9362 15.8044 69.12C15.7666 69.1567 14.1767 70.8843 13.5142 73.8985C13.4574 74.119 13.2492 74.266 13.041 74.266Z" fill="#FFE5DE"/>
<path d="M13.041 74.4315C13.0032 74.4315 12.9464 74.4315 12.9086 74.4131C12.7382 74.3763 12.5868 74.2845 12.5111 74.1374C12.4164 73.9904 12.3786 73.825 12.4164 73.6596C13.1357 70.3146 14.8959 68.44 14.9716 68.3665C15.0852 68.2378 15.2366 68.1643 15.4259 68.1643C15.5962 68.1643 15.7666 68.2194 15.8802 68.3297C16.0127 68.44 16.0884 68.6054 16.0884 68.7708C16.0884 68.9362 16.0316 69.1016 15.918 69.2303C15.8612 69.3038 14.3092 70.9763 13.6656 73.9353C13.6089 74.2109 13.3439 74.4315 13.041 74.4315ZM15.4448 68.4951C15.3502 68.4951 15.2745 68.5319 15.2177 68.587C15.142 68.6605 13.4385 70.48 12.7382 73.7331C12.7193 73.8066 12.7382 73.8985 12.7761 73.9536C12.8139 74.0271 12.8896 74.0639 12.9653 74.0823C13.1546 74.119 13.306 74.0088 13.3439 73.8434C14.0063 70.8109 15.5962 69.0465 15.672 68.973C15.7855 68.8443 15.7855 68.6605 15.653 68.5503C15.5962 68.5319 15.5205 68.4951 15.4448 68.4951Z" fill="#FFE5DE"/>
<path d="M36.1515 74.983C35.9054 74.983 35.6783 74.7992 35.6783 74.5419C35.6026 73.2922 35.3754 72.0424 35.3754 72.024C35.3187 71.7667 35.5079 71.5278 35.754 71.491C36.019 71.4359 36.265 71.6197 36.3029 71.8586C36.3218 71.9138 36.5489 73.1819 36.6246 74.4868C36.6436 74.7441 36.4354 74.9647 36.1704 74.983H36.1515Z" fill="#FFE5DE"/>
<path d="M36.1514 75.1297C35.8107 75.1297 35.5268 74.8724 35.5079 74.5416C35.4511 73.3102 35.205 72.0605 35.205 72.0605C35.1672 71.8951 35.205 71.7297 35.2997 71.5826C35.3943 71.4356 35.5457 71.3621 35.7161 71.3253C36.0568 71.2702 36.3975 71.4907 36.4732 71.8216C36.4732 71.8399 36.7192 73.1448 36.7949 74.4681C36.8139 74.8173 36.53 75.1114 36.1893 75.1297H36.1514ZM35.8486 71.6378C35.8296 71.6378 35.8107 71.6378 35.7918 71.6378C35.7161 71.6562 35.6404 71.6929 35.6025 71.7664C35.5457 71.8399 35.5457 71.9135 35.5457 71.987C35.5457 72.0054 35.7918 73.2551 35.8486 74.5232C35.8675 74.6887 36 74.8173 36.1514 74.8173V74.9827L36.1703 74.8173C36.3407 74.7989 36.4732 74.6703 36.4543 74.5049C36.3785 73.2 36.1325 71.9135 36.1325 71.8951C36.1136 71.8216 36.0757 71.7481 36 71.6929C35.9621 71.6562 35.9054 71.6378 35.8486 71.6378Z" fill="#FFE5DE"/>
<path d="M32.8391 13.4505C32.5363 13.4505 32.2713 13.3587 32.082 13.1565C31.8927 12.9727 31.8927 12.6786 32.082 12.4948C32.2713 12.3111 32.5741 12.3111 32.7634 12.4948C32.8013 12.55 33.123 12.5684 33.8801 12.0905C34.1073 11.9435 34.3912 12.017 34.5426 12.2192C34.694 12.4397 34.6183 12.7154 34.4101 12.8624C33.7855 13.2668 33.2744 13.4505 32.8391 13.4505Z" fill="#FFE5DE"/>
<path d="M32.8391 13.6161C32.4985 13.6161 32.1956 13.5058 31.9496 13.2669C31.836 13.1566 31.7603 12.9912 31.7603 12.8258C31.7603 12.6604 31.836 12.495 31.9496 12.3847C32.1956 12.1458 32.5742 12.1458 32.8391 12.3664C32.877 12.3664 33.1609 12.348 33.7666 11.962C34.0694 11.7782 34.4669 11.8517 34.6562 12.1458C34.7508 12.2745 34.7887 12.4582 34.7508 12.6237C34.713 12.7891 34.6183 12.9361 34.4669 13.0096C33.8612 13.4139 33.2934 13.6161 32.8391 13.6161ZM32.4227 12.5318C32.347 12.5318 32.2713 12.5685 32.1956 12.6237C32.1388 12.6788 32.101 12.7523 32.101 12.8442C32.101 12.9177 32.1388 12.9912 32.1956 13.0647C32.6309 13.4875 33.3313 13.3772 34.2966 12.7707C34.3723 12.7339 34.4101 12.6604 34.4291 12.5869C34.448 12.5134 34.4291 12.4215 34.3912 12.3664C34.2966 12.2193 34.1073 12.1826 33.9559 12.2745C33.3123 12.6788 32.8202 12.8258 32.6309 12.6604C32.5742 12.5501 32.4985 12.5318 32.4227 12.5318Z" fill="#FFE5DE"/>
<path d="M31.6278 12.1643C31.4385 12.1643 31.2682 12.054 31.1925 11.8886C31.06 11.5761 31.06 11.2453 31.2114 10.9329C31.5142 10.3264 32.3092 9.92205 32.9149 9.73826C33.1609 9.66475 33.4259 9.81178 33.5016 10.0507C33.5773 10.2896 33.4259 10.5469 33.1798 10.6204C32.7445 10.7491 32.1956 11.0432 32.0631 11.3188C32.0253 11.3924 32.0253 11.4475 32.0631 11.521C32.1767 11.7599 32.0631 12.0356 31.8171 12.1275C31.7603 12.1643 31.7035 12.1643 31.6278 12.1643Z" fill="#FFE5DE"/>
<path d="M31.6277 12.3297C31.3628 12.3297 31.1356 12.1826 31.041 11.9437C30.8896 11.5761 30.8896 11.2085 31.0599 10.841C31.3817 10.1977 32.2334 9.73824 32.877 9.55445C33.0473 9.49932 33.2176 9.51769 33.3691 9.60959C33.5205 9.6831 33.6341 9.81176 33.6719 9.97716C33.7665 10.308 33.5773 10.6572 33.2366 10.7491C32.7823 10.8777 32.3281 11.1534 32.2334 11.3556C32.2145 11.3923 32.2145 11.3923 32.2334 11.4291C32.3091 11.5761 32.3091 11.7599 32.2334 11.9069C32.1766 12.054 32.0441 12.1826 31.8927 12.2561C31.817 12.3113 31.7224 12.3297 31.6277 12.3297ZM33.0662 9.86689C33.0284 9.86689 33.0094 9.86689 32.9716 9.88527C32.347 10.0691 31.6088 10.4734 31.3628 10.988C31.2303 11.2637 31.2303 11.5394 31.3438 11.815C31.4006 11.9621 31.5899 12.0356 31.7602 11.9805C31.8359 11.9437 31.8927 11.8886 31.9306 11.815C31.9684 11.7415 31.9684 11.6496 31.9306 11.5761C31.8738 11.4658 31.8738 11.3556 31.9306 11.2453C32.1199 10.8777 32.7634 10.5653 33.1419 10.455C33.3123 10.3999 33.4069 10.2345 33.3501 10.0874C33.3312 10.0139 33.2744 9.94041 33.1987 9.90365C33.1609 9.88527 33.1041 9.86689 33.0662 9.86689Z" fill="#FFE5DE"/>
<path d="M15.4069 21.4087C15.3691 21.4087 15.3312 21.4087 15.3123 21.4087C12.7003 20.8757 11.9054 19.093 11.8675 19.0194C11.7539 18.7621 11.8675 18.4865 12.1136 18.3946C12.3596 18.3027 12.6246 18.4129 12.7382 18.6335C12.7571 18.6886 13.4006 20.067 15.5016 20.4897C15.7666 20.5449 15.918 20.7838 15.8801 21.0411C15.8233 21.2617 15.6151 21.4087 15.4069 21.4087Z" fill="#FFE5DE"/>
<path d="M15.407 21.574C15.3691 21.574 15.3123 21.574 15.2745 21.5556C12.5868 21.0042 11.735 19.148 11.6972 19.0561C11.6215 18.9091 11.6215 18.7253 11.6972 18.5782C11.7729 18.4312 11.8865 18.3026 12.0568 18.2474C12.3786 18.1004 12.7571 18.2474 12.8896 18.5782C12.9085 18.6334 13.5142 19.9199 15.5205 20.3242C15.8612 20.3977 16.0883 20.7286 16.0126 21.0778C15.9748 21.3534 15.7098 21.574 15.407 21.574ZM12.3029 18.5231C12.265 18.5231 12.2271 18.5231 12.1893 18.5415C12.0189 18.615 11.9432 18.7804 12.0189 18.9458C12.0568 19.0193 12.8328 20.7286 15.3502 21.2432C15.5016 21.2799 15.6719 21.1697 15.7098 21.0042C15.7477 20.8388 15.6341 20.6734 15.4637 20.655C13.2682 20.214 12.6057 18.7804 12.5868 18.7069C12.53 18.5782 12.4164 18.5231 12.3029 18.5231Z" fill="#FFE5DE"/>
<path d="M37.1546 7.97383C36.6625 7.97383 36.265 7.67977 36.1515 7.23868C36.0758 6.98137 36.2461 6.74245 36.4922 6.66893C36.7382 6.6138 37.0032 6.76083 37.0789 6.99975C37.0789 7.03651 37.0978 7.05489 37.1735 7.05489C37.2682 7.05489 37.4007 6.99975 37.4385 6.8711C37.4953 6.6138 37.7414 6.44839 38.0064 6.50352C38.2713 6.55866 38.4417 6.79759 38.3849 7.05489C38.2903 7.5695 37.7982 7.97383 37.2303 7.99221H37.1546V7.97383Z" fill="#FFE5DE"/>
<path d="M37.1546 8.1209C36.5868 8.1209 36.1325 7.7717 35.9811 7.25709C35.8864 6.92627 36.0946 6.57708 36.4353 6.48518C36.7382 6.41167 37.0789 6.5587 37.1924 6.85276C37.2114 6.83438 37.2303 6.83438 37.2492 6.816C37.2871 6.65059 37.3817 6.50356 37.5142 6.41167C37.6656 6.33815 37.836 6.30139 38.0063 6.33815C38.347 6.41167 38.5741 6.74248 38.5174 7.0733C38.4038 7.66143 37.836 8.1209 37.1924 8.13927L37.1546 8.1209ZM36.6057 6.79762C36.5868 6.79762 36.5489 6.79762 36.53 6.816C36.3596 6.85276 36.265 7.01817 36.3028 7.18358C36.3975 7.56953 36.7193 7.80846 37.1546 7.80846V7.97386L37.1924 7.80846C37.6846 7.79008 38.101 7.45926 38.1956 6.99979C38.2334 6.83438 38.1199 6.68735 37.9495 6.65059C37.8738 6.63221 37.7792 6.65059 37.7224 6.68735C37.6467 6.74248 37.6088 6.79762 37.5899 6.87114C37.5521 7.0733 37.3439 7.18358 37.1735 7.18358C37.0032 7.18358 36.9464 7.09168 36.9085 7.01817C36.8707 6.88952 36.7382 6.79762 36.6057 6.79762Z" fill="#FFE5DE"/>
<path d="M39.5395 6.96287C39.388 6.96287 39.2366 6.94449 39.1041 6.88936C38.8013 6.77908 38.612 6.54016 38.5174 6.22772C38.4984 6.17258 38.4984 6.13583 38.4984 6.08069L38.6309 3.7282C38.6499 3.4709 38.877 3.28711 39.142 3.28711C39.407 3.30549 39.6152 3.52603 39.5962 3.78334L39.4637 6.02555C39.5016 6.04393 39.5962 6.04393 39.6719 5.98879C39.8991 5.86014 40.2019 5.93366 40.3344 6.1542C40.4669 6.37475 40.3912 6.66881 40.1641 6.77908C39.9748 6.90774 39.7477 6.96287 39.5395 6.96287Z" fill="#FFE5DE"/>
<path d="M39.5394 7.12829C39.3691 7.12829 39.1987 7.09153 39.0473 7.03639C38.7066 6.88936 38.4606 6.63206 38.3659 6.26448C38.347 6.20935 38.347 6.13583 38.347 6.0807L38.4795 3.72821C38.4984 3.37901 38.8013 3.12171 39.1609 3.14009C39.5205 3.15846 39.7855 3.45253 39.7666 3.80172L39.653 5.84177C39.9558 5.71312 40.3155 5.80501 40.4858 6.09907C40.5804 6.24611 40.5994 6.41151 40.5426 6.57692C40.5047 6.74233 40.3912 6.87098 40.2397 6.96288C40.0315 7.05477 39.7855 7.12829 39.5394 7.12829ZM39.123 3.43415C38.9527 3.43415 38.8202 3.5628 38.8013 3.72821L38.6688 6.0807C38.6688 6.11745 38.6688 6.13583 38.6877 6.17259C38.7634 6.42989 38.9338 6.63206 39.1798 6.72395C39.4637 6.83423 39.8044 6.81585 40.0883 6.65044C40.164 6.61368 40.2208 6.54017 40.2397 6.46665C40.2587 6.39314 40.2587 6.30124 40.2019 6.24611C40.1262 6.09907 39.918 6.06232 39.7855 6.13583C39.6719 6.19097 39.5205 6.20935 39.4259 6.17259L39.3691 6.15421L39.2934 6.09907L39.4259 3.76497C39.4259 3.69145 39.4069 3.59956 39.3502 3.54442C39.2934 3.48928 39.2177 3.45253 39.123 3.43415Z" fill="#FFE5DE"/>
<path d="M41.9243 5.95199C41.4322 5.95199 41.0347 5.65793 40.9212 5.21684C40.9023 5.18008 40.9023 5.12494 40.9023 5.08818L40.9401 3.56274C40.9401 3.30544 41.1483 3.10327 41.4133 3.10327C41.6783 3.10327 41.8865 3.32382 41.8865 3.58112L41.8675 5.01467C41.8865 5.03305 41.9054 5.03305 41.9433 5.03305C42.0379 5.03305 42.1704 4.97791 42.1893 4.84926C42.2461 4.59196 42.4922 4.42655 42.7571 4.48168C43.0221 4.53682 43.1925 4.77574 43.1357 5.03305C43.041 5.54765 42.5489 5.95199 41.9811 5.97037H41.9243V5.95199Z" fill="#FFE5DE"/>
<path d="M41.9243 6.11745C41.3565 6.11745 40.9022 5.78664 40.7508 5.25365C40.7319 5.19851 40.7319 5.14338 40.7319 5.08824L40.7508 3.5628C40.7508 3.23198 41.0537 2.9563 41.3943 2.9563C41.754 2.9563 42.0379 3.25036 42.0379 3.59956L42.019 4.81256C42.1136 4.46336 42.4354 4.24282 42.776 4.31633C42.9464 4.35309 43.0978 4.44498 43.1924 4.59201C43.2871 4.72066 43.3249 4.90445 43.2871 5.06986C43.1735 5.65798 42.6057 6.11745 41.9622 6.13583H41.9243V6.11745ZM41.4133 3.25036C41.2429 3.25036 41.0915 3.37901 41.0915 3.54442L41.0726 5.08824C41.0726 5.125 41.0726 5.14338 41.0915 5.16176C41.1861 5.54771 41.5268 5.78664 41.9432 5.78664V5.95204L41.9811 5.78664C42.4732 5.76826 42.8896 5.43744 42.9842 4.99635C43.0032 4.92283 42.9842 4.83094 42.9275 4.7758C42.8896 4.70229 42.8139 4.66553 42.7382 4.64715C42.5678 4.61039 42.3975 4.72066 42.3786 4.88607C42.3407 5.08824 42.1325 5.19851 41.9622 5.19851C41.9054 5.19851 41.8297 5.19851 41.7729 5.14338L41.7161 5.08824L41.735 3.58118C41.7161 3.39739 41.5836 3.26874 41.4133 3.25036Z" fill="#FFE5DE"/>
</g>
<defs>
<clipPath id="clip0_1343_1245">
<rect width="60" height="74.3423" fill="white" transform="translate(0 0.787598)"/>
</clipPath>
</defs>
</svg>
