<svg width="117" height="203" viewBox="0 0 117 203" fill="none" xmlns="http://www.w3.org/2000/svg">
<g clip-path="url(#clip0_2490_4083)">
<path d="M94.5738 24.8529C95.5838 24.7106 96.4299 24.8741 97.1121 25.3436C97.8041 25.8116 98.2178 26.5259 98.3531 27.4864C98.494 28.4865 98.2832 29.2837 97.7206 29.878C97.158 30.4723 96.3518 30.8434 95.3022 30.9913L95.4081 32.1731L93.9376 32.3802L93.5348 30.0587L94.025 29.9896C94.9855 29.8543 95.7001 29.6224 96.1689 29.2938C96.6475 28.9638 96.8359 28.4373 96.7341 27.7145C96.6602 27.1897 96.4488 26.8003 96.1 26.5465C95.7611 26.2913 95.3243 26.2014 94.7895 26.2767C94.2548 26.352 93.8542 26.5549 93.5877 26.8853C93.3212 27.2157 93.2242 27.6384 93.2967 28.1533L91.7074 28.3772C91.6237 27.783 91.6828 27.2344 91.8846 26.7314C92.0864 26.2283 92.4167 25.8132 92.8755 25.486C93.3443 25.1574 93.9104 24.9463 94.5738 24.8529ZM95.113 35.5624C94.806 35.6056 94.5339 35.5379 94.2967 35.3592C94.0595 35.1806 93.9192 34.9378 93.876 34.6308C93.8327 34.3238 93.9004 34.0517 94.0791 33.8145C94.2577 33.5773 94.5005 33.437 94.8075 33.3938C95.1046 33.3519 95.3717 33.4203 95.609 33.599C95.8462 33.7776 95.9865 34.0204 96.0297 34.3274C96.073 34.6344 96.0052 34.9065 95.8266 35.1437C95.6479 35.381 95.4101 35.5205 95.113 35.5624Z" fill="#651C32"/>
<path d="M87.3682 36.6836C86.5959 36.7924 85.8734 36.7175 85.2007 36.4588C84.5266 36.1902 83.9667 35.7641 83.521 35.1806C83.0738 34.5872 82.7909 33.8696 82.6724 33.0279C82.5552 32.1961 82.6345 31.4326 82.9102 30.7374C83.1859 30.0421 83.6162 29.4765 84.2011 29.0407C84.786 28.6048 85.4696 28.3318 86.2519 28.2216C87.0342 28.1114 87.7666 28.1849 88.4492 28.4422C89.1317 28.6995 89.7016 29.1242 90.1586 29.7162C90.6157 30.3083 90.9028 31.0202 91.02 31.852C91.1371 32.6838 91.0529 33.448 90.7673 34.1446C90.4817 34.8413 90.0372 35.4139 89.4339 35.8624C88.8391 36.2997 88.1505 36.5734 87.3682 36.6836ZM87.1611 35.2131C87.5968 35.1517 87.9881 34.9906 88.3351 34.7296C88.692 34.4673 88.96 34.1114 89.1391 33.662C89.3181 33.2127 89.3658 32.6909 89.2821 32.0968C89.1984 31.5027 89.0141 31.0186 88.7292 30.6447C88.4428 30.2609 88.0969 29.9915 87.6913 29.8366C87.2857 29.6817 86.8651 29.6349 86.4294 29.6963C85.9937 29.7576 85.6023 29.9188 85.2553 30.1798C84.9182 30.4393 84.6701 30.7924 84.5108 31.239C84.3501 31.6757 84.3117 32.1911 84.3954 32.7852C84.5195 33.6665 84.8386 34.3184 85.3525 34.7408C85.875 35.1519 86.4778 35.3094 87.1611 35.2131Z" fill="#651C32"/>
<path d="M72.5868 34.4184C72.471 33.5965 72.5368 32.845 72.7842 32.1638C73.0415 31.4812 73.4379 30.9255 73.9733 30.4966C74.5172 30.0565 75.1506 29.7855 75.8735 29.6836C76.4082 29.6083 76.9498 29.6532 77.4981 29.8183C78.0551 29.9721 78.5142 30.2205 78.8756 30.5635L78.319 26.6125L80.0271 26.3718L81.5755 37.3633L79.8674 37.6039L79.6937 36.3711C79.4722 36.8063 79.1321 37.1874 78.6732 37.5146C78.2243 37.8405 77.683 38.048 77.0492 38.1373C76.3363 38.2377 75.6576 38.1515 75.0133 37.8788C74.3774 37.5947 73.8409 37.1552 73.4036 36.5604C72.9749 35.9543 72.7026 35.2403 72.5868 34.4184ZM79.2899 33.5044C79.2104 32.94 79.0225 32.4666 78.7262 32.0842C78.4399 31.7003 78.0932 31.426 77.6863 31.2612C77.2793 31.0963 76.858 31.0446 76.4223 31.106C75.9866 31.1674 75.5959 31.3335 75.2503 31.6043C74.9033 31.8653 74.6403 32.2205 74.4612 32.6698C74.2907 33.1079 74.2451 33.6092 74.3247 34.1736C74.4042 34.738 74.5878 35.2171 74.8755 35.6108C75.1732 36.0031 75.5262 36.2866 75.9345 36.4614C76.3514 36.6248 76.7728 36.6766 77.1986 36.6166C77.6343 36.5552 78.0249 36.3891 78.3705 36.1182C78.7161 35.8474 78.9735 35.4879 79.1426 35.04C79.3203 34.5807 79.3694 34.0688 79.2899 33.5044Z" fill="#651C32"/>
<path d="M69.3722 29.6301C69.0652 29.6733 68.7931 29.6056 68.5559 29.427C68.3187 29.2483 68.1784 29.0055 68.1352 28.6986C68.0919 28.3916 68.1596 28.1195 68.3383 27.8822C68.5169 27.645 68.7597 27.5048 69.0667 27.4615C69.3638 27.4197 69.6309 27.4881 69.8682 27.6667C70.1054 27.8454 70.2457 28.0882 70.2889 28.3951C70.3321 28.7021 70.2644 28.9742 70.0858 29.2115C69.9071 29.4487 69.6693 29.5882 69.3722 29.6301ZM70.3567 30.5972L71.5097 38.7814L69.8164 39.0199L68.6635 30.8358L70.3567 30.5972Z" fill="#651C32"/>
<path d="M58.6034 36.3881C58.4876 35.5662 58.5535 34.8147 58.8008 34.1335C59.0581 33.451 59.4545 32.8952 59.9899 32.4664C60.5338 32.0262 61.1672 31.7552 61.8901 31.6534C62.4248 31.578 62.9664 31.6229 63.5148 31.788C64.0717 31.9419 64.5308 32.1902 64.8922 32.5332L64.3356 28.5822L66.0437 28.3416L67.5921 39.333L65.884 39.5737L65.7103 38.3408C65.4888 38.776 65.1487 39.1572 64.6898 39.4844C64.2409 39.8102 63.6996 40.0177 63.0658 40.107C62.3529 40.2074 61.6742 40.1213 61.0299 39.8485C60.394 39.5644 59.8575 39.1249 59.4202 38.5301C58.9915 37.924 58.7192 37.21 58.6034 36.3881ZM65.3065 35.4741C65.227 34.9097 65.0391 34.4363 64.7428 34.0539C64.4565 33.6701 64.1098 33.3957 63.7029 33.2309C63.2959 33.0661 62.8746 33.0143 62.4389 33.0757C62.0032 33.1371 61.6125 33.3032 61.2669 33.5741C60.9199 33.835 60.6569 34.1902 60.4778 34.6396C60.3073 35.0776 60.2618 35.5789 60.3413 36.1433C60.4208 36.7077 60.6044 37.1868 60.8921 37.5805C61.1898 37.9728 61.5428 38.2564 61.9511 38.4311C62.368 38.5946 62.7894 38.6463 63.2152 38.5863C63.6508 38.5249 64.0415 38.3588 64.3871 38.0879C64.7327 37.8171 64.9901 37.4577 65.1592 37.0097C65.3369 36.5504 65.386 36.0386 65.3065 35.4741Z" fill="#651C32"/>
<path d="M57.4781 36.38C57.5214 36.687 57.5406 36.967 57.5359 37.2202L51.2826 38.1011C51.4242 38.7477 51.7407 39.2383 52.2322 39.573C52.7237 39.9077 53.2864 40.0305 53.9201 39.9412C54.8311 39.8128 55.421 39.3409 55.6899 38.5255L57.5169 38.2681C57.3753 39.0555 57.012 39.7379 56.4268 40.3152C55.8501 40.8811 55.0815 41.2318 54.121 41.3671C53.3387 41.4773 52.6112 41.4031 51.9386 41.1444C51.2744 40.8744 50.7194 40.4476 50.2737 39.8641C49.8364 39.2693 49.5585 38.551 49.44 37.7093C49.3214 36.8676 49.3858 36.1062 49.6332 35.425C49.8891 34.7326 50.2996 34.1698 50.8647 33.7367C51.4397 33.3023 52.1283 33.0285 52.9304 32.9155C53.7027 32.8067 54.4147 32.8781 55.0661 33.1297C55.7176 33.3813 56.2549 33.7903 56.6781 34.3568C57.0998 34.9135 57.3665 35.5878 57.4781 36.38ZM55.6352 36.0943C55.5375 35.4719 55.2442 35.0032 54.7555 34.6883C54.2668 34.3734 53.7006 34.2613 53.057 34.3519C52.4727 34.4342 51.9992 34.6928 51.6363 35.1277C51.272 35.5527 51.0949 36.0876 51.105 36.7325L55.6352 36.0943Z" fill="#651C32"/>
<path d="M41.2253 35.9279C41.4595 35.5111 41.806 35.1391 42.2648 34.8119C42.7237 34.4847 43.265 34.2772 43.8889 34.1893C44.6018 34.0889 45.2755 34.1757 45.91 34.4499C46.5529 34.7128 47.0874 35.1374 47.5134 35.7237C47.9393 36.31 48.2102 37.0141 48.326 37.836C48.4417 38.6579 48.3773 39.4193 48.1327 40.1203C47.8867 40.8114 47.4924 41.3819 46.9499 41.832C46.4159 42.2708 45.7924 42.5404 45.0795 42.6409C44.4556 42.7287 43.8837 42.6831 43.3636 42.5039C42.8421 42.3148 42.4014 42.0537 42.0414 41.7207L42.757 46.8005L41.0637 47.039L39.3626 34.9633L41.0559 34.7247L41.2253 35.9279ZM46.603 38.0787C46.5235 37.5143 46.3363 37.0458 46.0414 36.6733C45.7551 36.2895 45.4042 36.0208 44.9887 35.8673C44.5817 35.7024 44.1604 35.6507 43.7247 35.7121C43.2989 35.7721 42.9082 35.9382 42.5528 36.2104C42.2072 36.4813 41.9448 36.8414 41.7658 37.2908C41.5966 37.7388 41.5518 38.245 41.6313 38.8094C41.7108 39.3738 41.8944 39.8529 42.1822 40.2466C42.4784 40.629 42.83 40.9026 43.237 41.0675C43.6539 41.2309 44.0752 41.2827 44.501 41.2227C44.9367 41.1613 45.3273 40.9952 45.6729 40.7243C46.027 40.4422 46.288 40.0722 46.4557 39.6143C46.6334 39.155 46.6825 38.6432 46.603 38.0787Z" fill="#651C32"/>
<path d="M29.9589 36.1517C30.6026 36.061 31.1957 36.1138 31.7384 36.31C32.291 36.5048 32.7478 36.8444 33.1089 37.3288C33.4799 37.8118 33.7177 38.4246 33.8224 39.1673L34.5024 43.9946L32.824 44.231L32.1795 39.6562C32.0763 38.9234 31.8143 38.3898 31.3935 38.0552C30.9713 37.7107 30.4434 37.5831 29.8096 37.6724C29.1759 37.7617 28.6988 38.0309 28.3783 38.48C28.0663 38.9178 27.9619 39.503 28.0651 40.2358L28.7096 44.8106L27.0312 45.0471L26.3867 40.4723C26.2835 39.7395 26.0215 39.2058 25.6007 38.8713C25.1785 38.5268 24.6505 38.3992 24.0168 38.4885C23.3831 38.5777 22.9059 38.8469 22.5855 39.296C22.2735 39.7338 22.1691 40.3191 22.2723 41.0519L22.9168 45.6267L21.2235 45.8652L20.0706 37.681L21.7639 37.4425L21.8957 38.3783C22.1255 38.0025 22.4401 37.6906 22.8394 37.4425C23.2387 37.1943 23.6809 37.0361 24.1661 36.9678C24.8197 36.8757 25.4234 36.932 25.9774 37.1367C26.5314 37.3415 26.984 37.6867 27.3352 38.1725C27.513 37.6425 27.8441 37.1969 28.3284 36.8358C28.8114 36.4648 29.3549 36.2368 29.9589 36.1517Z" fill="#651C32"/>
<path d="M17.8367 37.9957L18.9896 46.1799L17.2963 46.4184L17.1603 45.453C16.9404 45.8273 16.6265 46.1442 16.2187 46.4036C15.8194 46.6517 15.3772 46.81 14.892 46.8783C14.2483 46.969 13.6502 46.9169 13.0976 46.7221C12.555 46.5259 12.0981 46.1863 11.7271 45.7033C11.366 45.219 11.1332 44.6054 11.0285 43.8628L10.3506 39.0503L12.029 38.8138L12.6714 43.3738C12.7746 44.1066 13.0373 44.6452 13.4595 44.9897C13.8803 45.3243 14.4076 45.4469 15.0413 45.3576C15.675 45.2683 16.1479 45.0048 16.4599 44.567C16.7804 44.1179 16.889 43.527 16.7858 42.7942L16.1434 38.2342L17.8367 37.9957Z" fill="#651C32"/>
<path d="M80.9947 12.1325C81.1837 11.6817 81.4651 11.3139 81.8391 11.0289C82.2215 10.7327 82.6949 10.5448 83.2593 10.4653L83.5062 12.218L83.0755 12.2787C82.412 12.3721 81.9307 12.6116 81.6316 12.9971C81.3423 13.3812 81.2563 13.9891 81.3735 14.8209L81.9803 19.1284L80.287 19.3669L79.1341 11.1828L80.8273 10.9442L80.9947 12.1325Z" fill="#651C32"/>
<path d="M78.0162 15.3092C78.0594 15.6162 78.0787 15.8962 78.074 16.1494L71.8207 17.0303C71.9623 17.6769 72.2788 18.1675 72.7703 18.5022C73.2618 18.8369 73.8244 18.9597 74.4582 18.8704C75.3692 18.742 75.9591 18.2701 76.228 17.4547L78.055 17.1973C77.9134 17.9847 77.5501 18.6671 76.9649 19.2444C76.3882 19.8103 75.6196 20.161 74.6591 20.2963C73.8768 20.4065 73.1493 20.3323 72.4766 20.0736C71.8125 19.8036 71.2575 19.3768 70.8118 18.7933C70.3745 18.1985 70.0966 17.4802 69.978 16.6385C69.8595 15.7968 69.9239 15.0354 70.1713 14.3542C70.4272 13.6618 70.8377 13.099 71.4028 12.6659C71.9778 12.2315 72.6664 11.9577 73.4685 11.8447C74.2408 11.7359 74.9527 11.8073 75.6042 12.0589C76.2557 12.3105 76.793 12.7195 77.2162 13.286C77.6379 13.8427 77.9046 14.517 78.0162 15.3092ZM76.1733 15.0235C76.0755 14.4011 75.7823 13.9324 75.2936 13.6175C74.8049 13.3026 74.2387 13.1905 73.5951 13.2811C73.0108 13.3634 72.5373 13.622 72.1744 14.0569C71.8101 14.4819 71.633 15.0168 71.6431 15.6617L76.1733 15.0235Z" fill="#651C32"/>
<path d="M65.4346 20.0506L69.1479 19.5274L69.3425 20.9088L63.6686 21.7081L63.474 20.3268L66.4384 14.3801L62.7102 14.9053L62.5156 13.5239L68.1896 12.7246L68.3842 14.106L65.4346 20.0506Z" fill="#651C32"/>
<path d="M52.9162 19.0116C52.8005 18.1898 52.8663 17.4382 53.1137 16.7571C53.371 16.0745 53.7673 15.5188 54.3027 15.0899C54.8466 14.6497 55.4751 14.3794 56.188 14.279C56.8317 14.1883 57.4093 14.2382 57.9209 14.4287C58.441 14.6079 58.8711 14.8654 59.2113 15.2013L59.0439 14.013L60.752 13.7724L61.9049 21.9565L60.1968 22.1972L60.0252 20.9792C59.7925 21.4058 59.4466 21.7828 58.9878 22.11C58.529 22.4372 57.9827 22.6454 57.3489 22.7347C56.6459 22.8337 55.9771 22.7462 55.3427 22.472C54.7068 22.1879 54.1703 21.7485 53.733 21.1536C53.3043 20.5475 53.032 19.8335 52.9162 19.0116ZM59.6193 18.0977C59.5398 17.5332 59.3519 17.0598 59.0556 16.6774C58.7693 16.2936 58.4227 16.0193 58.0157 15.8544C57.6087 15.6896 57.1874 15.6378 56.7517 15.6992C56.316 15.7606 55.9253 15.9267 55.5797 16.1976C55.2327 16.4585 54.9697 16.8137 54.7906 17.2631C54.6201 17.7011 54.5746 18.2024 54.6541 18.7668C54.7336 19.3313 54.9172 19.8103 55.2049 20.204C55.5026 20.5963 55.8556 20.8799 56.264 21.0546C56.6808 21.2181 57.1022 21.2698 57.528 21.2098C57.9637 21.1484 58.3543 20.9823 58.6999 20.7115C59.0455 20.4406 59.3029 20.0812 59.472 19.6332C59.6497 19.1739 59.6988 18.6621 59.6193 18.0977Z" fill="#651C32"/>
<path d="M51.6035 16.4701L50.0884 16.6836L51.0468 23.4864L49.3386 23.727L48.3803 16.9242L47.4148 17.0602L47.2202 15.6788L48.1857 15.5428L48.1041 14.9635C47.9716 14.0228 48.1229 13.3047 48.558 12.8092C49.0016 12.3023 49.7582 11.9736 50.8276 11.8229L51.0264 13.234C50.5115 13.3065 50.164 13.4565 49.984 13.6838C49.8025 13.9012 49.7453 14.2476 49.8122 14.7229L49.8938 15.3022L51.4089 15.0888L51.6035 16.4701Z" fill="#651C32"/>
<path d="M40.2789 17.8683C40.4679 17.4176 40.7493 17.0497 41.1232 16.7648C41.5056 16.4685 41.9791 16.2806 42.5435 16.2011L42.7904 17.9538L42.3597 18.0145C41.6962 18.108 41.2149 18.3474 40.9158 18.7329C40.6265 19.117 40.5405 19.725 40.6577 20.5568L41.2645 24.8642L39.5712 25.1028L38.4182 16.9186L40.1115 16.6801L40.2789 17.8683Z" fill="#651C32"/>
<path d="M37.3004 21.0448C37.3436 21.3518 37.3629 21.6318 37.3581 21.885L31.1049 22.7659C31.2465 23.4125 31.563 23.9031 32.0545 24.2378C32.546 24.5725 33.1086 24.6952 33.7424 24.606C34.6534 24.4776 35.2433 24.0057 35.5122 23.1902L37.3391 22.9329C37.1976 23.7203 36.8342 24.4027 36.249 24.98C35.6724 25.5459 34.9038 25.8966 33.9432 26.0319C33.161 26.1421 32.4335 26.0678 31.7608 25.8092C31.0967 25.5392 30.5417 25.1124 30.096 24.5289C29.6587 23.9341 29.3808 23.2158 29.2622 22.3741C29.1436 21.5324 29.2081 20.771 29.4555 20.0898C29.7114 19.3974 30.1219 18.8346 30.687 18.4015C31.262 17.9671 31.9506 17.6933 32.7526 17.5803C33.525 17.4715 34.2369 17.5429 34.8884 17.7945C35.5399 18.0461 36.0772 18.4551 36.5003 19.0216C36.9221 19.5783 37.1888 20.2526 37.3004 21.0448ZM35.4575 20.7591C35.3597 20.1367 35.0665 19.668 34.5778 19.3531C34.0891 19.0382 33.5229 18.9261 32.8792 19.0167C32.295 19.099 31.8215 19.3576 31.4586 19.7925C31.0943 20.2175 30.9172 20.7524 30.9272 21.3973L35.4575 20.7591Z" fill="#651C32"/>
<path d="M27.0173 18.5248L28.1703 26.7089L26.477 26.9475L26.341 25.982C26.121 26.3564 25.8072 26.6732 25.3994 26.9327C25.0001 27.1808 24.5578 27.339 24.0726 27.4074C23.429 27.4981 22.8309 27.446 22.2783 27.2512C21.7356 27.0549 21.2788 26.7153 20.9078 26.2324C20.5467 25.748 20.3138 25.1345 20.2092 24.3918L19.5312 19.5793L21.2097 19.3429L21.8521 23.9029C21.9553 24.6356 22.218 25.1743 22.6402 25.5187C23.061 25.8533 23.5882 25.976 24.222 25.8867C24.8557 25.7974 25.3286 25.5339 25.6405 25.0961C25.961 24.647 26.0697 24.056 25.9664 23.3233L25.3241 18.7633L27.0173 18.5248Z" fill="#651C32"/>
<path d="M17.3215 30.146L15.2332 28.4406C14.8058 28.6321 14.3247 28.7655 13.79 28.8409C12.8294 28.9762 11.9118 28.8782 11.037 28.547C10.1708 28.2045 9.44353 27.6657 8.85523 26.9306C8.27544 26.1841 7.9144 25.3059 7.77211 24.2959C7.62983 23.2859 7.73489 22.347 8.0873 21.4794C8.44962 20.6103 9.00043 19.8965 9.73974 19.3379C10.4876 18.768 11.3417 18.4154 12.3022 18.2801C13.2727 18.1434 14.191 18.2463 15.0572 18.5888C15.932 18.9201 16.6586 19.4539 17.237 20.1904C17.8154 20.927 18.1757 21.8002 18.318 22.8103C18.4519 23.7609 18.3653 24.6517 18.0582 25.4826C17.7596 26.3023 17.2817 26.9957 16.6244 27.563L19.4753 29.8426L17.3215 30.146ZM9.50995 24.0511C9.61737 24.8135 9.86076 25.466 10.2401 26.0084C10.628 26.5394 11.1116 26.9258 11.691 27.1673C12.2689 27.3989 12.8996 27.4666 13.5828 27.3704C14.2661 27.2741 14.8534 27.0349 15.3449 26.6526C15.835 26.2604 16.1881 25.7562 16.4043 25.14C16.6289 24.5125 16.6876 23.8175 16.5801 23.0551C16.4727 22.2926 16.2251 21.6458 15.8372 21.1147C15.4592 20.5823 14.9813 20.2002 14.4033 19.9686C13.8253 19.7369 13.1947 19.6692 12.5115 19.7655C11.8282 19.8617 11.2409 20.101 10.7494 20.4833C10.2579 20.8656 9.89914 21.3655 9.67307 21.9831C9.45692 22.5993 9.40254 23.2886 9.50995 24.0511Z" fill="#651C32"/>
<rect x="24.5371" y="58.302" width="61" height="17" rx="8.5" transform="rotate(-7.41061 24.5371 58.302)" fill="white"/>
<path d="M72.5096 61.0688C72.458 60.6802 72.4916 60.3298 72.6102 60.0175C72.7283 59.7005 72.913 59.443 73.1645 59.2449C73.4206 59.0462 73.7175 58.9244 74.0552 58.8796C74.3883 58.8355 74.6869 58.8688 74.9511 58.9797C75.2153 59.0906 75.422 59.2468 75.5711 59.4483L75.4791 58.7543L76.1175 58.6697L76.6218 62.4724L75.9834 62.5571L75.8895 61.8493C75.794 62.0879 75.6312 62.2978 75.401 62.4789C75.1749 62.6549 74.8976 62.7646 74.5691 62.8082C74.2314 62.8529 73.915 62.8102 73.62 62.6798C73.325 62.5495 73.0789 62.3444 72.8817 62.0645C72.6845 61.7847 72.5605 61.4528 72.5096 61.0688ZM75.7303 60.6488C75.6923 60.3619 75.6013 60.1198 75.4574 59.9223C75.3136 59.7249 75.1348 59.5838 74.9211 59.4992C74.7115 59.4093 74.4887 59.38 74.2528 59.4113C74.0169 59.4426 73.8091 59.5266 73.6295 59.6634C73.45 59.8002 73.3164 59.9827 73.229 60.2108C73.1416 60.4389 73.1169 60.6964 73.1549 60.9832C73.1936 61.2747 73.2851 61.5215 73.4296 61.7236C73.5735 61.921 73.7503 62.0647 73.9599 62.1546C74.1689 62.2398 74.3914 62.2668 74.6273 62.2355C74.8633 62.2042 75.071 62.1202 75.2506 61.9834C75.4342 61.8414 75.5697 61.6563 75.6571 61.4281C75.7439 61.1954 75.7683 60.9356 75.7303 60.6488Z" fill="#DA291C"/>
<path d="M70.62 60.0271C70.7022 59.7949 70.8371 59.6052 71.0247 59.4579C71.217 59.31 71.4611 59.2165 71.7572 59.1772L71.8437 59.8295L71.6771 59.8516C70.9693 59.9454 70.6664 60.3763 70.7682 61.1443L71.0424 63.2122L70.411 63.2959L69.9067 59.4932L70.5381 59.4095L70.62 60.0271Z" fill="#DA291C"/>
<path d="M67.6389 63.7272C67.2827 63.7744 66.9481 63.7364 66.6352 63.6131C66.3269 63.4892 66.0699 63.2903 65.8641 63.0163C65.6623 62.7371 65.5353 62.4009 65.4831 62.0076C65.4316 61.6191 65.4695 61.2657 65.5968 60.9475C65.728 60.6241 65.929 60.3644 66.1996 60.1685C66.4696 59.9679 66.785 59.8437 67.1458 59.7959C67.5066 59.748 67.8435 59.7857 68.1564 59.909C68.4688 60.0276 68.7278 60.2239 68.9336 60.4979C69.144 60.7713 69.2753 61.1046 69.3275 61.4978C69.3796 61.891 69.3378 62.2497 69.2018 62.5737C69.0699 62.8925 68.8667 63.1524 68.5921 63.3536C68.3175 63.5548 67.9998 63.6793 67.6389 63.7272ZM67.5653 63.172C67.792 63.142 67.9977 63.0605 68.1825 62.9278C68.3674 62.795 68.5058 62.6142 68.5978 62.3854C68.6945 62.1561 68.7226 61.8887 68.6821 61.5834C68.6416 61.2781 68.5472 61.027 68.3986 60.8301C68.2501 60.6333 68.072 60.4969 67.8642 60.4208C67.6558 60.3402 67.4382 60.3149 67.2116 60.345C66.9803 60.3757 66.7745 60.4571 66.5943 60.5893C66.4181 60.7162 66.2863 60.8937 66.1989 61.1219C66.1115 61.35 66.088 61.6167 66.1285 61.9221C66.1696 62.232 66.2598 62.486 66.399 62.6841C66.5429 62.8816 66.7167 63.0209 66.9205 63.1022C67.1237 63.1788 67.3386 63.2021 67.5653 63.172Z" fill="#DA291C"/>
<path d="M62.3384 60.4333C62.6668 60.3898 62.9632 60.4234 63.2274 60.5343C63.4962 60.6446 63.7052 60.8005 63.8543 61.002L63.7623 60.3081L64.4007 60.2234L64.916 64.1094C64.962 64.4563 64.9288 64.7738 64.8164 65.0617C64.7045 65.3543 64.5199 65.5953 64.2626 65.7848C64.0099 65.9737 63.7008 66.0923 63.3354 66.1408C62.8357 66.2071 62.4038 66.1443 62.0394 65.9526C61.675 65.7608 61.4358 65.4653 61.3216 65.0662L61.9462 64.9834C62.0462 65.2055 62.2142 65.3715 62.45 65.4815C62.6865 65.5961 62.9573 65.6331 63.2627 65.5926C63.6096 65.5466 63.8774 65.4005 64.066 65.1542C64.2592 64.9073 64.3298 64.5873 64.2776 64.194L64.1718 63.396C64.0763 63.6346 63.9158 63.8442 63.6903 64.0248C63.4647 64.2053 63.1877 64.3174 62.8593 64.361C62.5215 64.4057 62.2029 64.3633 61.9032 64.2335C61.6082 64.1032 61.3621 63.8981 61.1649 63.6183C60.9677 63.3384 60.8437 63.0065 60.7928 62.6225C60.7412 62.2339 60.7748 61.8835 60.8934 61.5712C61.0115 61.2542 61.1962 60.9967 61.4477 60.7986C61.7038 60.5999 62.0007 60.4781 62.3384 60.4333ZM64.0135 62.2025C63.9755 61.9156 63.8845 61.6735 63.7406 61.476C63.5968 61.2786 63.418 61.1375 63.2043 61.0529C62.9947 60.963 62.7719 60.9337 62.536 60.965C62.3001 60.9963 62.0923 61.0803 61.9127 61.2171C61.7332 61.3539 61.5996 61.5364 61.5122 61.7645C61.4248 61.9926 61.4001 62.2501 61.4381 62.537C61.4768 62.8284 61.5683 63.0752 61.7128 63.2773C61.8567 63.4747 62.0335 63.6184 62.2431 63.7083C62.4521 63.7936 62.6746 63.8205 62.9105 63.7892C63.1465 63.758 63.3542 63.6739 63.5338 63.5371C63.7174 63.3951 63.8529 63.21 63.9403 62.9819C64.0272 62.7491 64.0515 62.4893 64.0135 62.2025Z" fill="#DA291C"/>
<path d="M56.1033 63.2446C56.0518 62.856 56.0853 62.5056 56.204 62.1932C56.322 61.8763 56.5067 61.6188 56.7582 61.4207C57.0143 61.222 57.3112 61.1002 57.6489 61.0554C57.982 61.0112 58.2807 61.0446 58.5449 61.1555C58.8091 61.2664 59.0157 61.4226 59.1648 61.6241L59.0728 60.9301L59.7112 60.8455L60.2155 64.6482L59.5771 64.7328L59.4833 64.025C59.3878 64.2637 59.225 64.4735 58.9948 64.6547C58.7686 64.8306 58.4913 64.9404 58.1629 64.9839C57.8252 65.0287 57.5088 64.9859 57.2138 64.8556C56.9187 64.7253 56.6726 64.5202 56.4755 64.2403C56.2783 63.9605 56.1542 63.6286 56.1033 63.2446ZM59.324 62.8245C59.286 62.5377 59.1951 62.2956 59.0512 62.0981C58.9073 61.9006 58.7285 61.7596 58.5149 61.6749C58.3053 61.5851 58.0825 61.5558 57.8465 61.587C57.6106 61.6183 57.4028 61.7024 57.2233 61.8392C57.0437 61.976 56.9102 62.1584 56.8228 62.3866C56.7353 62.6147 56.7106 62.8722 56.7487 63.159C56.7873 63.4505 56.8789 63.6972 57.0234 63.8993C57.1673 64.0968 57.344 64.2405 57.5536 64.3304C57.7627 64.4156 57.9851 64.4426 58.2211 64.4113C58.457 64.38 58.6648 64.296 58.8443 64.1592C59.0279 64.0172 59.1634 63.8321 59.2509 63.6039C59.3377 63.3712 59.3621 63.1114 59.324 62.8245Z" fill="#DA291C"/>
<path d="M49.5643 64.1118C49.5127 63.7232 49.5463 63.3727 49.6649 63.0604C49.7829 62.7435 49.9677 62.486 50.2192 62.2879C50.4753 62.0891 50.7722 61.9674 51.1099 61.9226C51.443 61.8784 51.7416 61.9118 52.0058 62.0227C52.27 62.1336 52.4767 62.2898 52.6258 62.4912L52.5338 61.7973L53.1722 61.7127L53.6765 65.5154L53.0381 65.6L52.9442 64.8922C52.8487 65.1308 52.6859 65.3407 52.4557 65.5219C52.2296 65.6978 51.9523 65.8076 51.6238 65.8511C51.2861 65.8959 50.9697 65.8531 50.6747 65.7228C50.3797 65.5924 50.1336 65.3874 49.9364 65.1075C49.7392 64.8277 49.6152 64.4958 49.5643 64.1118ZM52.785 63.6917C52.747 63.4049 52.656 63.1628 52.5121 62.9653C52.3682 62.7678 52.1895 62.6268 51.9758 62.5421C51.7662 62.4522 51.5434 62.4229 51.3075 62.4542C51.0715 62.4855 50.8638 62.5696 50.6842 62.7064C50.5046 62.8432 50.3711 63.0256 50.2837 63.2538C50.1963 63.4819 50.1716 63.7394 50.2096 64.0262C50.2483 64.3177 50.3398 64.5644 50.4843 64.7665C50.6282 64.964 50.8049 65.1077 51.0146 65.1975C51.2236 65.2828 51.4461 65.3098 51.682 65.2785C51.918 65.2472 52.1257 65.1632 52.3053 65.0264C52.4889 64.8843 52.6244 64.6993 52.7118 64.4711C52.7986 64.2383 52.823 63.9786 52.785 63.6917Z" fill="#DA291C"/>
<path d="M47.3936 65.8683C47.6712 65.8315 47.8939 65.736 48.0618 65.582C48.2296 65.4279 48.3323 65.226 48.3698 64.9762L49.0498 64.886C49.0052 65.2591 48.8617 65.5794 48.6194 65.8469C48.3812 66.1092 48.0607 66.2835 47.6578 66.3699L47.7039 66.7169C47.9762 66.676 48.2013 66.705 48.3792 66.8038C48.557 66.9026 48.6607 67.0631 48.6901 67.2851C48.719 67.5026 48.6633 67.6865 48.5232 67.8369C48.3831 67.9873 48.1881 68.079 47.9383 68.1121L47.1403 68.218L47.086 67.8086L47.7591 67.7193C47.9118 67.699 48.0197 67.6612 48.083 67.6057C48.1509 67.5497 48.1775 67.4661 48.1627 67.3551C48.1486 67.2487 48.1015 67.1772 48.0213 67.1408C47.9458 67.1037 47.8317 67.0953 47.6791 67.1156L47.3321 67.1616L47.2336 66.4191C46.9101 66.429 46.6147 66.367 46.3475 66.233C46.0796 66.0943 45.8575 65.8931 45.6813 65.6293C45.5091 65.3603 45.3988 65.043 45.3503 64.6776C45.2982 64.2843 45.3314 63.9316 45.4501 63.6193C45.5681 63.3023 45.7552 63.0445 46.0113 62.8458C46.272 62.6464 46.5828 62.5228 46.9436 62.475C47.4108 62.413 47.8098 62.4754 48.1406 62.6623C48.476 62.8484 48.719 63.1363 48.8695 63.5259L48.1894 63.6161C48.094 63.3934 47.9425 63.2275 47.7351 63.1185C47.5322 63.0089 47.292 62.9725 47.0145 63.0093C46.6536 63.0572 46.3787 63.2207 46.1898 63.5C46.0003 63.7746 45.9356 64.1386 45.9957 64.592C46.0564 65.05 46.2144 65.3892 46.4696 65.6095C46.7248 65.8299 47.0328 65.9161 47.3936 65.8683Z" fill="#DA291C"/>
<path d="M44.7338 64.6182C44.7497 64.7384 44.7597 64.8666 44.7636 65.0026L41.7242 65.4057C41.797 65.7773 41.9632 66.0542 42.2227 66.2363C42.4863 66.4132 42.7846 66.4796 43.1177 66.4354C43.3906 66.3992 43.609 66.3067 43.7729 66.1579C43.9407 66.0038 44.0476 65.8154 44.0934 65.5928L44.7734 65.5026C44.7201 65.8816 44.5561 66.207 44.2815 66.4788C44.0062 66.746 43.6419 66.9096 43.1885 66.9697C42.8277 67.0176 42.4931 66.9796 42.1848 66.8557C41.8811 66.7312 41.6287 66.5317 41.4275 66.257C41.2257 65.9778 41.0988 65.6416 41.0466 65.2484C40.9945 64.8551 41.0274 64.5001 41.1454 64.1831C41.2635 63.8662 41.4531 63.6104 41.7145 63.4157C41.9798 63.2157 42.2976 63.0912 42.6676 63.0421C43.0285 62.9943 43.3581 63.0306 43.6565 63.1511C43.955 63.2715 44.1966 63.4607 44.3815 63.7187C44.5703 63.9714 44.6878 64.2712 44.7338 64.6182ZM44.064 64.5728C44.0321 64.3323 43.9516 64.1335 43.8225 63.9764C43.6928 63.8147 43.5296 63.7022 43.3329 63.6388C43.1402 63.5702 42.9328 63.5507 42.7107 63.5801C42.3915 63.6224 42.1321 63.7604 41.9324 63.994C41.7373 64.227 41.6476 64.5261 41.663 64.8912L44.064 64.5728Z" fill="#DA291C"/>
<path d="M40.2974 63.8083C40.3508 64.2108 40.2565 64.5646 40.0145 64.8697C39.7765 65.1696 39.3753 65.357 38.8109 65.4318L37.8811 65.5551L38.1489 67.5744L37.5174 67.6582L36.876 62.8215L38.4373 62.6145C38.9832 62.5421 39.4147 62.619 39.7319 62.8453C40.0537 63.0709 40.2422 63.3919 40.2974 63.8083ZM38.7419 64.9114C39.0935 64.8647 39.3424 64.754 39.4887 64.5793C39.635 64.4045 39.6895 64.1761 39.652 63.8939C39.5729 63.2971 39.191 63.0441 38.5063 63.1349L37.5765 63.2582L37.8121 65.0347L38.7419 64.9114Z" fill="#DA291C"/>
<g clip-path="url(#clip1_2490_4083)">
<path d="M85.0006 177.487C84.2587 176.989 83.2595 177.18 82.7615 177.922C82.7082 178.001 81.3734 179.868 78.6679 180.298C77.4023 180.499 76.4558 180.283 75.8198 180.007C75.4668 179.857 75.3411 179.421 75.5481 179.096L77.4425 176.134C78.5418 174.413 77.0954 172.203 75.0777 172.523L69.8547 173.353C67.8371 173.673 67.1466 176.223 68.7253 177.519L71.444 179.748C71.7414 179.992 71.757 180.446 71.4681 180.699C70.9485 181.157 70.1203 181.656 68.8501 181.857C66.1538 182.286 64.3176 180.936 64.2219 180.867C63.52 180.325 62.5106 180.452 61.9633 181.151C61.4122 181.854 61.5357 182.869 62.2391 183.42C62.3575 183.514 65.2163 185.707 69.357 185.049C71.659 184.683 73.1326 183.631 74.0213 182.714C75.1465 183.316 76.8774 183.854 79.1794 183.489C83.3202 182.831 85.3588 179.861 85.4422 179.734C85.9403 178.992 85.7472 177.984 85.0052 177.486L85.0006 177.487Z" fill="white"/>
<path d="M84.8853 157.228L94.3102 171.429L94.6815 171.991L94.6943 172.012C95.4408 173.219 95.9685 174.588 96.2045 176.074C96.238 176.285 96.2655 176.487 96.2799 176.697C96.3191 177.062 96.3385 177.421 96.3427 177.773C96.3443 177.96 96.3413 178.149 96.3323 178.329C96.3248 178.518 96.308 178.709 96.2944 178.89C96.2406 179.439 96.1419 179.972 96.0089 180.496L96.0135 180.495C95.7194 181.722 95.2762 182.78 94.7835 183.732C94.7114 183.871 94.6348 184.01 94.562 184.144C93.8328 185.472 93.0279 186.62 92.4388 187.795C92.3947 187.873 92.3474 187.96 92.3086 188.041C91.9857 188.643 91.7601 189.295 91.6427 189.976C91.609 190.09 91.5944 190.205 91.5813 190.329C91.57 190.406 91.564 190.487 91.5535 190.568C91.542 190.674 91.5327 190.793 91.5318 190.906C91.5211 191.016 91.5149 191.125 91.5232 191.236C91.5193 191.241 91.5215 191.255 91.523 191.264C91.5214 191.373 91.5251 191.485 91.5373 191.591C91.5441 191.694 91.5457 191.792 91.5586 191.903C91.5744 192.032 91.5902 192.161 91.612 192.299C91.7468 193.147 92.0376 193.942 92.4414 194.649L92.5756 194.872L94.4685 198.088L94.8077 198.655L90.4514 199.347L90.1122 198.78L89.0775 197.031L89.0821 197.03C88.325 195.815 87.7965 194.442 87.5584 192.942C87.3202 191.443 87.4028 189.921 87.7585 188.52C87.8381 188.192 87.9375 187.871 88.0476 187.557C88.1099 187.387 88.173 187.222 88.2361 187.057C88.3038 186.891 88.3729 186.734 88.4459 186.572C88.5134 186.435 88.5854 186.296 88.6483 186.159C88.6546 186.14 88.6654 186.119 88.6762 186.099C88.8793 185.69 89.1045 185.302 89.3349 184.917C89.4424 184.736 89.5552 184.558 89.6595 184.386C89.9702 183.886 90.2823 183.394 90.58 182.9C90.6735 182.749 90.7617 182.594 90.8553 182.443C91.7658 180.864 92.4539 179.218 92.2076 177.075C92.1926 176.951 92.1775 176.826 92.1578 176.702C92.1382 176.579 92.1139 176.456 92.0896 176.332C92.0455 176.114 91.9869 175.893 91.916 175.683C91.8787 175.567 91.8414 175.45 91.7965 175.345C91.6237 174.879 91.3942 174.44 91.1317 174.031L91.0147 173.856L86.3653 166.842L83.7007 162.823L80.6979 158.302L81.8895 152.693L82.5633 149.535L86.1791 132.548L89.6676 116.151L90.7158 111.236C91.133 109.275 90.7383 107.293 89.6105 105.638C88.4781 103.985 86.772 102.892 84.7989 102.576C84.1181 102.463 83.4289 102.445 82.7505 102.525C82.525 102.556 82.3004 102.592 82.0733 102.642L82.0091 102.652C80.9332 102.894 79.9165 103.389 79.0416 104.097C77.6829 105.192 76.7803 106.731 76.4804 108.424C76.4804 108.424 76.4794 108.428 76.4773 108.434C76.4206 108.758 76.383 109.084 76.3691 109.41L75.1916 136.658L74.5546 151.502L74.4049 155L74.3782 155.602L74.3792 155.667C73.1444 155.44 71.8387 155.389 70.5033 155.535C70.2435 155.558 69.9814 155.595 69.7201 155.636C69.4587 155.678 69.221 155.72 68.9808 155.777C67.6566 156.053 66.4395 156.501 65.3297 157.09L65.1008 156.478L63.8687 153.19L58.6392 139.268L56.2333 132.852C55.3543 130.514 53.4557 128.832 51.0206 128.241C48.5848 127.645 46.1273 128.275 44.2741 129.956L43.683 130.497L42.7375 131.352L40.6744 133.222L39.7989 134.014L28.7902 144C27.3436 145.311 26.5008 147.109 26.4249 149.058C26.3436 151.003 27.0347 152.868 28.3704 154.292C29.7355 155.753 31.5857 156.569 33.5863 156.585C35.5862 156.596 37.4508 155.816 38.845 154.381L46.7314 146.227L46.8168 146.143L49.4006 143.467L49.619 143.244L50.1469 142.69L57.3608 156.142L58.3476 157.974L58.3505 157.992L60.1651 161.366L60.1478 161.435L58.6628 166.767L57.3593 171.435L55.1119 179.545L55.0547 179.747C54.9368 180.188 54.8631 180.642 54.8442 181.115C54.8294 181.259 54.8259 181.414 54.8263 181.565C54.8238 181.786 54.8366 182.014 54.8624 182.236C54.8774 182.36 54.8925 182.485 54.9122 182.609C54.9319 182.733 54.9515 182.856 54.9758 182.979C55.733 186.681 58.7254 188.058 61.1284 190.46C61.1497 190.475 61.1618 190.492 61.1784 190.508C61.2806 190.619 61.392 190.728 61.4942 190.839C61.6138 190.97 61.7281 191.098 61.8438 191.235C61.9642 191.371 62.0708 191.509 62.1781 191.652C62.3791 191.911 62.5739 192.191 62.7511 192.477C63.5235 193.699 64.07 195.098 64.3118 196.621C64.5536 198.143 64.4685 199.59 64.1297 200.979L64.1343 200.979L63.6924 202.962L63.5455 203.606L59.1892 204.298L59.3361 203.654L60.1441 200.009L60.1979 199.756C60.3673 198.958 60.3929 198.113 60.2581 197.264C60.237 197.131 60.2121 197.004 60.1863 196.872C60.165 196.767 60.1444 196.667 60.11 196.569C60.0887 196.464 60.0529 196.357 60.0224 196.253C60.0209 196.244 60.0187 196.231 60.0134 196.227C59.986 196.114 59.9471 196.016 59.9028 195.915C59.8663 195.803 59.8167 195.698 59.7777 195.601C59.7417 195.522 59.7117 195.452 59.6771 195.382C59.6307 195.267 59.5772 195.168 59.5093 195.066C59.1541 194.398 58.6938 193.808 58.1434 193.303C56.4679 191.604 54.1631 190.236 52.4311 187.441C52.425 187.432 52.4175 187.415 52.4069 187.407L52.4115 187.406C52.3685 187.343 52.33 187.278 52.2909 187.209C52.235 187.124 52.1777 187.03 52.1303 186.939C52.0399 186.784 51.9527 186.619 51.8707 186.458C51.6354 185.983 51.43 185.489 51.263 184.97C51.1787 184.706 51.093 184.433 51.0356 184.16C50.9569 183.872 50.8996 183.57 50.8515 183.268C50.6148 181.777 50.6932 180.317 51.0289 178.938L51.0344 178.914L51.2134 178.265L55.8114 161.719L55.8523 161.562L53.2489 156.715L49.2344 149.229L48.8266 149.651L48.7736 149.702L41.6166 157.091C39.4799 159.297 36.6098 160.495 33.5375 160.48C30.4637 160.456 27.6222 159.201 25.5173 156.959C23.4669 154.765 22.4063 151.906 22.5322 148.91C22.6582 145.914 23.9487 143.147 26.1686 141.139L37.7938 130.595L39.4088 129.131L40.7324 127.933L41.6532 127.101C41.9945 126.793 42.3486 126.506 42.7169 126.25C45.3656 124.367 48.7156 123.703 51.9149 124.488C52.404 124.608 52.8838 124.757 53.3404 124.939C53.705 125.074 54.0602 125.238 54.4032 125.414C56.8835 126.675 58.8388 128.833 59.8458 131.503L62.5167 138.61L67.2411 151.188L67.5015 151.88C68.0071 151.748 68.5276 151.651 69.0595 151.566C69.5915 151.482 70.1362 151.419 70.6663 151.382L70.6709 151.381L70.672 151.329L70.6994 150.643L71.2757 137.252L72.4764 109.262C72.5046 108.67 72.5801 108.08 72.6998 107.502C73.209 104.995 74.5736 102.724 76.5867 101.102C77.9485 99.9968 79.5306 99.2425 81.2066 98.8728C81.5653 98.7924 81.9268 98.7303 82.2966 98.6903C82.4486 98.6709 82.5915 98.6529 82.7404 98.6433C82.9589 98.6274 83.1826 98.6154 83.4025 98.6087L83.4208 98.6058C84.0873 98.5987 84.7487 98.6488 85.4196 98.7585C88.447 99.2602 91.0678 100.931 92.8003 103.463C94.5389 106.003 95.1362 109.053 94.4949 112.06L89.1473 137.206L88.0602 142.319L88.0453 142.374L84.8861 157.233L84.8853 157.228Z" fill="white"/>
</g>
</g>
<defs>
<clipPath id="clip0_2490_4083">
<rect width="117" height="203" fill="white"/>
</clipPath>
<clipPath id="clip1_2490_4083">
<rect width="77.8296" height="99.1086" fill="white" transform="translate(16 109.208) rotate(-9.02481)"/>
</clipPath>
</defs>
</svg>
