<svg width="60" height="52" viewBox="0 0 60 52" fill="none" xmlns="http://www.w3.org/2000/svg">
<g clip-path="url(#clip0_1343_1341)">
<path d="M59.1301 50.2221H54.2454V27.8308C57.3903 27.5078 59.8439 25.3979 59.8662 22.8358V22.8143C59.8662 22.7927 59.8662 22.7927 59.8662 22.7927C59.8662 22.7712 59.8662 22.7497 59.8662 22.7282C59.8662 22.7066 59.8662 22.6851 59.8662 22.6851V22.6636L56.2974 4.85815C56.2751 4.77203 56.2528 4.68591 56.2082 4.59979V1.21956C56.1859 0.767425 55.8067 0.379883 55.316 0.379883H5.30855C4.84015 0.379883 4.43866 0.767425 4.43866 1.21956V4.59979C4.39405 4.66438 4.37175 4.7505 4.34944 4.85815L0.780669 22.6636V22.6851C0.780669 22.7066 0.780669 22.7282 0.780669 22.7282C0.780669 22.7497 0.780669 22.7712 0.780669 22.7927V22.8143V22.8358C0.802974 25.3764 3.2342 27.4863 6.40149 27.8308V50.2221H0.869888C0.379182 50.2221 0 50.6097 0 51.0618C0 51.5355 0.379182 51.9015 0.869888 51.9015H59.1301C59.6208 51.9015 60 51.5355 60 51.0618C60 50.6097 59.6208 50.2221 59.1301 50.2221ZM24.3569 5.84853L23.2639 22.276C23.1747 22.4052 23.1301 22.5559 23.1301 22.7066C23.1301 24.8381 21.0335 26.5605 18.4461 26.5605C15.881 26.5605 13.7844 24.8596 13.7621 22.7497L16.0149 5.84853H24.3569ZM44.632 5.84853L46.8848 22.7497C46.8625 24.8596 44.7658 26.5605 42.2007 26.5605C39.6134 26.5605 37.4944 24.8166 37.4944 22.7066C37.4944 22.5559 37.4498 22.4052 37.3606 22.276L36.2677 5.84853H44.632ZM34.5279 5.84853L35.6431 22.5774C35.6208 22.6636 35.5985 22.7282 35.5985 22.8143C35.5985 25.118 33.2342 26.9696 30.3123 26.9696C27.3903 26.9696 25.026 25.0965 25.026 22.8143C25.026 22.7282 25.0037 22.642 24.9814 22.5774L26.0967 5.84853H34.5279ZM24.0446 25.4409C25.2045 27.3571 27.5911 28.6705 30.3123 28.6705C33.0558 28.6705 35.4201 27.3571 36.5799 25.4409C37.6952 27.1203 39.7695 28.2399 42.1784 28.2399C44.5874 28.2399 46.7063 27.0772 47.7993 25.3979C48.803 26.6897 50.4981 27.6155 52.5056 27.8308V50.2221H21.8141V27.4432C22.7286 26.9481 23.5093 26.2591 24.0446 25.4409ZM58.1264 22.8789C58.0818 24.7089 55.9628 26.1945 53.3755 26.1945C50.7658 26.1945 48.6245 24.6874 48.6245 22.8143V22.7927C48.6245 22.7712 48.6245 22.7712 48.6245 22.7497V22.7066C48.6245 22.7066 48.6245 22.7066 48.6245 22.6851L46.3717 5.827H54.7138L58.1264 22.8789ZM6.17844 2.05923H54.4461V4.16918H6.17844V2.05923ZM2.49814 22.8789L5.91078 5.84853H14.2528L12 22.7066C12 22.7066 12 22.7066 12 22.7282V22.7712C12 22.7927 12 22.7927 12 22.8143C12 22.8143 12 22.8143 12 22.8358C12 24.6874 9.85874 26.216 7.24907 26.216C4.66171 26.1945 2.54275 24.7305 2.49814 22.8789ZM8.11896 27.8308C10.1264 27.6155 11.8216 26.7112 12.8253 25.3979C13.9182 27.0988 16.0372 28.2399 18.4461 28.2399C19.0037 28.2399 19.5613 28.1753 20.0744 28.0676V50.2221H8.11896V27.8308Z" fill="#FFE5DE"/>
<path d="M16.1933 36.6582C15.7026 36.6582 15.3234 37.0457 15.3234 37.4979V40.3614C15.3234 40.835 15.7249 41.2011 16.1933 41.2011C16.684 41.2011 17.0632 40.835 17.0632 40.3614V37.4979C17.0632 37.0242 16.6617 36.6582 16.1933 36.6582Z" fill="#FFE5DE"/>
<path d="M35.2416 43.3541C35.4424 43.3541 35.6431 43.2895 35.7992 43.1603L45.9033 34.9789C46.2825 34.6774 46.3271 34.1607 46.0148 33.7947C45.7026 33.4502 45.1673 33.3856 44.7881 33.6871L34.684 41.8685C34.3048 42.1699 34.2602 42.6866 34.5725 43.0527C34.7509 43.268 34.9963 43.3541 35.2416 43.3541Z" fill="#FFE5DE"/>
<path d="M39.7249 43.763C39.3457 44.0644 39.3011 44.6026 39.6134 44.9471C39.7918 45.1409 40.0372 45.2485 40.2825 45.2485C40.4833 45.2485 40.684 45.184 40.8402 45.0548L46.8402 40.189C47.197 39.8875 47.2639 39.3493 46.9517 39.0048C46.6394 38.6388 46.0818 38.5957 45.7249 38.8972L39.7249 43.763Z" fill="#FFE5DE"/>
</g>
<defs>
<clipPath id="clip0_1343_1341">
<rect width="60" height="51.5216" fill="white" transform="translate(0 0.379883)"/>
</clipPath>
</defs>
</svg>
