<svg width="160" height="45" viewBox="0 0 160 45" fill="none" xmlns="http://www.w3.org/2000/svg">
<path d="M140.834 27.5971C140.053 26.8157 139.066 26.281 137.996 26.0754L134.5 25.3351C133.637 25.1294 133.184 24.7181 133.184 24.1012C133.184 23.4843 133.349 23.3609 133.637 23.1141C134.089 22.7851 134.624 22.6206 135.158 22.7028C135.858 22.7028 136.516 22.8674 137.092 23.2375C137.585 23.5665 137.873 24.1012 137.955 24.7181L141.657 23.9778C141.41 22.7028 140.67 21.5924 139.559 20.8521C138.284 20.0295 136.804 19.6182 135.323 19.6593C133.76 19.5771 132.238 20.0706 131.005 21.0166C129.935 21.8391 129.359 23.1553 129.359 24.5125C129.359 25.4996 129.73 26.4867 130.429 27.1858C131.292 27.9673 132.321 28.502 133.472 28.6665L136.433 29.2834C137.503 29.5302 138.037 29.9415 138.037 30.5995C138.037 31.0108 137.791 31.4221 137.421 31.6688C136.927 31.9567 136.351 32.1213 135.734 32.0801C133.884 32.0801 132.896 31.4221 132.732 30.106L128.825 30.8874C128.948 32.2446 129.73 33.4785 130.922 34.1365C132.28 34.8769 133.801 35.247 135.364 35.2059C137.009 35.2881 138.654 34.8357 140.012 33.9309C141.163 33.1083 141.821 31.7511 141.739 30.3116C141.739 29.3245 141.41 28.4197 140.752 27.6794L140.834 27.5971ZM109.947 30.8052C109.206 31.2164 108.384 31.4632 107.52 31.5043C106.081 31.5043 105.382 30.6406 105.382 28.9955V23.2375H110.152V20.0706H103.777C104.765 19.0835 105.299 17.7674 105.217 16.3691V14.9707H102.05V16.3691C102.05 18.3844 100.405 20.0706 98.3485 20.0706V23.2375H101.474V29.2834C101.351 30.8874 101.886 32.4914 102.996 33.643C104.148 34.6712 105.669 35.1648 107.191 35.0825C108.507 35.0825 109.823 34.6712 110.975 34.0132L109.864 30.8052H109.947ZM75.3166 20.0706V26.5278C75.3166 29.8592 74.1239 31.5455 71.6973 31.5455C70.8747 31.5455 70.0933 31.2164 69.5586 30.5995C68.9828 29.9003 68.6949 28.9955 68.7361 28.1318V20.0706H64.87V28.9544C64.7877 30.5995 65.3635 32.1624 66.474 33.3962C67.5845 34.5478 69.1062 35.1648 70.7102 35.0825C72.3965 35.1648 74.0828 34.5067 75.2755 33.314V34.6301H79.1415V20.0295H75.2755L75.3166 20.0706ZM95.3873 21.3456C94.2768 20.194 92.7551 19.5771 91.1511 19.6593C89.4648 19.5771 87.7785 20.2351 86.5447 21.4279V20.1118H82.6786V34.7124H86.5447V28.2552C86.5447 24.9238 87.7374 23.2375 90.164 23.2375C90.9866 23.2375 91.768 23.5665 92.3026 24.1835C92.8784 24.8827 93.1664 25.7875 93.0841 26.6512V34.7124H96.9502V25.8286C97.0324 24.1835 96.4566 22.6206 95.3462 21.3867L95.3873 21.3456ZM125.164 21.8803C123.684 20.4408 121.668 19.7005 119.612 19.7416C117.514 19.7005 115.499 20.4819 113.977 21.8803C113.977 21.8803 113.936 21.9214 113.895 21.9625C110.893 25.006 110.934 29.9003 113.977 32.9027C115.499 34.3422 117.514 35.1236 119.612 35.0825C120.064 35.0825 120.558 35.0825 121.01 35.0002C122.573 34.7535 124.013 34.0543 125.205 32.9438C125.205 32.9438 125.205 32.9438 125.247 32.9027C125.658 32.4914 125.987 32.039 126.316 31.5866C128.208 28.5842 127.838 24.5536 125.205 21.9214L125.164 21.8803ZM122.491 30.5172C121.751 31.2987 120.722 31.71 119.612 31.71H119.489C117.144 31.6277 115.335 29.6947 115.417 27.3504V27.227C115.417 24.8827 117.309 22.9907 119.653 22.9907C120.722 22.9907 121.751 23.4432 122.532 24.2246C123.396 25.0472 123.848 26.1988 123.807 27.3915C123.848 28.5842 123.396 29.6947 122.532 30.5584L122.491 30.5172ZM154.859 20.1118V14.9707H151.445V20.1118H146.304V23.5254H151.445V28.6665H154.859V23.5254H160V20.1118H154.859ZM57.5903 14.9707V27.6794C57.5903 28.6665 57.2612 29.6536 56.6032 30.3939C55.1637 31.7922 52.8605 31.8334 51.3799 30.4761C50.7218 29.7769 50.3105 28.831 50.1871 27.8439L46.4033 28.6253C46.6501 30.435 47.5138 32.0801 48.871 33.314C50.2694 34.5067 52.1202 35.1648 53.971 35.0825C56.0274 35.1648 58.0015 34.4245 59.4822 32.985C60.8805 31.5866 61.662 29.6536 61.6208 27.6794V14.9707H57.6314H57.5903Z" fill="white"/>
<path d="M24.6054 34.4244C24.3175 34.1365 23.865 34.1776 23.6183 34.4244C23.6183 34.4244 22.878 35.1647 21.6852 35.1647C20.4925 35.1647 20.7393 35.0002 20.4514 34.8357C20.328 34.7534 20.2869 34.5478 20.4102 34.4244L21.4385 33.2728C22.0554 32.6148 21.5619 31.5454 20.657 31.5454H18.3127C17.4079 31.5454 16.9555 32.6148 17.5313 33.2728L18.5595 34.4244C18.6829 34.5478 18.6417 34.7534 18.5183 34.8357C18.2716 35.0002 17.8603 35.1647 17.2845 35.1647C16.0918 35.1647 15.3926 34.4655 15.3515 34.4244C15.0636 34.1365 14.6523 34.1365 14.3644 34.4244C14.0765 34.7123 14.0765 35.1236 14.3644 35.4115C14.4055 35.4526 15.516 36.6042 17.3668 36.6042C19.2175 36.6042 19.0941 36.2341 19.5466 35.905C19.999 36.2341 20.6982 36.6042 21.7264 36.6042C23.5771 36.6042 24.6465 35.4526 24.7287 35.4115C25.0166 35.1236 24.9755 34.6712 24.7287 34.3833L24.6054 34.4244Z" fill="white"/>
<path d="M25.9623 25.623L29.0881 32.4503L29.2115 32.7382C29.4582 33.314 29.5816 33.9721 29.5816 34.6302C29.5816 35.2882 29.5816 34.7947 29.5816 34.9181C29.5816 35.0826 29.5816 35.2471 29.5405 35.3705C29.5405 35.4527 29.5405 35.535 29.4994 35.6172C29.4994 35.6995 29.4994 35.7817 29.4582 35.864C29.376 36.1108 29.3349 36.3164 29.2115 36.5221C29.0058 37.0156 28.7179 37.468 28.4712 37.8382C28.4712 37.8793 28.3889 37.9616 28.3478 38.0027C27.9365 38.5374 27.5252 38.9898 27.155 39.4422C27.155 39.4422 27.1139 39.5244 27.0728 39.5244C26.9083 39.7712 26.7438 40.018 26.6615 40.3059C26.6615 40.347 26.6615 40.3881 26.6204 40.4704C26.6204 40.4704 26.6204 40.5526 26.6204 40.5938C26.6204 40.6349 26.6204 40.676 26.6204 40.7583C26.6204 40.7994 26.6204 40.8405 26.6204 40.8817C26.6204 40.9228 26.6204 40.9639 26.6204 41.0051C26.6204 41.0462 26.6204 41.0873 26.6204 41.1284C26.6204 41.1696 26.6204 41.2518 26.6204 41.293C26.6204 41.6631 26.7026 42.0333 26.826 42.3623V42.4857C26.8672 42.4857 27.4841 44.0074 27.4841 44.0074L27.6074 44.2953H25.6744L25.551 44.0074L25.222 43.1849C24.9752 42.6091 24.8518 41.951 24.8518 41.293C24.8518 40.6349 24.9752 39.9768 25.2631 39.4011C25.3043 39.2777 25.3865 39.1132 25.4688 38.9898C25.4688 38.9075 25.551 38.8664 25.5922 38.7841C25.5922 38.7019 25.6744 38.6607 25.7156 38.5785C25.7156 38.5374 25.7978 38.4551 25.8389 38.414C25.9623 38.2495 26.0857 38.0849 26.2091 37.9616C26.2502 37.8793 26.3325 37.8382 26.3736 37.7559C26.5381 37.5503 26.7026 37.3858 26.8671 37.1801L27.0317 37.0156C27.5252 36.3987 27.9365 35.7406 27.9776 34.7947C27.9776 34.7535 27.9776 34.6713 27.9776 34.6302C27.9776 34.589 27.9776 34.5068 27.9776 34.4656C27.9776 34.3834 27.9776 34.26 27.9776 34.1777C27.9776 34.1366 27.9776 34.0544 27.9776 34.0132C27.9365 33.8076 27.8542 33.6019 27.772 33.3963V33.314L26.2091 29.9415L25.3454 28.0085L24.3583 25.8287L25.2631 23.4843L25.7567 22.1682L28.5123 15.0119L31.1445 8.10231L31.9259 6.04589C32.255 5.22332 32.2138 4.31849 31.8437 3.53705C31.4735 2.75561 30.8155 2.13868 29.9518 1.89191C29.6639 1.80965 29.376 1.7274 29.0469 1.7274C28.9647 1.7274 28.8413 1.7274 28.759 1.7274C28.2655 1.7274 27.8131 1.89191 27.3607 2.13868C26.7026 2.50884 26.2091 3.12577 25.9623 3.82495C25.9212 3.94834 25.8801 4.11285 25.8389 4.23624L23.4535 15.999L22.1374 22.415L21.8495 23.9368V24.1835C21.8083 24.1835 21.8083 24.1835 21.8083 24.1835C21.2737 24.019 20.739 23.8956 20.1221 23.8545C19.9987 23.8545 19.8753 23.8545 19.793 23.8545C19.7108 23.8545 19.5874 23.8545 19.464 23.8545C18.8882 23.8545 18.3124 23.9779 17.7778 24.1835V23.8956C17.7366 23.8956 17.4076 22.3739 17.4076 22.3739L16.0915 15.9578L15.4746 12.9966C15.2689 11.9272 14.5286 11.0636 13.5415 10.6523C12.5133 10.241 11.4029 10.3232 10.498 10.9402L10.2101 11.1458L9.75772 11.4337L8.72951 12.0918L8.27708 12.3797L2.80701 15.9578C2.10782 16.4103 1.61429 17.1506 1.44977 18.0143C1.28526 18.8368 1.44978 19.7005 1.94332 20.4408C2.43686 21.1812 3.17716 21.6336 4.04086 21.7981C4.90456 21.9215 5.76826 21.7158 6.46745 21.2223L10.4569 18.2199H10.498L11.8141 17.1917L11.9375 17.1094L12.2254 16.9038L14.4463 23.2376L14.7343 24.1013L15.2689 25.7053L14.2407 27.9673L13.3359 29.9004L11.8141 33.2729V33.3552C11.6908 33.5197 11.6496 33.7253 11.6085 33.931C11.6085 34.0132 11.6085 34.0543 11.6085 34.1366C11.6085 34.2189 11.6085 34.3423 11.6085 34.4245C11.6085 34.4656 11.6085 34.5479 11.6085 34.589C11.6085 34.6301 11.6085 34.7124 11.6085 34.7535C11.6908 36.3987 12.8835 37.2212 13.7472 38.414C13.7472 38.4551 13.8294 38.5374 13.8706 38.5785C13.9117 38.6607 13.9528 38.7019 13.9939 38.7841C14.0351 38.8664 14.0762 38.9075 14.1173 38.9898C14.1996 39.1132 14.2407 39.2365 14.323 39.4011C14.5697 39.9768 14.7343 40.6349 14.7343 41.293C14.7343 41.951 14.6109 42.6091 14.3641 43.1849L14.0351 44.0074L13.9117 44.2953H11.9786L12.102 44.0074L12.7189 42.4857V42.3623C12.8835 42.0333 12.9657 41.6631 12.9657 41.293C12.9657 40.9228 12.9657 41.1696 12.9657 41.1284C12.9657 41.0873 12.9657 41.0462 12.9657 41.0051C12.9657 40.9639 12.9657 40.9228 12.9657 40.8817C12.9657 40.8405 12.9657 40.7994 12.9657 40.7583C12.9657 40.7172 12.9657 40.676 12.9657 40.5938C12.9657 40.5938 12.9657 40.5115 12.9657 40.4704C12.9657 40.4293 12.9657 40.3881 12.9246 40.3059C12.8012 39.9768 12.6367 39.689 12.4722 39.4422C11.8553 38.5785 10.9504 37.8382 10.3746 36.4809V36.3987C10.3746 36.3987 10.3746 36.3164 10.3335 36.2753C10.3335 36.193 10.2924 36.1108 10.2512 36.0285C10.169 35.8229 10.1279 35.5761 10.0867 35.3293C10.0867 35.206 10.0867 35.0826 10.0456 34.9592C10.0456 34.8358 10.0456 34.7124 10.0456 34.5479C10.0456 33.8898 10.169 33.2729 10.4158 32.6971L10.5391 32.4092L13.6649 25.5408V25.4585L12.8835 23.1553L11.6496 19.6183L11.444 19.7828L7.82468 22.5384C6.75534 23.361 5.39809 23.69 4.08198 23.4432C2.76587 23.2376 1.61429 22.4973 0.832847 21.3457C0.0925347 20.2352 -0.154231 18.9191 0.0925398 17.6441C0.33931 16.3691 1.12074 15.2175 2.19008 14.5183L7.98918 10.7345L8.81175 10.1999L9.46982 9.78858L9.92222 9.50067C10.0867 9.37729 10.2512 9.29504 10.4569 9.21278C11.7319 8.59585 13.2536 8.51359 14.5697 9.08939C14.7754 9.17164 14.981 9.25391 15.1455 9.37729C15.3101 9.45955 15.4334 9.5418 15.5568 9.66518C16.5439 10.3644 17.2431 11.4748 17.4899 12.7087L18.1479 15.999L19.3406 21.7981L19.4229 22.1271C19.6697 22.1271 19.8753 22.1271 20.1221 22.1271C20.3688 22.1271 20.6156 22.1271 20.8213 22.1271L20.8624 21.7981L22.0551 15.999L24.5228 3.9072C24.5639 3.66043 24.6462 3.41367 24.7285 3.16689C25.1397 2.09756 25.8801 1.23386 26.8671 0.658058C27.5252 0.287902 28.2655 0.0411284 29.0469 0C29.2115 0 29.376 0 29.5405 0C29.6227 0 29.6639 0 29.7461 0C29.8284 0 29.9518 0 30.034 0C30.3219 0.0411284 30.6098 0.123385 30.8977 0.205642C32.1727 0.616927 33.2009 1.52176 33.7767 2.75561C34.3525 3.98946 34.3936 5.3467 33.9001 6.62168L29.8284 17.1917L29.0058 19.3304L26.6204 25.5819L25.9623 25.623Z" fill="white"/>
</svg>
