<svg width="268" height="53" viewBox="0 0 268 53" fill="none" xmlns="http://www.w3.org/2000/svg">
<rect width="95" height="53" fill="white"/>
<g clip-path="url(#clip0_2468_4955)">
<rect width="87" height="45" transform="translate(4 4)" fill="white"/>
<path d="M90.9177 4H4.03809V49H90.9177V4Z" fill="#ED1C24"/>
<path d="M91 24.915H4V29.2853H91V24.915Z" fill="white"/>
<path fill-rule="evenodd" clip-rule="evenodd" d="M31.865 13.5156C32.5548 12.31 32.2592 11.1959 31.7665 11.1959C31.1752 11.1959 30.688 11.9709 30.5402 12.6006C30.7373 12.8428 31.0822 13.4671 31.865 13.5156ZM30.146 12.9397C30.4417 13.6178 31.4216 14.0538 31.6679 14.0538C30.7865 16.5672 28.6734 17.8697 28.6734 16.3735C28.6734 15.4047 29.6095 13.8546 30.146 12.9397ZM42.469 11.1474C42.7646 11.1474 42.7646 11.5349 42.6168 11.874C42.469 12.2131 40.7008 15.8837 40.7008 15.8837C40.1095 17.0893 39.0803 17.0893 39.0803 16.4165C39.0803 15.4047 41.0457 11.1474 42.469 11.1474ZM57.2446 7.62213C57.4909 10.0387 55.7227 12.5522 54.7427 12.5522C53.5657 12.5522 54.2008 9.69963 57.2446 7.62213ZM58.3778 15.2109C58.8705 15.2109 59.3577 16.0344 58.5256 17.676C57.8413 17.5306 57.2993 17.2884 57.25 16.4219C57.5402 15.6469 57.7373 15.2109 58.3778 15.2109ZM56.7573 16.9978C57.053 17.8213 58.1807 18.2518 58.1807 18.2518C57.2993 20.3778 56.511 21.0075 56.0183 21.0075C55.0384 21.0075 54.9891 19.5597 56.7573 16.9978ZM68.2427 15.6469C67.9471 16.2766 66.1296 19.705 66.1296 19.705C65.6369 20.7222 64.2136 21.4919 64.4599 20.3347C65.2482 17.0462 67.9964 14.0484 68.2427 15.6469ZM32.4563 13.5156C33.6333 13.3218 34.3723 12.4499 34.3723 12.4499C35.7957 10.5662 36.584 10.3724 37.3176 10.3724C39.1351 10.3724 38.5438 13.3702 37.219 13.3702C36.7263 13.3702 36.5292 11.7287 37.9581 11.7287C38.1059 11.4381 37.8595 11.1959 37.5639 11.1959C36.3376 11.1959 34.2245 15.1087 34.2245 16.5134C34.2245 17.24 34.6679 17.3853 34.9636 17.3853C35.407 17.3853 36.2391 17.4822 39.4307 12.1646C40.8048 10.2325 42.2774 9.89339 43.115 10.9106L43.4106 10.4262H45.0803L42.2829 16.0828C41.938 17.0032 42.6278 17.676 44.2975 14.4413H44.7902C42.8741 19.1776 39.4417 19.5166 40.126 17.2454C38.3084 19.2744 36.5402 19.0807 37.1314 16.3735C35.3139 19.5166 30.1132 19.9526 33.3541 13.86C32.8121 14.1022 32.2263 14.1022 32.2263 14.1022C31.6351 15.986 29.5767 18.6447 28.0548 18.6447C26.6807 18.6447 26.73 17.3423 26.73 17.0516C26.73 14.4413 29.5274 10.48 31.6898 10.48C32.8942 10.4747 33.042 12.0193 32.4563 13.5156ZM46.4161 10.4747H47.9873L47.084 12.2131H45.5128L46.4161 10.4747ZM57.4909 6.89554C60.584 5.20555 63.3322 7.62213 64.6077 8.44021C64.3121 8.73085 63.3322 10.1302 63.3322 10.1302C61.6624 9.11298 59.2592 6.74484 57.7865 7.47143C58.0822 9.69425 56.3632 13.1281 54.5457 13.1281C52.4818 13.1281 53.6643 9.21524 56.8997 7.22923C56.8997 7.22923 56.8504 6.98704 56.5055 6.98704C53.9052 6.98704 47.9161 15.2056 47.9161 19.6512C47.9161 21.1474 48.7975 21.5834 49.438 21.5834C50.7135 21.5834 53.5603 19.409 53.5603 16.169C53.5603 14.9149 51.9891 14.479 51.3541 18.0527C50.7628 18.0527 50.0292 18.4402 49.0931 19.7911C49.6844 15.9752 51.3541 14.4736 52.7774 14.4736C53.5165 14.4736 54.1022 14.7642 54.1022 16.212C54.1022 19.7857 50.6643 22.7352 48.6059 22.7352C46.8376 22.7352 45.5621 21.3358 45.5621 19.2099C45.5621 15.5285 50.9982 6.29274 56.2099 6.29274C56.949 6.30889 57.3212 6.68564 57.4909 6.89554ZM66.4252 8.92461C66.4252 8.92461 65.5384 10.0387 65.1989 10.8084C67.4106 11.0505 70.5475 10.1786 72.5621 5.92676C69.8139 9.50588 66.4252 8.92461 66.4252 8.92461ZM59.0621 17.5791C59.407 17.5791 59.8011 17.4338 59.8011 17.4338C61.865 11.2497 66.3322 6.22278 68.4891 6.22278C69.2719 6.22278 69.469 7.14312 68.834 8.49404L68.2427 8.63935C68.7354 7.52525 68.6862 6.94936 68.4398 6.94936C67.1643 6.94936 64.6624 10.4316 62.0073 16.4219C63.5292 15.3078 65.4453 13.4241 66.8194 11.0075C67.1643 10.9591 67.4599 10.8137 67.4599 10.8137C66.0858 13.4725 64.4654 15.1625 61.6187 17.4822C60.7373 20.0441 60.7865 21.0129 61.4216 21.0129C61.8157 21.0129 63.4362 18.6932 63.9727 17.5306C64.6625 16.1313 67.2628 13.1334 68.6369 14.9203L68.7847 14.3875H70.3559L67.6077 20.2378C67.3614 21.0613 68.2975 20.9644 69.6223 18.5479H70.115C68.1497 22.7997 65.1552 23.5748 65.5 21.2551C63.6333 23.381 62.2592 22.8482 62.5548 20.6738C60.5895 23.817 57.9398 23.4295 59.5603 18.2088C59.2154 18.3541 58.7774 18.2572 58.7774 18.2572C57.2062 21.9278 55.5365 22.7029 54.7537 22.7029C53.9216 22.7029 53.4781 21.831 53.4781 21.0613C53.4781 18.4994 56.4234 14.3929 58.3395 14.3929C59.9927 14.3875 59.5548 16.804 59.0621 17.5791ZM31.2683 6.21739C33.6442 6.21739 32.4891 9.53817 31.4216 9.53817C30.5019 9.53817 30.6552 7.9935 32.1497 7.8428C32.2592 7.43375 32.0128 6.9386 31.5749 6.9386C29.3906 6.9386 24.146 14.1022 24.146 18.4456C24.146 21.0882 26.1771 21.9171 27.5183 21.9171C29.9325 21.9171 34.2957 19.6189 37.8595 19.6189C41.5767 19.6189 43.2245 21.3143 44.6424 22.7136C42.1898 21.3197 39.6223 21.0936 38.4344 22.7136C37.3997 20.9429 35.5657 21.0183 34.9854 21.0183C31.3449 21.0183 29.1606 22.789 26.0183 22.789C23.2592 22.789 21.7646 20.6738 21.7646 18.6017C21.7646 12.1754 28.2792 6.21739 31.2683 6.21739Z" fill="white"/>
<path fill-rule="evenodd" clip-rule="evenodd" d="M68.7409 35.9159L68.8833 35.9374C68.8833 35.9374 68.9763 35.9751 68.9709 35.9159C68.9709 35.8567 68.6807 32.0677 68.6807 32.0677C68.6807 32.0677 66.469 30.959 63.7866 31.0182C61.1041 31.0774 58.2245 32.9665 58.6077 36.0343C58.9909 39.1021 61.3997 40.3131 61.6461 40.4584C62.3085 40.8513 65.2263 41.7394 64.8048 43.2302C64.3833 44.7264 61.8431 44.9417 59.4015 41.4972C59.4015 41.4972 59.084 41.1419 59.084 41.5348V45.3508C59.084 45.3508 61.2574 47.5628 65.5548 46.9062C69.8523 46.2496 69.7701 41.8954 69.7701 41.8954C69.7701 41.8954 70.0384 38.1979 65.7409 36.4164C62.7574 35.1785 63.1515 34.1882 63.4471 33.8438C63.7428 33.5101 65.5001 32.3153 68.7409 35.9159Z" fill="white"/>
<path fill-rule="evenodd" clip-rule="evenodd" d="M73.8051 31.1475H73.9201L81.7595 45.2379C81.7595 45.2379 82.1646 46.1152 83.2157 46.2766C83.2157 46.2766 83.473 46.2605 83.4566 46.4704C83.4401 46.6803 83.2759 46.6157 83.2759 46.6157H77.4347C77.4347 46.6157 75.9675 46.8687 74.9821 45.0818C73.9967 43.3003 72.7431 40.9537 72.7431 40.9537C72.7431 40.9537 72.4365 40.2217 71.5441 40.2433C70.6518 40.2702 70.2358 41.0183 70.2358 41.0183L70.077 41.3735C70.077 41.3735 69.9949 41.5942 69.8087 41.5457C69.6226 41.4919 69.754 41.2982 69.754 41.2982L73.8051 31.1475Z" fill="white"/>
<path fill-rule="evenodd" clip-rule="evenodd" d="M12.4306 46.6051V33.3382C12.4306 33.3382 12.3868 32.0196 11.5656 31.8904C11.5656 31.8904 11.1988 31.9604 11.1715 31.6966C11.1715 31.6966 11.1551 31.5459 11.2974 31.5298H23.3193L24.0857 34.8721C24.0857 34.8721 24.1405 34.9851 23.9707 34.9959C23.801 35.012 23.801 34.969 23.7737 34.8721C23.7463 34.7752 22.9251 32.547 19.9525 32.5309L18.0583 32.5039V38.4458H21.4689C21.4689 38.4458 22.5036 38.3759 22.6295 37.3855C22.6295 37.3855 22.5857 36.9119 22.7445 36.885C22.7445 36.885 22.9416 36.815 22.9853 37.0249C23.0291 37.2348 24.0912 41.885 24.0912 41.885C24.0912 41.885 24.135 42.0088 24.02 42.0411C23.9051 42.068 23.8503 42.0411 23.8065 41.9011C23.7627 41.7612 23.0565 39.4953 19.6843 39.4953H18.0693V44.8667C18.0693 44.8667 18.1733 45.9055 18.9999 46.223C19.4926 46.4114 19.4215 46.5997 19.2791 46.6159L12.4306 46.6051Z" fill="white"/>
<path fill-rule="evenodd" clip-rule="evenodd" d="M25.6298 46.6051V33.3382C25.6298 33.3382 25.586 32.0196 24.7649 31.8904C24.7649 31.8904 24.3981 31.9604 24.3707 31.6966C24.3707 31.6966 24.3543 31.5459 24.4966 31.5298H36.5185L37.2849 34.8721C37.2849 34.8721 37.3397 34.9851 37.17 34.9959C37.0003 35.012 37.0003 34.969 36.9729 34.8721C36.9455 34.7752 36.1243 32.547 33.1517 32.5309L31.2521 32.5039V38.4458H34.6627C34.6627 38.4458 35.6973 38.3759 35.8233 37.3855C35.8233 37.3855 35.7795 36.9119 35.9382 36.885C35.9382 36.885 36.1353 36.815 36.1791 37.0249C36.2229 37.2348 37.2849 41.885 37.2849 41.885C37.2849 41.885 37.3287 42.0088 37.2138 42.0411C37.0988 42.068 37.0441 42.0411 37.0003 41.9011C36.9565 41.7612 36.2503 39.4953 32.878 39.4953H31.263V45.6256H33.0915C33.0915 45.6256 36.1408 45.6256 36.9619 43.2144C36.9619 43.2144 37.0222 43.096 37.1426 43.1067C37.263 43.1229 37.2521 43.2252 37.2192 43.3328C37.1919 43.4351 36.4747 46.6105 36.4747 46.6105L25.6298 46.6051Z" fill="white"/>
<path fill-rule="evenodd" clip-rule="evenodd" d="M39.2393 46.6159L39.2502 33.5104C39.2502 33.5104 39.1462 31.9226 38.1444 31.8473C38.1444 31.8473 37.9473 31.8473 37.9199 31.702C37.8926 31.5567 38.013 31.5567 38.1444 31.5567H44.2977C44.2977 31.5567 45.4583 31.5297 45.9564 32.3963L48.4802 36.9603C48.4802 36.9603 48.7593 37.6385 49.4984 37.59C50.117 37.5523 50.2758 37.041 50.3196 36.7827L51.1188 31.7881C51.1188 31.7881 51.1791 31.5513 51.398 31.5513H57.3816V44.8667C57.3816 44.8667 57.6225 46.1046 58.4218 46.266C58.4218 46.266 58.701 46.2445 58.7229 46.406C58.7448 46.562 58.6462 46.6428 58.5039 46.6428H51.8469L51.825 36.336L47.544 47.0357H47.4893L41.3743 36.2176V44.6891C41.3743 44.6891 41.2703 45.8893 42.4637 46.2445C42.4637 46.2445 42.7156 46.3037 42.7156 46.4598C42.7156 46.6159 42.5842 46.6159 42.5842 46.6159H39.2393Z" fill="white"/>
</g>
<path d="M248.834 34.5971C248.053 33.8157 247.066 33.281 245.996 33.0754L242.5 32.3351C241.637 32.1294 241.184 31.7181 241.184 31.1012C241.184 30.4843 241.349 30.3609 241.637 30.1141C242.089 29.7851 242.624 29.6206 243.158 29.7028C243.858 29.7028 244.516 29.8674 245.092 30.2375C245.585 30.5665 245.873 31.1012 245.955 31.7181L249.657 30.9778C249.41 29.7028 248.67 28.5924 247.559 27.8521C246.284 27.0295 244.804 26.6182 243.323 26.6593C241.76 26.5771 240.238 27.0706 239.005 28.0166C237.935 28.8391 237.359 30.1553 237.359 31.5125C237.359 32.4996 237.73 33.4867 238.429 34.1858C239.292 34.9673 240.321 35.502 241.472 35.6665L244.433 36.2834C245.503 36.5302 246.037 36.9415 246.037 37.5995C246.037 38.0108 245.791 38.4221 245.421 38.6688C244.927 38.9567 244.351 39.1213 243.734 39.0801C241.884 39.0801 240.896 38.4221 240.732 37.106L236.825 37.8874C236.948 39.2446 237.73 40.4785 238.922 41.1365C240.28 41.8769 241.801 42.247 243.364 42.2059C245.009 42.2881 246.654 41.8357 248.012 40.9309C249.163 40.1083 249.821 38.7511 249.739 37.3116C249.739 36.3245 249.41 35.4197 248.752 34.6794L248.834 34.5971ZM217.947 37.8052C217.206 38.2164 216.384 38.4632 215.52 38.5043C214.081 38.5043 213.382 37.6406 213.382 35.9955V30.2375H218.152V27.0706H211.777C212.765 26.0835 213.299 24.7674 213.217 23.3691V21.9707H210.05V23.3691C210.05 25.3844 208.405 27.0706 206.349 27.0706V30.2375H209.474V36.2834C209.351 37.8874 209.886 39.4914 210.996 40.643C212.148 41.6712 213.669 42.1648 215.191 42.0825C216.507 42.0825 217.823 41.6712 218.975 41.0132L217.864 37.8052H217.947ZM183.317 27.0706V33.5278C183.317 36.8592 182.124 38.5455 179.697 38.5455C178.875 38.5455 178.093 38.2164 177.559 37.5995C176.983 36.9003 176.695 35.9955 176.736 35.1318V27.0706H172.87V35.9544C172.788 37.5995 173.364 39.1624 174.474 40.3962C175.584 41.5478 177.106 42.1648 178.71 42.0825C180.396 42.1648 182.083 41.5067 183.275 40.314V41.6301H187.142V27.0295H183.275L183.317 27.0706ZM203.387 28.3456C202.277 27.194 200.755 26.5771 199.151 26.6593C197.465 26.5771 195.779 27.2351 194.545 28.4279V27.1118H190.679V41.7124H194.545V35.2552C194.545 31.9238 195.737 30.2375 198.164 30.2375C198.987 30.2375 199.768 30.5665 200.303 31.1835C200.878 31.8827 201.166 32.7875 201.084 33.6512V41.7124H204.95V32.8286C205.032 31.1835 204.457 29.6206 203.346 28.3867L203.387 28.3456ZM233.164 28.8803C231.684 27.4408 229.668 26.7005 227.612 26.7416C225.514 26.7005 223.499 27.4819 221.977 28.8803C221.977 28.8803 221.936 28.9214 221.895 28.9625C218.893 32.006 218.934 36.9003 221.977 39.9027C223.499 41.3422 225.514 42.1236 227.612 42.0825C228.064 42.0825 228.558 42.0825 229.01 42.0002C230.573 41.7535 232.013 41.0543 233.205 39.9438C233.205 39.9438 233.205 39.9438 233.247 39.9027C233.658 39.4914 233.987 39.039 234.316 38.5866C236.208 35.5842 235.838 31.5536 233.205 28.9214L233.164 28.8803ZM230.491 37.5172C229.751 38.2987 228.722 38.71 227.612 38.71H227.489C225.144 38.6277 223.335 36.6947 223.417 34.3504V34.227C223.417 31.8827 225.309 29.9907 227.653 29.9907C228.722 29.9907 229.751 30.4432 230.532 31.2246C231.396 32.0472 231.848 33.1988 231.807 34.3915C231.848 35.5842 231.396 36.6947 230.532 37.5584L230.491 37.5172ZM262.859 27.1118V21.9707H259.445V27.1118H254.304V30.5254H259.445V35.6665H262.859V30.5254H268V27.1118H262.859ZM165.59 21.9707V34.6794C165.59 35.6665 165.261 36.6536 164.603 37.3939C163.164 38.7922 160.86 38.8334 159.38 37.4761C158.722 36.7769 158.311 35.831 158.187 34.8439L154.403 35.6253C154.65 37.435 155.514 39.0801 156.871 40.314C158.269 41.5067 160.12 42.1648 161.971 42.0825C164.027 42.1648 166.002 41.4245 167.482 39.985C168.881 38.5866 169.662 36.6536 169.621 34.6794V21.9707H165.631H165.59Z" fill="white"/>
<path d="M132.605 41.4244C132.317 41.1365 131.865 41.1776 131.618 41.4244C131.618 41.4244 130.878 42.1647 129.685 42.1647C128.493 42.1647 128.739 42.0002 128.451 41.8357C128.328 41.7534 128.287 41.5478 128.41 41.4244L129.438 40.2728C130.055 39.6148 129.562 38.5454 128.657 38.5454H126.313C125.408 38.5454 124.955 39.6148 125.531 40.2728L126.559 41.4244C126.683 41.5478 126.642 41.7534 126.518 41.8357C126.272 42.0002 125.86 42.1647 125.284 42.1647C124.092 42.1647 123.393 41.4655 123.351 41.4244C123.064 41.1365 122.652 41.1365 122.364 41.4244C122.076 41.7123 122.076 42.1236 122.364 42.4115C122.405 42.4526 123.516 43.6042 125.367 43.6042C127.218 43.6042 127.094 43.2341 127.547 42.905C127.999 43.2341 128.698 43.6042 129.726 43.6042C131.577 43.6042 132.646 42.4526 132.729 42.4115C133.017 42.1236 132.976 41.6712 132.729 41.3833L132.605 41.4244Z" fill="white"/>
<path d="M133.962 32.623L137.088 39.4503L137.211 39.7382C137.458 40.314 137.582 40.9721 137.582 41.6301C137.582 42.2882 137.582 41.7947 137.582 41.9181C137.582 42.0826 137.582 42.2471 137.54 42.3705C137.54 42.4527 137.54 42.535 137.499 42.6172C137.499 42.6995 137.499 42.7817 137.458 42.864C137.376 43.1108 137.335 43.3164 137.211 43.5221C137.006 44.0156 136.718 44.468 136.471 44.8382C136.471 44.8793 136.389 44.9616 136.348 45.0027C135.936 45.5374 135.525 45.9898 135.155 46.4422C135.155 46.4422 135.114 46.5244 135.073 46.5244C134.908 46.7712 134.744 47.018 134.661 47.3059C134.661 47.347 134.662 47.3881 134.62 47.4704C134.62 47.4704 134.62 47.5526 134.62 47.5938C134.62 47.6349 134.62 47.676 134.62 47.7583C134.62 47.7994 134.62 47.8405 134.62 47.8817C134.62 47.9228 134.62 47.9639 134.62 48.0051C134.62 48.0462 134.62 48.0873 134.62 48.1284C134.62 48.1696 134.62 48.2518 134.62 48.293C134.62 48.6631 134.703 49.0333 134.826 49.3623V49.4857C134.867 49.4857 135.484 51.0074 135.484 51.0074L135.607 51.2953H133.674L133.551 51.0074L133.222 50.1849C132.975 49.6091 132.852 48.951 132.852 48.293C132.852 47.6349 132.975 46.9768 133.263 46.4011C133.304 46.2777 133.387 46.1132 133.469 45.9898C133.469 45.9075 133.551 45.8664 133.592 45.7841C133.592 45.7019 133.674 45.6607 133.716 45.5785C133.716 45.5374 133.798 45.4551 133.839 45.414C133.962 45.2495 134.086 45.0849 134.209 44.9616C134.25 44.8793 134.332 44.8382 134.374 44.7559C134.538 44.5503 134.703 44.3858 134.867 44.1801L135.032 44.0156C135.525 43.3987 135.936 42.7406 135.978 41.7947C135.978 41.7535 135.978 41.6713 135.978 41.6301C135.978 41.589 135.978 41.5068 135.978 41.4656C135.978 41.3834 135.978 41.26 135.978 41.1777C135.978 41.1366 135.978 41.0544 135.978 41.0132C135.936 40.8076 135.854 40.6019 135.772 40.3963V40.314L134.209 36.9415L133.345 35.0085L132.358 32.8287L133.263 30.4843L133.757 29.1682L136.512 22.0119L139.145 15.1023L139.926 13.0459C140.255 12.2233 140.214 11.3185 139.844 10.537C139.474 9.75561 138.815 9.13868 137.952 8.89191C137.664 8.80965 137.376 8.7274 137.047 8.7274C136.965 8.7274 136.841 8.7274 136.759 8.7274C136.265 8.7274 135.813 8.89191 135.361 9.13868C134.703 9.50884 134.209 10.1258 133.962 10.825C133.921 10.9483 133.88 11.1129 133.839 11.2362L131.453 22.999L130.137 29.415L129.849 30.9368V31.1835C129.808 31.1835 129.808 31.1835 129.808 31.1835C129.274 31.019 128.739 30.8956 128.122 30.8545C127.999 30.8545 127.875 30.8545 127.793 30.8545C127.711 30.8545 127.587 30.8545 127.464 30.8545C126.888 30.8545 126.312 30.9779 125.778 31.1835V30.8956C125.737 30.8956 125.408 29.3739 125.408 29.3739L124.091 22.9578L123.475 19.9966C123.269 18.9272 122.529 18.0636 121.542 17.6523C120.513 17.241 119.403 17.3232 118.498 17.9402L118.21 18.1458L117.758 18.4337L116.73 19.0918L116.277 19.3797L110.807 22.9578C110.108 23.4103 109.614 24.1506 109.45 25.0143C109.285 25.8368 109.45 26.7005 109.943 27.4408C110.437 28.1812 111.177 28.6336 112.041 28.7981C112.905 28.9215 113.768 28.7158 114.467 28.2223L118.457 25.2199H118.498L119.814 24.1917L119.938 24.1094L120.225 23.9038L122.446 30.2376L122.734 31.1013L123.269 32.7053L122.241 34.9673L121.336 36.9004L119.814 40.2729V40.3552C119.691 40.5197 119.65 40.7253 119.609 40.931C119.609 41.0132 119.609 41.0543 119.609 41.1366C119.609 41.2189 119.609 41.3423 119.609 41.4245C119.609 41.4656 119.609 41.5479 119.609 41.589C119.609 41.6301 119.609 41.7124 119.609 41.7535C119.691 43.3987 120.883 44.2212 121.747 45.414C121.747 45.4551 121.829 45.5374 121.871 45.5785C121.912 45.6607 121.953 45.7019 121.994 45.7841C122.035 45.8664 122.076 45.9075 122.117 45.9898C122.2 46.1132 122.241 46.2365 122.323 46.4011C122.57 46.9768 122.734 47.6349 122.734 48.293C122.734 48.951 122.611 49.6091 122.364 50.1849L122.035 51.0074L121.912 51.2953H119.979L120.102 51.0074L120.719 49.4857V49.3623C120.883 49.0333 120.966 48.6631 120.966 48.293C120.966 47.9228 120.966 48.1696 120.966 48.1284C120.966 48.0873 120.966 48.0462 120.966 48.0051C120.966 47.9639 120.966 47.9228 120.966 47.8817C120.966 47.8405 120.966 47.7994 120.966 47.7583C120.966 47.7172 120.966 47.676 120.966 47.5938C120.966 47.5938 120.966 47.5115 120.966 47.4704C120.966 47.4293 120.966 47.3881 120.925 47.3059C120.801 46.9768 120.637 46.689 120.472 46.4422C119.855 45.5785 118.95 44.8382 118.375 43.4809V43.3987C118.375 43.3987 118.375 43.3164 118.334 43.2753C118.334 43.193 118.292 43.1108 118.251 43.0285C118.169 42.8229 118.128 42.5761 118.087 42.3293C118.087 42.206 118.087 42.0826 118.046 41.9592C118.046 41.8358 118.046 41.7124 118.046 41.5479C118.046 40.8898 118.169 40.2729 118.416 39.6971L118.539 39.4092L121.665 32.5408V32.4585L120.883 30.1553L119.65 26.6183L119.444 26.7828L115.825 29.5384C114.755 30.361 113.398 30.69 112.082 30.4432C110.766 30.2376 109.614 29.4973 108.833 28.3457C108.093 27.2352 107.846 25.9191 108.093 24.6441C108.339 23.3691 109.121 22.2175 110.19 21.5183L115.989 17.7345L116.812 17.1999L117.47 16.7886L117.922 16.5007C118.087 16.3773 118.251 16.295 118.457 16.2128C119.732 15.5959 121.254 15.5136 122.57 16.0894C122.775 16.1716 122.981 16.2539 123.146 16.3773C123.31 16.4595 123.433 16.5418 123.557 16.6652C124.544 17.3644 125.243 18.4748 125.49 19.7087L126.148 22.999L127.341 28.7981L127.423 29.1271C127.67 29.1271 127.875 29.1271 128.122 29.1271C128.369 29.1271 128.616 29.1271 128.821 29.1271L128.862 28.7981L130.055 22.999L132.523 10.9072C132.564 10.6604 132.646 10.4137 132.728 10.1669C133.14 9.09756 133.88 8.23386 134.867 7.65806C135.525 7.2879 136.266 7.04113 137.047 7C137.211 7 137.376 7 137.54 7C137.623 7 137.664 7 137.746 7C137.828 7 137.952 7 138.034 7C138.322 7.04113 138.61 7.12339 138.898 7.20564C140.173 7.61693 141.201 8.52176 141.777 9.75561C142.353 10.9895 142.394 12.3467 141.9 13.6217L137.828 24.1917L137.006 26.3304L134.62 32.5819L133.962 32.623Z" fill="white"/>
<defs>
<clipPath id="clip0_2468_4955">
<rect width="87" height="45" fill="white" transform="translate(4 4)"/>
</clipPath>
</defs>
</svg>
