<?xml version="1.0" encoding="utf-8"?>
<!-- Generator: Adobe Illustrator 24.0.0, SVG Export Plug-In . SVG Version: 6.00 Build 0)  -->
<svg version="1.0" id="Camada_1" xmlns="http://www.w3.org/2000/svg" xmlns:xlink="http://www.w3.org/1999/xlink" x="0px" y="0px"
	 viewBox="0 0 100 53" style="enable-background:new 0 0 100 53;" xml:space="preserve">
<style type="text/css">
	.st0{fill:#FFFFFF;}
</style>
<path class="st0" d="M58.4,10.1c1.1,0,3.2-3,2.9-5.8C57.7,6.7,57,10.1,58.4,10.1z"/>
<path class="st0" d="M31.9,8.5c-0.7,0-1.2,0.9-1.4,1.7c0.2,0.3,0.6,1,1.5,1.1C32.8,9.8,32.5,8.5,31.9,8.5z"/>
<path class="st0" d="M44.2,8.4c-1.6,0-3.9,5-3.9,6.2c0,0.8,1.2,0.8,1.9-0.6c0,0,2-4.3,2.2-4.7C44.6,8.9,44.6,8.4,44.2,8.4z"/>
<path class="st0" d="M62.5,13.2c-0.7,0-1,0.5-1.3,1.4c0.1,1,0.7,1.3,1.5,1.5C63.7,14.2,63.1,13.2,62.5,13.2z"/>
<path class="st0" d="M60.7,15.3c-2,3-2,4.7-0.8,4.7c0.6,0,1.5-0.7,2.5-3.2C62.3,16.8,61,16.3,60.7,15.3z"/>
<path class="st0" d="M30.1,10.5c-0.6,1.1-1.7,2.9-1.7,4c0,1.8,2.4,0.2,3.4-2.7C31.5,11.8,30.4,11.3,30.1,10.5z"/>
<path class="st0" d="M69.5,19.2c-0.3,1.4,1.4,0.5,1.9-0.7c0,0,2.1-4,2.4-4.8C73.6,11.8,70.5,15.4,69.5,19.2z"/>
<path class="st0" d="M100,24.6V0H0v24.6H100z M78.9,2.3c-2.3,5-5.9,6-8.5,5.7c0.4-0.9,1.4-2.2,1.4-2.2S75.7,6.5,78.9,2.3z M74.2,2.6
	c0.9,0,1.1,1.1,0.4,2.7l-0.7,0.2c0.6-1.3,0.5-2,0.2-2c-1.5,0-4.4,4.1-7.4,11.2c1.8-1.3,4-3.5,5.5-6.4C72.7,8.2,73,8,73,8
	c-1.6,3.1-3.4,5.1-6.7,7.9c-1,3-1,4.2-0.2,4.2c0.5,0,2.3-2.7,2.9-4.1c0.8-1.7,3.8-5.2,5.4-3.1l0.2-0.6h1.8l-3.2,6.9
	c-0.3,1,0.8,0.9,2.3-2h0.6c-2.3,5-5.7,5.9-5.3,3.2c-2.1,2.5-3.7,1.9-3.4-0.7c-2.3,3.7-5.3,3.2-3.4-2.9c-0.4,0.2-0.9,0.1-0.9,0.1
	c-1.8,4.3-3.7,5.2-4.6,5.2c-1,0-1.5-1-1.5-1.9c0-3,3.4-7.9,5.6-7.9c1.9,0,1.4,2.8,0.8,3.8c0.4,0,0.8-0.2,0.8-0.2
	C66.6,8.5,71.7,2.6,74.2,2.6z M60,2.7c0.9,0,1.3,0.4,1.5,0.7c3.6-2,6.7,0.9,8.2,1.8c-0.3,0.3-1.5,2-1.5,2c-1.9-1.2-4.7-4-6.4-3.1
	c0.3,2.6-1.6,6.7-3.7,6.7c-2.4,0-1-4.6,2.7-6.9c0,0-0.1-0.3-0.5-0.3c-3,0-9.9,9.7-9.9,14.9c0,1.8,1,2.3,1.8,2.3
	c1.5,0,4.7-2.6,4.7-6.4c0-1.5-1.8-2-2.5,2.2c-0.7,0-1.5,0.5-2.6,2c0.7-4.5,2.6-6.3,4.2-6.3c0.8,0,1.5,0.3,1.5,2c0,4.2-4,7.7-6.3,7.7
	c-2,0-3.5-1.7-3.5-4.2C47.8,13.6,54.1,2.7,60,2.7z M48.8,7.6h1.8l-1,2h-1.8L48.8,7.6z M34.9,10c1.6-2.2,2.5-2.4,3.4-2.4
	c2.1,0,1.4,3.5-0.1,3.5c-0.6,0-0.8-1.9,0.8-1.9c0.2-0.3-0.1-0.6-0.5-0.6c-1.4,0-3.8,4.6-3.8,6.3c0,0.9,0.5,1,0.8,1
	c0.5,0,1.5,0.1,5.1-6.1C42.3,7.3,44,6.9,45,8.1l0.3-0.6h1.9L44,14.2c-0.4,1.1,0.4,1.9,2.3-1.9h0.6c-2.2,5.6-6.2,6-5.4,3.3
	c-2.1,2.4-4.1,2.2-3.4-1c-2.1,3.7-8.1,4.2-4.4-3c-0.6,0.3-1.3,0.3-1.3,0.3c-0.7,2.2-3.1,5.4-4.8,5.4c-1.6,0-1.5-1.5-1.5-1.9
	c0-3.1,3.2-7.7,5.7-7.7c1.4,0,1.6,1.8,0.9,3.6C34.1,11,34.9,10,34.9,10z M31.3,2.6c2.7,0,1.4,3.9,0.2,3.9c-1.1,0-0.9-1.8,0.8-2
	c0.1-0.5-0.2-1.1-0.7-1.1c-2.5,0-8.6,8.4-8.6,13.5c0,3.1,2.3,4.1,3.9,4.1c2.8,0,7.8-2.7,11.9-2.7c4.3,0,6.2,2,7.8,3.6
	c-2.8-1.6-5.8-1.9-7.1,0c-1.2-2.1-3.3-2-4-2c-4.2,0-6.7,2.1-10.3,2.1c-3.2,0-4.9-2.5-4.9-4.9C20.4,9.6,27.9,2.6,31.3,2.6z"/>
<path class="st0" d="M0,29.8V53h100V29.8H0z M20.1,40.6c0,0,1.2-0.1,1.3-1.2c0,0,0-0.6,0.1-0.6c0,0,0.2-0.1,0.3,0.2
	c0,0.2,1.3,5.7,1.3,5.7s0,0.1-0.1,0.2c-0.1,0-0.2,0-0.2-0.2c0-0.2-0.9-2.8-4.7-2.8h-1.9v6.3c0,0,0.1,1.2,1.1,1.6
	c0.6,0.2,0.5,0.4,0.3,0.5l-7.9,0V34.6c0,0-0.1-1.6-1-1.7c0,0-0.4,0.1-0.5-0.2c0,0,0-0.2,0.1-0.2h13.8l0.9,3.9c0,0,0.1,0.1-0.1,0.1
	c-0.2,0-0.2,0-0.2-0.1c0-0.1-1-2.7-4.4-2.8l-2.2,0v7L20.1,40.6L20.1,40.6z M35.2,40.6c0,0,1.2-0.1,1.3-1.2c0,0,0-0.6,0.1-0.6
	c0,0,0.2-0.1,0.3,0.2c0,0.2,1.3,5.7,1.3,5.7s0,0.1-0.1,0.2c-0.1,0-0.2,0-0.2-0.2c0-0.2-0.9-2.8-4.7-2.8h-1.9V49h2.1
	c0,0,3.5,0,4.5-2.8c0,0,0.1-0.1,0.2-0.1c0.1,0,0.1,0.1,0.1,0.3c0,0.1-0.9,3.9-0.9,3.9l-12.5,0V34.6c0,0-0.1-1.6-1-1.7
	c0,0-0.4,0.1-0.5-0.2c0,0,0-0.2,0.1-0.2h13.8l0.9,3.9c0,0,0.1,0.1-0.1,0.1c-0.2,0-0.2,0-0.2-0.1c0-0.1-1-2.7-4.4-2.8l-2.2,0v7
	L35.2,40.6L35.2,40.6z M62.7,50.2H55l0-12.1l-4.9,12.6H50l-7-12.7v10c0,0-0.1,1.4,1.3,1.8c0,0,0.3,0.1,0.3,0.3
	c0,0.2-0.1,0.2-0.1,0.2h-3.8l0-15.4c0,0-0.1-1.9-1.3-2c0,0-0.2,0-0.3-0.2c0-0.2,0.1-0.2,0.3-0.2h7.1c0,0,1.3,0,1.9,1l2.9,5.4
	c0,0,0.3,0.8,1.2,0.7c0.7,0,0.9-0.6,0.9-1l0.9-5.9c0,0,0.1-0.3,0.3-0.3h6.9v15.7c0,0,0.3,1.5,1.2,1.6c0,0,0.3,0,0.3,0.2
	C63,50.1,62.9,50.2,62.7,50.2z M91.2,50.2h-6.7c0,0-1.7,0.3-2.8-1.8c-1.1-2.1-2.6-4.9-2.6-4.9s-0.4-0.9-1.4-0.8
	c-1,0-1.5,0.9-1.5,0.9L76,44c0,0-0.1,0.3-0.3,0.2c0,0,0,0,0,0c0,0.3,0,0.4,0,0.4s0.1,5.1-4.9,5.9c-4.9,0.8-7.4-1.8-7.4-1.8v-4.5
	c0-0.5,0.4,0,0.4,0c2.8,4.1,5.7,3.8,6.2,2c0.5-1.8-2.9-2.8-3.6-3.3c-0.3-0.2-3.1-1.6-3.5-5.2c-0.4-3.6,2.9-5.8,6-5.9
	c3.1-0.1,5.6,1.2,5.6,1.2s0.3,4.5,0.3,4.5c0,0.1-0.1,0-0.1,0l-0.2,0c-3.7-4.2-5.8-2.8-6.1-2.4c-0.3,0.4-0.8,1.6,2.6,3
	c3.7,1.6,4.5,4.4,4.6,5.7l4.7-12h0.1l9,16.6c0,0,0.5,1,1.7,1.2c0,0,0.3,0,0.3,0.2C91.4,50.3,91.2,50.2,91.2,50.2z"/>
</svg>
